<svg xmlns="http://www.w3.org/2000/svg" xmlns:xlink="http://www.w3.org/1999/xlink" width="47" height="55" viewBox="0 0 47 55">
  <defs>
    <filter id="Path_208" x="0" y="0" width="31" height="41" filterUnits="userSpaceOnUse">
      <feOffset dy="3" input="SourceAlpha"/>
      <feGaussianBlur stdDeviation="3" result="blur"/>
      <feFlood flood-opacity="0.161"/>
      <feComposite operator="in" in2="blur"/>
      <feComposite in="SourceGraphic"/>
    </filter>
    <filter id="Path_209" x="16" y="0" width="31" height="29" filterUnits="userSpaceOnUse">
      <feOffset dy="3" input="SourceAlpha"/>
      <feGaussianBlur stdDeviation="3" result="blur-2"/>
      <feFlood flood-opacity="0.161"/>
      <feComposite operator="in" in2="blur-2"/>
      <feComposite in="SourceGraphic"/>
    </filter>
    <filter id="Path_210" x="0" y="26" width="31" height="29" filterUnits="userSpaceOnUse">
      <feOffset dy="3" input="SourceAlpha"/>
      <feGaussianBlur stdDeviation="3" result="blur-3"/>
      <feFlood flood-opacity="0.161"/>
      <feComposite operator="in" in2="blur-3"/>
      <feComposite in="SourceGraphic"/>
    </filter>
    <filter id="Rectangle_116" x="16" y="14" width="31" height="41" filterUnits="userSpaceOnUse">
      <feOffset dy="3" input="SourceAlpha"/>
      <feGaussianBlur stdDeviation="3" result="blur-4"/>
      <feFlood flood-opacity="0.161"/>
      <feComposite operator="in" in2="blur-4"/>
      <feComposite in="SourceGraphic"/>
    </filter>
  </defs>
  <g id="Group_68" data-name="Group 68" transform="translate(9 6.104)">
    <g transform="matrix(1, 0, 0, 1, -9, -6.1)" filter="url(#Path_208)">
      <path id="Path_208-2" data-name="Path 208" d="M1,0H12a1,1,0,0,1,1,1V22a1,1,0,0,1-1,1H1a1,1,0,0,1-1-1V1A1,1,0,0,1,1,0Z" transform="translate(9 6)" fill="#f28705"/>
    </g>
    <g transform="matrix(1, 0, 0, 1, -9, -6.1)" filter="url(#Path_209)">
      <path id="Path_209-2" data-name="Path 209" d="M1,0H12a1,1,0,0,1,1,1v9a1,1,0,0,1-1,1H1a1,1,0,0,1-1-1V1A1,1,0,0,1,1,0Z" transform="translate(25 6)" fill="#f25c05"/>
    </g>
    <g transform="matrix(1, 0, 0, 1, -9, -6.1)" filter="url(#Path_210)">
      <path id="Path_210-2" data-name="Path 210" d="M1,0H12a1,1,0,0,1,1,1v9a1,1,0,0,1-1,1H1a1,1,0,0,1-1-1V1A1,1,0,0,1,1,0Z" transform="translate(9 32)" fill="#f25c05"/>
    </g>
    <g transform="matrix(1, 0, 0, 1, -9, -6.1)" filter="url(#Rectangle_116)">
      <rect id="Rectangle_116-2" data-name="Rectangle 116" width="13" height="23" rx="1" transform="translate(25 20)" fill="#f28705"/>
    </g>
  </g>
</svg>
