<svg xmlns="http://www.w3.org/2000/svg" xmlns:xlink="http://www.w3.org/1999/xlink" width="54" height="55" viewBox="0 0 54 55">
  <defs>
    <filter id="Path_212" x="0" y="0" width="54" height="55" filterUnits="userSpaceOnUse">
      <feOffset dy="3" input="SourceAlpha"/>
      <feGaussianBlur stdDeviation="3" result="blur"/>
      <feFlood flood-opacity="0.4"/>
      <feComposite operator="in" in2="blur"/>
      <feComposite in="SourceGraphic"/>
    </filter>
  </defs>
  <g id="ic_settings_48px" transform="translate(252.454 238)">
    <g transform="matrix(1, 0, 0, 1, -252.45, -238)" filter="url(#Path_212)">
      <path id="Path_212-2" data-name="Path 212" d="M36.287,24.3a14.522,14.522,0,0,0,.13-1.8,14.523,14.523,0,0,0-.13-1.8L40.2,17.635a.923.923,0,0,0,.222-1.184l-3.7-6.41a.915.915,0,0,0-1.129-.4L30.986,11.5A14.038,14.038,0,0,0,27.86,9.68l-.694-4.9A.951.951,0,0,0,26.241,4h-7.4a.934.934,0,0,0-.916.777l-.694,4.9A13.69,13.69,0,0,0,14.105,11.5L9.5,9.643a.926.926,0,0,0-1.129.4l-3.7,6.41a.927.927,0,0,0,.222,1.184L8.8,20.7a14.522,14.522,0,0,0-.13,1.8,14.522,14.522,0,0,0,.13,1.8l-3.9,3.062A.923.923,0,0,0,4.67,28.55l3.7,6.41a.915.915,0,0,0,1.129.4L14.105,33.5a14.037,14.037,0,0,0,3.127,1.822l.694,4.9a.934.934,0,0,0,.916.777h7.4a.934.934,0,0,0,.916-.777l.694-4.9A13.69,13.69,0,0,0,30.977,33.5l4.607,1.859a.926.926,0,0,0,1.129-.4l3.7-6.41a.927.927,0,0,0-.222-1.184ZM22.541,28.975A6.475,6.475,0,1,1,29.016,22.5,6.47,6.47,0,0,1,22.541,28.975Z" transform="translate(4.45 2)" fill="#707070"/>
    </g>
  </g>
</svg>
