<?xml version="1.0" encoding="utf-8"?>
<!-- Generator: Adobe Illustrator 16.0.0, SVG Export Plug-In . SVG Version: 6.00 Build 0)  -->
<!DOCTYPE svg PUBLIC "-//W3C//DTD SVG 1.1//EN" "http://www.w3.org/Graphics/SVG/1.1/DTD/svg11.dtd">
<svg version="1.1" id="Layer_1" xmlns="http://www.w3.org/2000/svg" xmlns:xlink="http://www.w3.org/1999/xlink" x="0px" y="0px"
	  viewBox="0 0 298 114" enable-background="new 0 0 298 114" xml:space="preserve">
<g>
	<path fill-rule="evenodd" clip-rule="evenodd" fill="#FFFFFF" d="M55.355,6.414c27.861,0,50.586,22.725,50.586,50.586
		s-22.725,50.586-50.586,50.586S4.77,84.861,4.77,57S27.494,6.414,55.355,6.414"/>
	<path fill="none" stroke="#1D1D1B" stroke-width="0.7412" stroke-miterlimit="22.9256" d="M55.355,7.275
		c27.389,0,49.727,22.338,49.727,49.726c0,27.39-22.338,49.729-49.727,49.729c-27.388,0-49.726-22.34-49.726-49.729
		C5.63,29.613,27.968,7.275,55.355,7.275z"/>
	<path fill-rule="evenodd" clip-rule="evenodd" fill="#FFFFFF" d="M55.355,7.272c27.39,0,49.727,22.339,49.727,49.728
		c0,27.388-22.337,49.727-49.727,49.727C27.968,106.727,5.63,84.388,5.63,57C5.63,29.611,27.968,7.272,55.355,7.272"/>
	<path fill-rule="evenodd" clip-rule="evenodd" fill="#FFFFFF" d="M55.355,18.517C76.552,18.517,93.84,35.805,93.84,57
		c0,21.196-17.288,38.482-38.484,38.482C34.16,95.482,16.872,78.196,16.872,57C16.872,35.805,34.16,18.517,55.355,18.517"/>
	<path fill="none" stroke="#1D1D1B" stroke-width="0.7412" stroke-miterlimit="22.9256" d="M55.355,19.572
		c20.616,0,37.431,16.814,37.431,37.429c0,20.619-16.814,37.432-37.431,37.432c-20.615,0-37.43-16.813-37.43-37.432
		C17.926,36.387,34.74,19.572,55.355,19.572z"/>
	<path fill-rule="evenodd" clip-rule="evenodd" d="M55.355,19.57c20.616,0,37.432,16.814,37.432,37.43
		c0,20.616-16.815,37.431-37.432,37.431c-20.615,0-37.43-16.814-37.43-37.431C17.926,36.385,34.74,19.57,55.355,19.57"/>
	<g>
		<defs>
			<path id="SVGID_1_" d="M55.355,19.57c20.616,0,37.432,16.814,37.432,37.43c0,20.616-16.815,37.431-37.432,37.431
				c-20.615,0-37.43-16.814-37.43-37.431C17.926,36.385,34.74,19.57,55.355,19.57"/>
		</defs>
		<clipPath id="SVGID_2_">
			<use xlink:href="#SVGID_1_"  overflow="visible"/>
		</clipPath>
		<polygon clip-path="url(#SVGID_2_)" fill-rule="evenodd" clip-rule="evenodd" fill="#EE7D00" points="20.612,96.358 9.123,9.136 
			32.397,4.141 		"/>
		<polygon clip-path="url(#SVGID_2_)" fill-rule="evenodd" clip-rule="evenodd" fill="#EE7D00" points="20.175,96.448 43.16,11.526 
			66.563,15.879 		"/>
		<polygon clip-path="url(#SVGID_2_)" fill-rule="evenodd" clip-rule="evenodd" fill="#EE7D00" points="19.737,96.362 
			77.467,22.682 93.574,39.868 		"/>
		<polygon clip-path="url(#SVGID_2_)" fill-rule="evenodd" clip-rule="evenodd" fill="#EE7D00" points="19.368,96.112 
			95.896,52.715 109.265,72.41 		"/>
		<polygon clip-path="url(#SVGID_2_)" fill-rule="evenodd" clip-rule="evenodd" fill="#EE7D00" points="19.122,95.739 
			106.46,85.158 111.214,108.482 		"/>
	</g>
	<path fill-rule="evenodd" clip-rule="evenodd" fill="#1D1D1B" d="M12.389,38.734l0.293-0.61l2.821-0.309l-1.54-2.37l0.292-0.61
		l1.957,2.993l2.524,1.209l-0.249,0.521l-2.525-1.209L12.389,38.734z M11.006,42.305l0.207-0.553l4.953,1.859l0.789-2.105
		l0.529,0.199l-0.997,2.656L11.006,42.305z M9.638,47.083l0.846-3.248l0.559,0.145l-0.697,2.681l1.772,0.463l0.691-2.659
		l0.555,0.143l-0.691,2.659l2.222,0.577l0.692-2.658l0.559,0.147l-0.84,3.225L9.638,47.083z M8.532,53.841l0.096-0.629l4.764-1.242
		l-4.181-2.628l0.096-0.63l5.409,3.394l-0.019,0.125L8.532,53.841z M8.923,58.554c0.002,0.435,0.119,0.844,0.347,1.229
		c0.229,0.387,0.536,0.685,0.919,0.899C10.571,60.899,11,61.005,11.469,61c0.695-0.005,1.28-0.249,1.756-0.735
		c0.475-0.482,0.71-1.067,0.705-1.748c-0.004-0.451-0.117-0.871-0.34-1.256c-0.224-0.384-0.526-0.684-0.91-0.897
		c-0.383-0.213-0.81-0.318-1.275-0.315c-0.465,0.004-0.884,0.115-1.259,0.336c-0.373,0.218-0.671,0.524-0.894,0.92
		C9.029,57.697,8.919,58.114,8.923,58.554z M8.351,58.586c-0.007-0.884,0.282-1.628,0.87-2.23c0.588-0.601,1.313-0.904,2.18-0.91
		c0.856-0.007,1.586,0.285,2.187,0.878c0.602,0.591,0.904,1.314,0.911,2.172c0.006,0.865-0.284,1.602-0.875,2.203
		c-0.589,0.601-1.307,0.905-2.15,0.912c-0.563,0.003-1.086-0.128-1.567-0.396c-0.483-0.27-0.86-0.639-1.137-1.105
		C8.494,59.641,8.354,59.133,8.351,58.586z M9.271,65.899l-0.088-0.581l5.234-0.776l-0.329-2.224l0.559-0.083l0.415,2.807
		L9.271,65.899z"/>
	<path fill="none" stroke="#1D1D1B" stroke-width="0.216" stroke-miterlimit="22.9256" d="M12.389,38.734l0.293-0.61l2.821-0.309
		l-1.54-2.37l0.292-0.61l1.957,2.993l2.524,1.209l-0.249,0.521l-2.525-1.209L12.389,38.734z M11.006,42.305l0.207-0.553l4.953,1.859
		l0.789-2.105l0.529,0.199l-0.997,2.656L11.006,42.305z M9.638,47.083l0.846-3.248l0.559,0.145l-0.697,2.681l1.772,0.463
		l0.691-2.659l0.555,0.143l-0.691,2.659l2.222,0.577l0.692-2.658l0.559,0.147l-0.84,3.225L9.638,47.083z M8.532,53.841l0.096-0.629
		l4.764-1.242l-4.181-2.628l0.096-0.63l5.409,3.394l-0.019,0.125L8.532,53.841z M8.923,58.554c0.002,0.435,0.119,0.844,0.347,1.229
		c0.229,0.387,0.536,0.685,0.919,0.899C10.571,60.899,11,61.005,11.469,61c0.695-0.005,1.28-0.249,1.756-0.735
		c0.475-0.482,0.71-1.067,0.705-1.748c-0.004-0.451-0.117-0.871-0.34-1.256c-0.224-0.384-0.526-0.684-0.91-0.897
		c-0.383-0.213-0.81-0.318-1.275-0.315c-0.465,0.004-0.884,0.115-1.259,0.336c-0.373,0.218-0.671,0.524-0.894,0.92
		C9.029,57.697,8.919,58.114,8.923,58.554z M8.351,58.586c-0.007-0.884,0.282-1.628,0.87-2.23c0.588-0.601,1.313-0.904,2.18-0.91
		c0.856-0.007,1.586,0.285,2.187,0.878c0.602,0.591,0.904,1.314,0.911,2.172c0.006,0.865-0.284,1.602-0.875,2.203
		c-0.589,0.601-1.307,0.905-2.15,0.912c-0.563,0.003-1.086-0.128-1.567-0.396c-0.483-0.27-0.86-0.639-1.137-1.105
		C8.494,59.641,8.354,59.133,8.351,58.586z M9.271,65.899l-0.088-0.581l5.234-0.776l-0.329-2.224l0.559-0.083l0.415,2.807
		L9.271,65.899z"/>
	<path fill-rule="evenodd" clip-rule="evenodd" fill="#1D1D1B" d="M80.318,17.695l0.5,0.313l-2.803,4.486l1.906,1.191l-0.3,0.479
		l-2.406-1.504L80.318,17.695z M76.112,16.696l-1.859,1.434l1.784,0.909L76.112,16.696z M76.741,15.623l-0.226,6.456l-0.561-0.284
		l0.055-2.135l-2.247-1.145l-1.691,1.3l-0.58-0.296l5.122-3.961L76.741,15.623z M66.294,17.777l1.81-5.569l0.121,0.039l2.316,5.467
		l1.386-4.264l0.549,0.179l-1.81,5.569l-0.125-0.042l-2.304-5.402l-1.367,4.211L66.294,17.777z M63.029,11.6
		c-0.427-0.074-0.85-0.035-1.271,0.118c-0.421,0.156-0.771,0.404-1.052,0.742c-0.281,0.338-0.462,0.738-0.544,1.2
		c-0.121,0.687,0.015,1.305,0.405,1.861c0.392,0.555,0.923,0.891,1.593,1.009c0.445,0.079,0.878,0.043,1.296-0.106
		c0.419-0.15,0.768-0.395,1.046-0.732c0.28-0.338,0.461-0.739,0.542-1.197s0.047-0.891-0.101-1.299
		c-0.147-0.405-0.395-0.755-0.743-1.045C63.854,11.86,63.463,11.677,63.029,11.6z M63.101,11.03
		c0.872,0.154,1.551,0.575,2.038,1.261c0.484,0.687,0.652,1.455,0.501,2.308c-0.148,0.845-0.567,1.509-1.258,1.993
		s-1.458,0.651-2.302,0.502c-0.854-0.15-1.524-0.569-2.009-1.258c-0.484-0.69-0.653-1.45-0.508-2.281
		c0.099-0.554,0.323-1.045,0.673-1.47c0.351-0.426,0.781-0.73,1.292-0.917C62.039,10.98,62.563,10.936,63.101,11.03z M57.803,10.617
		l0.585,0.042L57.979,16.5l-0.586-0.041L57.803,10.617z M52.795,15.322l0.492-0.306c0.362,0.638,0.772,0.952,1.232,0.944
		c0.195-0.004,0.38-0.052,0.55-0.147c0.171-0.094,0.301-0.219,0.388-0.374c0.088-0.155,0.131-0.32,0.128-0.492
		c-0.004-0.196-0.073-0.387-0.21-0.573c-0.188-0.258-0.528-0.564-1.02-0.922c-0.493-0.361-0.803-0.622-0.925-0.783
		c-0.212-0.273-0.319-0.57-0.325-0.891c-0.005-0.255,0.051-0.488,0.169-0.7c0.119-0.211,0.289-0.38,0.508-0.504
		c0.22-0.125,0.459-0.188,0.719-0.193c0.276-0.005,0.537,0.059,0.777,0.191c0.243,0.131,0.501,0.379,0.775,0.74l-0.471,0.371
		c-0.225-0.289-0.417-0.479-0.573-0.567c-0.157-0.09-0.327-0.135-0.51-0.132c-0.236,0.005-0.428,0.08-0.575,0.227
		c-0.147,0.146-0.219,0.323-0.216,0.532c0.002,0.128,0.029,0.251,0.085,0.37c0.056,0.118,0.155,0.246,0.298,0.384
		c0.079,0.072,0.335,0.265,0.767,0.571c0.514,0.366,0.867,0.693,1.061,0.98c0.192,0.29,0.292,0.58,0.298,0.874
		c0.008,0.427-0.147,0.797-0.464,1.117c-0.318,0.317-0.706,0.48-1.168,0.488c-0.356,0.007-0.68-0.082-0.973-0.266
		C53.32,16.077,53.049,15.764,52.795,15.322z M48.621,15.808l0.458-0.355c0.427,0.597,0.866,0.866,1.323,0.811
		c0.194-0.023,0.372-0.09,0.532-0.203c0.16-0.111,0.275-0.249,0.346-0.414c0.072-0.163,0.097-0.331,0.076-0.501
		c-0.024-0.196-0.114-0.378-0.269-0.55c-0.215-0.235-0.585-0.506-1.11-0.81c-0.529-0.308-0.863-0.535-1.003-0.683
		c-0.238-0.249-0.376-0.533-0.416-0.852c-0.031-0.253,0-0.49,0.096-0.713s0.247-0.409,0.453-0.556
		c0.204-0.147,0.436-0.235,0.692-0.268c0.275-0.033,0.54,0.002,0.794,0.109c0.256,0.106,0.539,0.325,0.849,0.656l-0.429,0.417
		c-0.255-0.262-0.466-0.431-0.63-0.503c-0.165-0.073-0.34-0.101-0.521-0.078c-0.234,0.029-0.417,0.123-0.55,0.285
		c-0.131,0.16-0.183,0.345-0.157,0.552c0.015,0.127,0.056,0.247,0.123,0.359c0.068,0.112,0.18,0.228,0.336,0.351
		c0.086,0.063,0.36,0.227,0.822,0.488c0.548,0.311,0.934,0.599,1.158,0.866c0.221,0.266,0.352,0.544,0.387,0.837
		c0.052,0.422-0.063,0.808-0.346,1.158c-0.281,0.35-0.651,0.551-1.109,0.608c-0.354,0.043-0.684-0.011-0.995-0.164
		C49.222,16.504,48.919,16.22,48.621,15.808z M43.842,12.006l3.283-0.697l0.12,0.563l-2.711,0.577l0.381,1.791l2.688-0.571
		l0.118,0.562l-2.686,0.57l0.477,2.247l2.688-0.572l0.119,0.564l-3.26,0.693L43.842,12.006z M39.519,13.315l2.791-0.906l0.179,0.549
		l-2.238,0.728l0.566,1.741l2.237-0.727l0.179,0.549l-2.238,0.728l0.888,2.729l-0.554,0.18L39.519,13.315z M34.9,15.762
		c-0.387,0.197-0.699,0.483-0.944,0.86c-0.241,0.377-0.372,0.785-0.394,1.225c-0.02,0.438,0.076,0.868,0.289,1.286
		c0.316,0.619,0.796,1.034,1.444,1.242c0.646,0.207,1.272,0.156,1.877-0.151c0.404-0.206,0.728-0.495,0.972-0.866
		c0.244-0.372,0.376-0.777,0.396-1.215c0.019-0.439-0.077-0.867-0.289-1.282c-0.211-0.414-0.497-0.738-0.861-0.977
		c-0.363-0.235-0.771-0.364-1.224-0.388C35.715,15.473,35.292,15.563,34.9,15.762z M34.614,15.265
		c0.789-0.402,1.584-0.476,2.386-0.22c0.8,0.256,1.396,0.771,1.789,1.541c0.39,0.764,0.455,1.546,0.194,2.349
		c-0.259,0.802-0.771,1.397-1.535,1.786c-0.772,0.394-1.56,0.464-2.362,0.204c-0.801-0.258-1.395-0.765-1.777-1.516
		c-0.254-0.501-0.371-1.027-0.346-1.579c0.022-0.552,0.184-1.054,0.478-1.512C33.736,15.864,34.128,15.513,34.614,15.265z
		 M28.309,19.966l1.141,1.63l0.829-0.571c0.32-0.223,0.535-0.418,0.646-0.587c0.109-0.169,0.161-0.349,0.154-0.542
		c-0.009-0.194-0.07-0.374-0.186-0.539c-0.112-0.161-0.258-0.276-0.438-0.348c-0.178-0.07-0.359-0.085-0.54-0.042
		c-0.181,0.042-0.436,0.178-0.765,0.408L28.309,19.966z M27.5,19.832l0.954-0.669c0.533-0.373,0.909-0.604,1.129-0.692
		c0.331-0.134,0.661-0.156,0.988-0.068c0.328,0.091,0.602,0.292,0.821,0.604c0.183,0.261,0.281,0.533,0.297,0.816
		c0.016,0.285-0.055,0.557-0.214,0.817c-0.157,0.262-0.436,0.533-0.836,0.817l3.287,1.021l-0.594,0.417L30.05,21.87l-0.273,0.192
		l1.562,2.229l-0.479,0.337L27.5,19.832z M24.158,23.354l1.279,1.524l0.768-0.628c0.308-0.257,0.507-0.473,0.603-0.648
		c0.098-0.176,0.133-0.359,0.108-0.553c-0.022-0.193-0.1-0.368-0.229-0.522c-0.127-0.151-0.282-0.255-0.47-0.311
		c-0.187-0.057-0.368-0.056-0.546,0.004c-0.177,0.059-0.418,0.215-0.721,0.468L24.158,23.354z M23.344,23.294l0.895-0.75
		c0.512-0.43,0.876-0.696,1.093-0.803c0.309-0.152,0.627-0.197,0.954-0.139c0.328,0.06,0.616,0.239,0.864,0.535
		c0.251,0.299,0.38,0.611,0.382,0.939c0.006,0.327-0.104,0.641-0.325,0.942c-0.163,0.219-0.521,0.563-1.079,1.028l-0.32,0.271
		l1.75,2.085l-0.449,0.376L23.344,23.294z"/>
	<path fill="none" stroke="#1D1D1B" stroke-width="0.216" stroke-miterlimit="22.9256" d="M80.318,17.695l0.5,0.313l-2.803,4.486
		l1.906,1.191l-0.3,0.479l-2.406-1.504L80.318,17.695z M76.112,16.696l-1.859,1.434l1.784,0.909L76.112,16.696z M76.741,15.623
		l-0.226,6.456l-0.561-0.284l0.055-2.135l-2.247-1.145l-1.691,1.3l-0.58-0.296l5.122-3.961L76.741,15.623z M66.294,17.777
		l1.81-5.569l0.121,0.039l2.316,5.467l1.386-4.264l0.549,0.179l-1.81,5.569l-0.125-0.042l-2.304-5.402l-1.367,4.211L66.294,17.777z
		 M63.029,11.6c-0.427-0.074-0.85-0.035-1.271,0.118c-0.421,0.156-0.771,0.404-1.052,0.742c-0.281,0.338-0.462,0.738-0.544,1.2
		c-0.121,0.687,0.015,1.305,0.405,1.861c0.392,0.555,0.923,0.891,1.593,1.009c0.445,0.079,0.878,0.043,1.296-0.106
		c0.419-0.15,0.768-0.395,1.046-0.732c0.28-0.338,0.461-0.739,0.542-1.197s0.047-0.891-0.101-1.299
		c-0.147-0.405-0.395-0.755-0.743-1.045C63.854,11.86,63.463,11.677,63.029,11.6z M63.101,11.03
		c0.872,0.154,1.551,0.575,2.038,1.261c0.484,0.687,0.652,1.455,0.501,2.308c-0.148,0.845-0.567,1.509-1.258,1.993
		s-1.458,0.651-2.302,0.502c-0.854-0.15-1.524-0.569-2.009-1.258c-0.484-0.69-0.653-1.45-0.508-2.281
		c0.099-0.554,0.323-1.045,0.673-1.47c0.351-0.426,0.781-0.73,1.292-0.917C62.039,10.98,62.563,10.936,63.101,11.03z M57.803,10.617
		l0.585,0.042L57.979,16.5l-0.586-0.041L57.803,10.617z M52.795,15.322l0.492-0.306c0.362,0.638,0.772,0.952,1.232,0.944
		c0.195-0.004,0.38-0.052,0.55-0.147c0.171-0.094,0.301-0.219,0.388-0.374c0.088-0.155,0.131-0.32,0.128-0.492
		c-0.004-0.196-0.073-0.387-0.21-0.573c-0.188-0.258-0.528-0.564-1.02-0.922c-0.493-0.361-0.803-0.622-0.925-0.783
		c-0.212-0.273-0.319-0.57-0.325-0.891c-0.005-0.255,0.051-0.488,0.169-0.7c0.119-0.211,0.289-0.38,0.508-0.504
		c0.22-0.125,0.459-0.188,0.719-0.193c0.276-0.005,0.537,0.059,0.777,0.191c0.243,0.131,0.501,0.379,0.775,0.74l-0.471,0.371
		c-0.225-0.289-0.417-0.479-0.573-0.567c-0.157-0.09-0.327-0.135-0.51-0.132c-0.236,0.005-0.428,0.08-0.575,0.227
		c-0.147,0.146-0.219,0.323-0.216,0.532c0.002,0.128,0.029,0.251,0.085,0.37c0.056,0.118,0.155,0.246,0.298,0.384
		c0.079,0.072,0.335,0.265,0.767,0.571c0.514,0.366,0.867,0.693,1.061,0.98c0.192,0.29,0.292,0.58,0.298,0.874
		c0.008,0.427-0.147,0.797-0.464,1.117c-0.318,0.317-0.706,0.48-1.168,0.488c-0.356,0.007-0.68-0.082-0.973-0.266
		C53.32,16.077,53.049,15.764,52.795,15.322z M48.621,15.808l0.458-0.355c0.427,0.597,0.866,0.866,1.323,0.811
		c0.194-0.023,0.372-0.09,0.532-0.203c0.16-0.111,0.275-0.249,0.346-0.414c0.072-0.163,0.097-0.331,0.076-0.501
		c-0.024-0.196-0.114-0.378-0.269-0.55c-0.215-0.235-0.585-0.506-1.11-0.81c-0.529-0.308-0.863-0.535-1.003-0.683
		c-0.238-0.249-0.376-0.533-0.416-0.852c-0.031-0.253,0-0.49,0.096-0.713s0.247-0.409,0.453-0.556
		c0.204-0.147,0.436-0.235,0.692-0.268c0.275-0.033,0.54,0.002,0.794,0.109c0.256,0.106,0.539,0.325,0.849,0.656l-0.429,0.417
		c-0.255-0.262-0.466-0.431-0.63-0.503c-0.165-0.073-0.34-0.101-0.521-0.078c-0.234,0.029-0.417,0.123-0.55,0.285
		c-0.131,0.16-0.183,0.345-0.157,0.552c0.015,0.127,0.056,0.247,0.123,0.359c0.068,0.112,0.18,0.228,0.336,0.351
		c0.086,0.063,0.36,0.227,0.822,0.488c0.548,0.311,0.934,0.599,1.158,0.866c0.221,0.266,0.352,0.544,0.387,0.837
		c0.052,0.422-0.063,0.808-0.346,1.158c-0.281,0.35-0.651,0.551-1.109,0.608c-0.354,0.043-0.684-0.011-0.995-0.164
		C49.222,16.504,48.919,16.22,48.621,15.808z M43.842,12.006l3.283-0.697l0.12,0.563l-2.711,0.577l0.381,1.791l2.688-0.571
		l0.118,0.562l-2.686,0.57l0.477,2.247l2.688-0.572l0.119,0.564l-3.26,0.693L43.842,12.006z M39.519,13.315l2.791-0.906l0.179,0.549
		l-2.238,0.728l0.566,1.741l2.237-0.727l0.179,0.549l-2.238,0.728l0.888,2.729l-0.554,0.18L39.519,13.315z M34.9,15.762
		c-0.387,0.197-0.699,0.483-0.944,0.86c-0.241,0.377-0.372,0.785-0.394,1.225c-0.02,0.438,0.076,0.868,0.289,1.286
		c0.316,0.619,0.796,1.034,1.444,1.242c0.646,0.207,1.272,0.156,1.877-0.151c0.404-0.206,0.728-0.495,0.972-0.866
		c0.244-0.372,0.376-0.777,0.396-1.215c0.019-0.439-0.077-0.867-0.289-1.282c-0.211-0.414-0.497-0.738-0.861-0.977
		c-0.363-0.235-0.771-0.364-1.224-0.388C35.715,15.473,35.292,15.563,34.9,15.762z M34.614,15.265
		c0.789-0.402,1.584-0.476,2.386-0.22c0.8,0.256,1.396,0.771,1.789,1.541c0.39,0.764,0.455,1.546,0.194,2.349
		c-0.259,0.802-0.771,1.397-1.535,1.786c-0.772,0.394-1.56,0.464-2.362,0.204c-0.801-0.258-1.395-0.765-1.777-1.516
		c-0.254-0.501-0.371-1.027-0.346-1.579c0.022-0.552,0.184-1.054,0.478-1.512C33.736,15.864,34.128,15.513,34.614,15.265z
		 M28.309,19.966l1.141,1.63l0.829-0.571c0.32-0.223,0.535-0.418,0.646-0.587c0.109-0.169,0.161-0.349,0.154-0.542
		c-0.009-0.194-0.07-0.374-0.186-0.539c-0.112-0.161-0.258-0.276-0.438-0.348c-0.178-0.07-0.359-0.085-0.54-0.042
		c-0.181,0.042-0.436,0.178-0.765,0.408L28.309,19.966z M27.5,19.832l0.954-0.669c0.533-0.373,0.909-0.604,1.129-0.692
		c0.331-0.134,0.661-0.156,0.988-0.068c0.328,0.091,0.602,0.292,0.821,0.604c0.183,0.261,0.281,0.533,0.297,0.816
		c0.016,0.285-0.055,0.557-0.214,0.817c-0.157,0.262-0.436,0.533-0.836,0.817l3.287,1.021l-0.594,0.417L30.05,21.87l-0.273,0.192
		l1.562,2.229l-0.479,0.337L27.5,19.832z M24.158,23.354l1.279,1.524l0.768-0.628c0.308-0.257,0.507-0.473,0.603-0.648
		c0.098-0.176,0.133-0.359,0.108-0.553c-0.022-0.193-0.1-0.368-0.229-0.522c-0.127-0.151-0.282-0.255-0.47-0.311
		c-0.187-0.057-0.368-0.056-0.546,0.004c-0.177,0.059-0.418,0.215-0.721,0.468L24.158,23.354z M23.344,23.294l0.895-0.75
		c0.512-0.43,0.876-0.696,1.093-0.803c0.309-0.152,0.627-0.197,0.954-0.139c0.328,0.06,0.616,0.239,0.864,0.535
		c0.251,0.299,0.38,0.611,0.382,0.939c0.006,0.327-0.104,0.641-0.325,0.942c-0.163,0.219-0.521,0.563-1.079,1.028l-0.32,0.271
		l1.75,2.085l-0.449,0.376L23.344,23.294z"/>
	<path fill-rule="evenodd" clip-rule="evenodd" fill="#1D1D1B" d="M101.316,67.328l-0.175,0.651l-2.718,0.821l1.949,2.046
		l-0.175,0.653l-2.473-2.582l-2.704-0.724l0.15-0.559l2.702,0.726L101.316,67.328z M101.432,63.193l0.56,0.1l-0.558,3.161
		l-0.56-0.098l0.227-1.286l-5.205-0.918l0.104-0.588l5.206,0.917L101.432,63.193z M102.16,61.307l-0.041,0.583l-5.841-0.407
		l0.041-0.586L102.16,61.307z M97.55,56.401l0.289,0.504c-0.65,0.338-0.979,0.737-0.988,1.198c-0.003,0.194,0.039,0.379,0.128,0.553
		c0.089,0.177,0.208,0.309,0.361,0.399c0.152,0.096,0.314,0.143,0.486,0.146c0.198,0.004,0.39-0.061,0.581-0.19
		c0.263-0.179,0.583-0.508,0.957-0.985c0.378-0.481,0.649-0.781,0.816-0.898c0.278-0.201,0.579-0.299,0.899-0.293
		c0.256,0.004,0.486,0.067,0.694,0.194c0.206,0.125,0.368,0.301,0.486,0.524c0.117,0.223,0.173,0.465,0.168,0.726
		c-0.004,0.276-0.076,0.533-0.219,0.769c-0.141,0.239-0.396,0.488-0.767,0.748l-0.354-0.482c0.296-0.214,0.491-0.398,0.587-0.553
		c0.095-0.151,0.146-0.32,0.148-0.503c0.004-0.237-0.064-0.432-0.206-0.585c-0.14-0.151-0.315-0.229-0.524-0.232
		c-0.127-0.004-0.252,0.02-0.372,0.072c-0.12,0.052-0.251,0.146-0.395,0.283c-0.075,0.075-0.274,0.325-0.598,0.747
		c-0.384,0.499-0.723,0.842-1.018,1.026c-0.295,0.181-0.59,0.271-0.884,0.267c-0.426-0.009-0.791-0.176-1.1-0.506
		c-0.306-0.325-0.455-0.721-0.447-1.183c0.007-0.355,0.104-0.676,0.301-0.963C96.777,56.899,97.101,56.639,97.55,56.401z
		 M101.456,52.167l-1.983,0.175l0.079,1.003c0.035,0.389,0.097,0.673,0.187,0.852c0.092,0.181,0.223,0.316,0.394,0.406
		c0.172,0.09,0.358,0.126,0.559,0.108c0.196-0.017,0.369-0.086,0.521-0.205c0.149-0.12,0.252-0.27,0.307-0.447
		c0.053-0.178,0.062-0.467,0.028-0.865L101.456,52.167z M101.976,51.534l0.102,1.162c0.057,0.647,0.069,1.089,0.035,1.323
		c-0.05,0.354-0.194,0.648-0.435,0.889c-0.243,0.239-0.554,0.375-0.934,0.409c-0.317,0.027-0.602-0.021-0.856-0.15
		c-0.254-0.13-0.454-0.325-0.602-0.594c-0.147-0.267-0.243-0.644-0.288-1.132l-2.528,2.334l-0.064-0.723l2.529-2.329l-0.028-0.333
		l-2.713,0.238l-0.051-0.585L101.976,51.534z M101.178,46.567l0.64,3.296l-0.565,0.108l-0.529-2.719l-1.798,0.35l0.524,2.696
		l-0.563,0.109l-0.524-2.697l-2.254,0.438l0.524,2.698l-0.567,0.11l-0.636-3.271L101.178,46.567z M99.024,39.948l0.207,0.603
		l-3.646,3.307l4.921,0.393l0.207,0.604l-6.365-0.502l-0.042-0.122L99.024,39.948z M98.191,38.068l0.247,0.53l-5.307,2.475
		l-0.247-0.53L98.191,38.068z M90.045,35.294l5.07-2.928l0.064,0.111l-1.936,5.611l3.882-2.241l0.289,0.499l-5.071,2.929
		l-0.066-0.114l1.903-5.555l-3.832,2.213L90.045,35.294z M91.398,27.319l0.368,0.455l-2.747,2.225
		c-0.326,0.265-0.523,0.435-0.595,0.512c-0.161,0.169-0.268,0.342-0.321,0.522c-0.055,0.18-0.053,0.389,0.004,0.625
		c0.058,0.239,0.156,0.442,0.297,0.615c0.121,0.151,0.271,0.271,0.447,0.355c0.174,0.087,0.357,0.132,0.546,0.132
		c0.188,0.002,0.38-0.042,0.576-0.129c0.141-0.063,0.39-0.239,0.749-0.529l2.747-2.225l0.368,0.455l-2.747,2.224
		c-0.406,0.33-0.768,0.557-1.081,0.679c-0.314,0.124-0.662,0.142-1.04,0.054c-0.379-0.087-0.704-0.302-0.979-0.639
		c-0.296-0.369-0.464-0.753-0.501-1.157c-0.036-0.404,0.052-0.767,0.27-1.09c0.132-0.199,0.43-0.485,0.892-0.859L91.398,27.319z"/>
	<path fill="none" stroke="#1D1D1B" stroke-width="0.216" stroke-miterlimit="22.9256" d="M101.316,67.328l-0.175,0.651
		l-2.718,0.821l1.949,2.046l-0.175,0.653l-2.473-2.582l-2.704-0.724l0.15-0.559l2.702,0.726L101.316,67.328z M101.432,63.193
		l0.56,0.1l-0.558,3.161l-0.56-0.098l0.227-1.286l-5.205-0.918l0.104-0.588l5.206,0.917L101.432,63.193z M102.16,61.307
		l-0.041,0.583l-5.841-0.407l0.041-0.586L102.16,61.307z M97.55,56.401l0.289,0.504c-0.65,0.338-0.979,0.737-0.988,1.198
		c-0.003,0.194,0.039,0.379,0.128,0.553c0.089,0.177,0.208,0.309,0.361,0.399c0.152,0.096,0.314,0.143,0.486,0.146
		c0.198,0.004,0.39-0.061,0.581-0.19c0.263-0.179,0.583-0.508,0.957-0.985c0.378-0.481,0.649-0.781,0.816-0.898
		c0.278-0.201,0.579-0.299,0.899-0.293c0.256,0.004,0.486,0.067,0.694,0.194c0.206,0.125,0.368,0.301,0.486,0.524
		c0.117,0.223,0.173,0.465,0.168,0.726c-0.004,0.276-0.076,0.533-0.219,0.769c-0.141,0.239-0.396,0.488-0.767,0.748l-0.354-0.482
		c0.296-0.214,0.491-0.398,0.587-0.553c0.095-0.151,0.146-0.32,0.148-0.503c0.004-0.237-0.064-0.432-0.206-0.585
		c-0.14-0.151-0.315-0.229-0.524-0.232c-0.127-0.004-0.252,0.02-0.372,0.072c-0.12,0.052-0.251,0.146-0.395,0.283
		c-0.075,0.075-0.274,0.325-0.598,0.747c-0.384,0.499-0.723,0.842-1.018,1.026c-0.295,0.181-0.59,0.271-0.884,0.267
		c-0.426-0.009-0.791-0.176-1.1-0.506c-0.306-0.325-0.455-0.721-0.447-1.183c0.007-0.355,0.104-0.676,0.301-0.963
		C96.777,56.899,97.101,56.639,97.55,56.401z M101.456,52.167l-1.983,0.175l0.079,1.003c0.035,0.389,0.097,0.673,0.187,0.852
		c0.092,0.181,0.223,0.316,0.394,0.406c0.172,0.09,0.358,0.126,0.559,0.108c0.196-0.017,0.369-0.086,0.521-0.205
		c0.149-0.12,0.252-0.27,0.307-0.447c0.053-0.178,0.062-0.467,0.028-0.865L101.456,52.167z M101.976,51.534l0.102,1.162
		c0.057,0.647,0.069,1.089,0.035,1.323c-0.05,0.354-0.194,0.648-0.435,0.889c-0.243,0.239-0.554,0.375-0.934,0.409
		c-0.317,0.027-0.602-0.021-0.856-0.15c-0.254-0.13-0.454-0.325-0.602-0.594c-0.147-0.267-0.243-0.644-0.288-1.132l-2.528,2.334
		l-0.064-0.723l2.529-2.329l-0.028-0.333l-2.713,0.238l-0.051-0.585L101.976,51.534z M101.178,46.567l0.64,3.296l-0.565,0.108
		l-0.529-2.719l-1.798,0.35l0.524,2.696l-0.563,0.109l-0.524-2.697l-2.254,0.438l0.524,2.698l-0.567,0.11l-0.636-3.271
		L101.178,46.567z M99.024,39.948l0.207,0.603l-3.646,3.307l4.921,0.393l0.207,0.604l-6.365-0.502l-0.042-0.122L99.024,39.948z
		 M98.191,38.068l0.247,0.53l-5.307,2.475l-0.247-0.53L98.191,38.068z M90.045,35.294l5.07-2.928l0.064,0.111l-1.936,5.611
		l3.882-2.241l0.289,0.499l-5.071,2.929l-0.066-0.114l1.903-5.555l-3.832,2.213L90.045,35.294z M91.398,27.319l0.368,0.455
		l-2.747,2.225c-0.326,0.265-0.523,0.435-0.595,0.512c-0.161,0.169-0.268,0.342-0.321,0.522c-0.055,0.18-0.053,0.389,0.004,0.625
		c0.058,0.239,0.156,0.442,0.297,0.615c0.121,0.151,0.271,0.271,0.447,0.355c0.174,0.087,0.357,0.132,0.546,0.132
		c0.188,0.002,0.38-0.042,0.576-0.129c0.141-0.063,0.39-0.239,0.749-0.529l2.747-2.225l0.368,0.455l-2.747,2.224
		c-0.406,0.33-0.768,0.557-1.081,0.679c-0.314,0.124-0.662,0.142-1.04,0.054c-0.379-0.087-0.704-0.302-0.979-0.639
		c-0.296-0.369-0.464-0.753-0.501-1.157c-0.036-0.404,0.052-0.767,0.27-1.09c0.132-0.199,0.43-0.485,0.892-0.859L91.398,27.319z"/>
	<path fill-rule="evenodd" clip-rule="evenodd" fill="#1D1D1B" d="M84.082,95.846l-0.52,0.382c-0.104-0.584-0.308-1.21-0.604-1.874
		c-0.298-0.663-0.671-1.3-1.121-1.907c-0.417-0.563-0.865-1.072-1.346-1.522c-0.481-0.455-0.954-0.817-1.412-1.092l0.492-0.363
		c0.44,0.262,0.898,0.614,1.372,1.063c0.474,0.446,0.917,0.945,1.328,1.504c0.441,0.598,0.817,1.223,1.126,1.871
		C83.707,94.56,83.935,95.204,84.082,95.846z M76.858,92.986l0.208,2.341l1.727-1.016L76.858,92.986z M76.291,91.88l5.322,3.664
		l-0.541,0.318l-1.771-1.193l-2.174,1.279l0.187,2.123l-0.562,0.333l-0.585-6.451L76.291,91.88z M72.563,93.712l0.533-0.242
		l2.426,5.33l-0.533,0.243L72.563,93.712z M69.381,100.619l0.638-0.226c0.762-0.27,1.274-0.505,1.536-0.703
		c0.368-0.283,0.608-0.642,0.722-1.076c0.113-0.436,0.081-0.907-0.099-1.416c-0.188-0.531-0.479-0.942-0.869-1.229
		c-0.392-0.287-0.841-0.42-1.353-0.397c-0.381,0.017-0.971,0.167-1.764,0.445l-0.39,0.14L69.381,100.619z M69.035,101.329
		l-1.952-5.522l1.146-0.405c0.826-0.293,1.448-0.436,1.867-0.436c0.603,0,1.136,0.176,1.601,0.531
		c0.466,0.357,0.811,0.854,1.037,1.495c0.194,0.554,0.248,1.083,0.158,1.588c-0.091,0.506-0.291,0.923-0.602,1.26
		c-0.311,0.334-0.811,0.624-1.498,0.866L69.035,101.329z M62.682,102.772l-1.164-5.74l0.125-0.025l4.706,3.621l-0.892-4.394
		l0.565-0.114l1.165,5.74l-0.13,0.025l-4.663-3.57l0.881,4.335L62.682,102.772z M59.848,97.172l0.585-0.047l0.456,5.838
		l-0.584,0.046L59.848,97.172z M57.813,97.041l0.645-0.026c-0.238,0.544-0.419,1.174-0.544,1.892
		c-0.128,0.717-0.174,1.452-0.141,2.209c0.03,0.7,0.118,1.371,0.265,2.017c0.146,0.645,0.333,1.209,0.56,1.692l-0.611,0.026
		c-0.218-0.464-0.397-1.012-0.541-1.646c-0.145-0.634-0.231-1.296-0.262-1.989c-0.032-0.745,0.007-1.475,0.113-2.186
		C57.403,98.317,57.577,97.656,57.813,97.041z M50.041,100.097l-0.294,2.227l0.718,0.095c0.424,0.057,0.74,0.056,0.948-0.001
		c0.208-0.058,0.384-0.165,0.527-0.326c0.144-0.16,0.228-0.341,0.255-0.548c0.034-0.259-0.021-0.494-0.165-0.71
		c-0.143-0.213-0.355-0.373-0.641-0.483c-0.192-0.074-0.532-0.143-1.021-0.209L50.041,100.097z M50.364,97.656l-0.246,1.857
		l0.332,0.044c0.402,0.053,0.704,0.056,0.902,0.007c0.2-0.051,0.364-0.149,0.496-0.297c0.133-0.147,0.211-0.318,0.237-0.519
		c0.035-0.266-0.03-0.484-0.194-0.66c-0.166-0.177-0.451-0.29-0.856-0.346L50.364,97.656z M49.871,97.011l1.145,0.152
		c0.46,0.061,0.807,0.163,1.04,0.306c0.232,0.14,0.404,0.334,0.519,0.58c0.113,0.245,0.153,0.504,0.117,0.781
		c-0.034,0.258-0.13,0.486-0.284,0.681c-0.154,0.193-0.363,0.341-0.624,0.439c0.288,0.143,0.506,0.294,0.65,0.454
		c0.146,0.159,0.25,0.345,0.314,0.554c0.065,0.205,0.082,0.425,0.053,0.653c-0.063,0.465-0.285,0.838-0.667,1.113
		c-0.384,0.278-0.862,0.379-1.436,0.305l-1.595-0.213L49.871,97.011z M46.063,97.604l-1.476,1.826l1.947,0.469L46.063,97.604z
		 M46.424,96.414l1.284,6.33l-0.611-0.147l-0.442-2.086l-2.453-0.59l-1.341,1.657l-0.635-0.153l4.059-5.044L46.424,96.414z
		 M42.146,95.181l0.562,0.177l-1.191,3.768c-0.183,0.582-0.354,0.971-0.517,1.168c-0.161,0.199-0.369,0.331-0.62,0.4
		c-0.254,0.068-0.528,0.056-0.828-0.04c-0.225-0.069-0.433-0.183-0.625-0.341c-0.191-0.154-0.384-0.384-0.58-0.689l0.435-0.352
		c0.228,0.298,0.424,0.518,0.589,0.664c0.11,0.096,0.225,0.161,0.346,0.2c0.159,0.05,0.32,0.05,0.481-0.006
		c0.16-0.058,0.292-0.153,0.395-0.297c0.103-0.143,0.226-0.445,0.369-0.901L42.146,95.181z M32.722,97.437l2.707-5.193l0.112,0.058
		l1.381,5.774l2.071-3.974l0.513,0.267l-2.707,5.193l-0.117-0.063l-1.376-5.71l-2.047,3.926L32.722,97.437z M31.008,89.555
		l0.488,0.323l-1.954,2.947c-0.231,0.349-0.368,0.571-0.413,0.668c-0.103,0.208-0.152,0.405-0.149,0.593
		c0.002,0.188,0.065,0.388,0.191,0.598c0.125,0.208,0.281,0.374,0.468,0.494c0.162,0.11,0.339,0.179,0.532,0.206
		c0.193,0.03,0.381,0.018,0.562-0.036c0.18-0.056,0.351-0.157,0.511-0.298c0.114-0.103,0.3-0.344,0.556-0.729l1.952-2.946
		l0.488,0.322l-1.953,2.946c-0.289,0.437-0.565,0.759-0.827,0.972c-0.263,0.213-0.59,0.334-0.977,0.364
		c-0.388,0.029-0.763-0.077-1.125-0.316c-0.394-0.261-0.67-0.579-0.825-0.953c-0.156-0.374-0.181-0.748-0.069-1.12
		c0.065-0.23,0.264-0.594,0.592-1.088L31.008,89.555z M27.595,87.414l-1.294,1.512l0.746,0.654c0.305,0.262,0.55,0.424,0.739,0.487
		c0.188,0.066,0.376,0.071,0.562,0.016c0.188-0.054,0.348-0.159,0.479-0.311c0.128-0.15,0.204-0.323,0.229-0.516
		c0.025-0.191-0.005-0.371-0.093-0.536c-0.087-0.166-0.28-0.378-0.581-0.634L27.595,87.414z M27.519,86.601l0.887,0.758
		c0.509,0.436,0.833,0.75,0.973,0.946c0.2,0.281,0.298,0.586,0.294,0.918c-0.006,0.333-0.135,0.648-0.387,0.941
		c-0.253,0.298-0.54,0.474-0.863,0.531c-0.321,0.06-0.648,0.003-0.983-0.168c-0.242-0.123-0.64-0.421-1.191-0.895l-0.318-0.271
		l-1.77,2.068l-0.444-0.38L27.519,86.601z"/>
	<path fill="none" stroke="#1D1D1B" stroke-width="0.216" stroke-miterlimit="22.9256" d="M84.082,95.846l-0.52,0.382
		c-0.104-0.584-0.308-1.21-0.604-1.874c-0.298-0.663-0.671-1.3-1.121-1.907c-0.417-0.563-0.865-1.072-1.346-1.522
		c-0.481-0.455-0.954-0.817-1.412-1.092l0.492-0.363c0.44,0.262,0.898,0.614,1.372,1.063c0.474,0.446,0.917,0.945,1.328,1.504
		c0.441,0.598,0.817,1.223,1.126,1.871C83.707,94.56,83.935,95.204,84.082,95.846z M76.858,92.986l0.208,2.341l1.727-1.016
		L76.858,92.986z M76.291,91.88l5.322,3.664l-0.541,0.318l-1.771-1.193l-2.174,1.279l0.187,2.123l-0.562,0.333l-0.585-6.451
		L76.291,91.88z M72.563,93.712l0.533-0.242l2.426,5.33l-0.533,0.243L72.563,93.712z M69.381,100.619l0.638-0.226
		c0.762-0.27,1.274-0.505,1.536-0.703c0.368-0.283,0.608-0.642,0.722-1.076c0.113-0.436,0.081-0.907-0.099-1.416
		c-0.188-0.531-0.479-0.942-0.869-1.229c-0.392-0.287-0.841-0.42-1.353-0.397c-0.381,0.017-0.971,0.167-1.764,0.445l-0.39,0.14
		L69.381,100.619z M69.035,101.329l-1.952-5.522l1.146-0.405c0.826-0.293,1.448-0.436,1.867-0.436c0.603,0,1.136,0.176,1.601,0.531
		c0.466,0.357,0.811,0.854,1.037,1.495c0.194,0.554,0.248,1.083,0.158,1.588c-0.091,0.506-0.291,0.923-0.602,1.26
		c-0.311,0.334-0.811,0.624-1.498,0.866L69.035,101.329z M62.682,102.772l-1.164-5.74l0.125-0.025l4.706,3.621l-0.892-4.394
		l0.565-0.114l1.165,5.74l-0.13,0.025l-4.663-3.57l0.881,4.335L62.682,102.772z M59.848,97.172l0.585-0.047l0.456,5.838
		l-0.584,0.046L59.848,97.172z M57.813,97.041l0.645-0.026c-0.238,0.544-0.419,1.174-0.544,1.892
		c-0.128,0.717-0.174,1.452-0.141,2.209c0.03,0.7,0.118,1.371,0.265,2.017c0.146,0.645,0.333,1.209,0.56,1.692l-0.611,0.026
		c-0.218-0.464-0.397-1.012-0.541-1.646c-0.145-0.634-0.231-1.296-0.262-1.989c-0.032-0.745,0.007-1.475,0.113-2.186
		C57.403,98.317,57.577,97.656,57.813,97.041z M50.041,100.097l-0.294,2.227l0.718,0.095c0.424,0.057,0.74,0.056,0.948-0.001
		c0.208-0.058,0.384-0.165,0.527-0.326c0.144-0.16,0.228-0.341,0.255-0.548c0.034-0.259-0.021-0.494-0.165-0.71
		c-0.143-0.213-0.355-0.373-0.641-0.483c-0.192-0.074-0.532-0.143-1.021-0.209L50.041,100.097z M50.364,97.656l-0.246,1.857
		l0.332,0.044c0.402,0.053,0.704,0.056,0.902,0.007c0.2-0.051,0.364-0.149,0.496-0.297c0.133-0.147,0.211-0.318,0.237-0.519
		c0.035-0.266-0.03-0.484-0.194-0.66c-0.166-0.177-0.451-0.29-0.856-0.346L50.364,97.656z M49.871,97.011l1.145,0.152
		c0.46,0.061,0.807,0.163,1.04,0.306c0.232,0.14,0.404,0.334,0.519,0.58c0.113,0.245,0.153,0.504,0.117,0.781
		c-0.034,0.258-0.13,0.486-0.284,0.681c-0.154,0.193-0.363,0.341-0.624,0.439c0.288,0.143,0.506,0.294,0.65,0.454
		c0.146,0.159,0.25,0.345,0.314,0.554c0.065,0.205,0.082,0.425,0.053,0.653c-0.063,0.465-0.285,0.838-0.667,1.113
		c-0.384,0.278-0.862,0.379-1.436,0.305l-1.595-0.213L49.871,97.011z M46.063,97.604l-1.476,1.826l1.947,0.469L46.063,97.604z
		 M46.424,96.414l1.284,6.33l-0.611-0.147l-0.442-2.086l-2.453-0.59l-1.341,1.657l-0.635-0.153l4.059-5.044L46.424,96.414z
		 M42.146,95.181l0.562,0.177l-1.191,3.768c-0.183,0.582-0.354,0.971-0.517,1.168c-0.161,0.199-0.369,0.331-0.62,0.4
		c-0.254,0.068-0.528,0.056-0.828-0.04c-0.225-0.069-0.433-0.183-0.625-0.341c-0.191-0.154-0.384-0.384-0.58-0.689l0.435-0.352
		c0.228,0.298,0.424,0.518,0.589,0.664c0.11,0.096,0.225,0.161,0.346,0.2c0.159,0.05,0.32,0.05,0.481-0.006
		c0.16-0.058,0.292-0.153,0.395-0.297c0.103-0.143,0.226-0.445,0.369-0.901L42.146,95.181z M32.722,97.437l2.707-5.193l0.112,0.058
		l1.381,5.774l2.071-3.974l0.513,0.267l-2.707,5.193l-0.117-0.063l-1.376-5.71l-2.047,3.926L32.722,97.437z M31.008,89.555
		l0.488,0.323l-1.954,2.947c-0.231,0.349-0.368,0.571-0.413,0.668c-0.103,0.208-0.152,0.405-0.149,0.593
		c0.002,0.188,0.065,0.388,0.191,0.598c0.125,0.208,0.281,0.374,0.468,0.494c0.162,0.11,0.339,0.179,0.532,0.206
		c0.193,0.03,0.381,0.018,0.562-0.036c0.18-0.056,0.351-0.157,0.511-0.298c0.114-0.103,0.3-0.344,0.556-0.729l1.952-2.946
		l0.488,0.322l-1.953,2.946c-0.289,0.437-0.565,0.759-0.827,0.972c-0.263,0.213-0.59,0.334-0.977,0.364
		c-0.388,0.029-0.763-0.077-1.125-0.316c-0.394-0.261-0.67-0.579-0.825-0.953c-0.156-0.374-0.181-0.748-0.069-1.12
		c0.065-0.23,0.264-0.594,0.592-1.088L31.008,89.555z M27.595,87.414l-1.294,1.512l0.746,0.654c0.305,0.262,0.55,0.424,0.739,0.487
		c0.188,0.066,0.376,0.071,0.562,0.016c0.188-0.054,0.348-0.159,0.479-0.311c0.128-0.15,0.204-0.323,0.229-0.516
		c0.025-0.191-0.005-0.371-0.093-0.536c-0.087-0.166-0.28-0.378-0.581-0.634L27.595,87.414z M27.519,86.601l0.887,0.758
		c0.509,0.436,0.833,0.75,0.973,0.946c0.2,0.281,0.298,0.586,0.294,0.918c-0.006,0.333-0.135,0.648-0.387,0.941
		c-0.253,0.298-0.54,0.474-0.863,0.531c-0.321,0.06-0.648,0.003-0.983-0.168c-0.242-0.123-0.64-0.421-1.191-0.895l-0.318-0.271
		l-1.77,2.068l-0.444-0.38L27.519,86.601z"/>
	<path fill-rule="evenodd" clip-rule="evenodd" d="M18.55,79.672c0.926,0,1.682,0.755,1.682,1.683c0,0.925-0.756,1.681-1.682,1.681
		c-0.927,0-1.683-0.756-1.683-1.681C16.867,80.427,17.623,79.672,18.55,79.672z"/>
	<path fill="none" stroke="#1D1D1B" stroke-width="0.216" stroke-miterlimit="22.9256" d="M18.55,79.672
		c0.926,0,1.682,0.755,1.682,1.683c0,0.925-0.756,1.681-1.682,1.681c-0.927,0-1.683-0.756-1.683-1.681
		C16.867,80.427,17.623,79.672,18.55,79.672z"/>
	<path fill-rule="evenodd" clip-rule="evenodd" d="M91.725,79.672c0.927,0,1.683,0.755,1.683,1.683c0,0.925-0.756,1.681-1.683,1.681
		c-0.926,0-1.682-0.756-1.682-1.681C90.043,80.427,90.799,79.672,91.725,79.672z"/>
	<path fill="none" stroke="#1D1D1B" stroke-width="0.216" stroke-miterlimit="22.9256" d="M91.725,79.672
		c0.927,0,1.683,0.755,1.683,1.683c0,0.925-0.756,1.681-1.683,1.681c-0.926,0-1.682-0.756-1.682-1.681
		C90.043,80.427,90.799,79.672,91.725,79.672z"/>
	
		<rect x="122.19" y="7.839" fill="none" stroke="#1D1D1B" stroke-width="0.9514" stroke-miterlimit="22.9256" width="27.773" height="27.773"/>
	<rect x="122.19" y="7.836" fill-rule="evenodd" clip-rule="evenodd" fill="#EE7D00" width="27.774" height="27.774"/>
	
		<rect x="122.19" y="41.911" fill="none" stroke="#1D1D1B" stroke-width="0.9514" stroke-miterlimit="22.9256" width="27.773" height="27.773"/>
	<rect x="122.19" y="41.909" fill-rule="evenodd" clip-rule="evenodd" fill="#EE7D00" width="27.774" height="27.773"/>
	
		<rect x="122.19" y="75.985" fill="none" stroke="#1D1D1B" stroke-width="0.9514" stroke-miterlimit="22.9256" width="27.773" height="27.772"/>
	<rect x="122.19" y="75.982" fill-rule="evenodd" clip-rule="evenodd" fill="#EE7D00" width="27.774" height="27.771"/>
	<path fill-rule="evenodd" clip-rule="evenodd" fill="#1D1D1B" d="M230.505,31.84v-8.596l6.739-11.59h-2.936l-2.904,5.571
		c-0.779,1.526-1.498,2.845-2.036,4.162h-0.061c-0.629-1.407-1.259-2.636-2.006-4.162l-2.845-5.571h-2.996l6.408,11.62v8.565
		H230.505z M210.457,31.84h11.262v-2.187h-8.626V11.654h-2.636V31.84z M204.905,20.22h-7.815v-6.379h8.294v-2.187h-10.931V31.84
		h11.382v-2.187h-8.745v-7.278h7.815V20.22z M183.811,31.84l7.218-20.186h-2.785l-3.416,9.974c-0.928,2.635-1.737,5.181-2.305,7.516
		h-0.061c-0.571-2.335-1.318-4.821-2.157-7.547l-3.146-9.942h-2.844l6.619,20.186H183.811z M162.596,30.042
		c-4.105,0-6.439-3.923-6.439-8.175c0-4.373,2.154-8.416,6.498-8.416c4.343,0,6.438,4.192,6.438,8.206
		c0,4.582-2.336,8.385-6.468,8.385H162.596z M162.503,32.174c5.123,0,9.345-3.719,9.345-10.636c0-5.99-3.564-10.213-9.104-10.213
		c-5.39,0-9.345,4.192-9.345,10.601c0,6.11,3.714,10.248,9.075,10.248H162.503z"/>
	<path fill-rule="evenodd" clip-rule="evenodd" fill="#1D1D1B" d="M282.668,65.711h9.521v-2.184h-7.293v-18h-2.229V65.711z
		 M271.215,57.327l1.672-5.841c0.33-1.228,0.608-2.485,0.835-3.653h0.077c0.253,1.168,0.506,2.365,0.861,3.684l1.696,5.811H271.215z
		 M276.813,59.364l1.824,6.347h2.353l-5.823-20.184h-2.659l-5.8,20.184h2.279l1.774-6.347H276.813z M254.216,65.711v-8.624
		c0-3.354-0.024-5.78-0.148-8.325l0.074-0.03c0.836,2.187,1.977,4.492,3.165,6.738l5.42,10.241h2.229V45.527h-2.078v8.476
		c0,3.114,0.051,5.57,0.254,8.265l-0.075,0.032c-0.784-2.067-1.799-4.193-3.039-6.562l-5.445-10.211h-2.43v20.184H254.216z
		 M242.26,63.916c-3.469,0-5.445-3.924-5.445-8.178c0-4.372,1.822-8.414,5.495-8.414c3.672,0,5.446,4.192,5.446,8.205
		c0,4.583-1.977,8.387-5.471,8.387H242.26z M242.184,66.047c4.329,0,7.901-3.719,7.901-10.638c0-5.988-3.016-10.212-7.698-10.212
		c-4.56,0-7.902,4.193-7.902,10.602c0,6.111,3.142,10.248,7.674,10.248H242.184z M230.225,45.527v20.184h2.229V45.527H230.225z
		 M217.71,64.694c0.912,0.719,2.709,1.322,4.355,1.322c4.026,0,5.952-2.729,5.952-5.813c0-2.966-1.443-4.584-4.33-5.931
		c-2.357-1.078-3.394-2.007-3.394-3.864c0-1.377,0.887-3.024,3.216-3.024c1.545,0,2.685,0.569,3.216,0.958l0.608-2.156
		c-0.734-0.479-2.026-0.958-3.749-0.958c-3.317,0-5.52,2.336-5.52,5.48c0,2.815,1.723,4.552,4.507,5.69
		c2.304,1.019,3.215,2.126,3.215,4.014c0,2.035-1.315,3.414-3.57,3.414c-1.518,0-2.938-0.57-3.924-1.289L217.71,64.694z
		 M206.029,64.694c0.913,0.719,2.712,1.322,4.357,1.322c4.026,0,5.95-2.729,5.95-5.813c0-2.966-1.442-4.584-4.33-5.931
		c-2.354-1.078-3.394-2.007-3.394-3.864c0-1.377,0.887-3.024,3.218-3.024c1.543,0,2.683,0.569,3.214,0.958l0.608-2.156
		c-0.733-0.479-2.026-0.958-3.749-0.958c-3.317,0-5.52,2.336-5.52,5.48c0,2.815,1.723,4.552,4.509,5.69
		c2.305,1.019,3.216,2.126,3.216,4.014c0,2.035-1.318,3.414-3.571,3.414c-1.52,0-2.938-0.57-3.926-1.289L206.029,64.694z
		 M204.05,54.093h-6.609v-6.379h7.015v-2.187h-9.245v20.184h9.625v-2.184h-7.395v-7.278h6.609V54.093z M183.684,65.711h2.229v-9.133
		h6.432v-2.156h-6.432v-6.708h6.963v-2.187h-9.192V65.711z M173.828,63.916c-3.47,0-5.446-3.924-5.446-8.178
		c0-4.372,1.823-8.414,5.496-8.414s5.445,4.192,5.445,8.205c0,4.583-1.977,8.387-5.471,8.387H173.828z M173.751,66.047
		c4.331,0,7.902-3.719,7.902-10.638c0-5.988-3.015-10.212-7.699-10.212c-4.559,0-7.901,4.193-7.901,10.602
		c0,6.111,3.14,10.248,7.673,10.248H173.751z M156.448,47.654c0.383-0.12,1.115-0.24,2.18-0.24c2.329,0,3.925,1.138,3.925,3.743
		c0,2.306-1.493,3.833-3.85,3.833h-2.255V47.654z M154.246,65.711h2.202v-8.742h2.079c2.001,0.09,2.935,1.138,3.443,3.921
		c0.455,2.517,0.835,4.225,1.113,4.821h2.279c-0.327-0.776-0.734-2.722-1.291-5.539c-0.431-2.097-1.215-3.534-2.506-4.073v-0.09
		c1.771-0.718,3.216-2.485,3.216-5.122c0-1.586-0.509-2.964-1.344-3.832c-1.063-1.139-2.607-1.678-4.963-1.678
		c-1.496,0-3.115,0.18-4.229,0.449V65.711z"/>
	<path fill-rule="evenodd" clip-rule="evenodd" fill="#1D1D1B" d="M286.491,99.586v-8.597l6.739-11.588h-2.935l-2.907,5.569
		c-0.777,1.527-1.496,2.845-2.036,4.162h-0.061c-0.626-1.407-1.256-2.635-2.004-4.162l-2.847-5.569h-2.994l6.409,11.617v8.567
		H286.491z M265.887,99.586h2.634v-17.97h6.173v-2.215h-14.95v2.215h6.144V99.586z M253.279,79.401v20.185h2.635V79.401H253.279z
		 M235.939,98.567c1.078,0.72,3.203,1.321,5.149,1.321c4.763,0,7.038-2.729,7.038-5.813c0-2.965-1.706-4.581-5.122-5.93
		c-2.784-1.078-4.013-2.007-4.013-3.864c0-1.377,1.049-3.024,3.804-3.024c1.827,0,3.175,0.569,3.805,0.959l0.719-2.156
		c-0.868-0.479-2.396-0.96-4.434-0.96c-3.923,0-6.528,2.337-6.528,5.481c0,2.814,2.037,4.552,5.332,5.689
		c2.724,1.02,3.803,2.125,3.803,4.013c0,2.038-1.558,3.416-4.225,3.416c-1.795,0-3.474-0.57-4.639-1.289L235.939,98.567z
		 M221.861,81.526c0.449-0.119,1.319-0.238,2.577-0.238c2.754,0,4.642,1.137,4.642,3.741c0,2.307-1.769,3.835-4.552,3.835h-2.667
		V81.526z M219.257,99.586h2.604v-8.747h2.456c2.368,0.092,3.475,1.14,4.074,3.926c0.538,2.514,0.987,4.221,1.317,4.821h2.696
		c-0.392-0.779-0.869-2.726-1.527-5.54c-0.51-2.097-1.438-3.535-2.966-4.075v-0.089c2.098-0.718,3.803-2.486,3.803-5.122
		c0-1.586-0.6-2.963-1.589-3.831c-1.256-1.14-3.081-1.679-5.867-1.679c-1.766,0-3.683,0.18-5.002,0.451V99.586z M213.357,87.966
		h-7.815v-6.381h8.294v-2.184h-10.931v20.185h11.381v-2.187h-8.744V90.12h7.815V87.966z M191.944,99.586l7.217-20.185h-2.785
		l-3.414,9.971c-0.929,2.636-1.736,5.184-2.306,7.518h-0.061c-0.567-2.334-1.318-4.821-2.155-7.546l-3.146-9.942h-2.844
		l6.617,20.185H191.944z M175.862,79.401v20.185h2.636V79.401H175.862z M157.054,99.586V90.96c0-3.354-0.029-5.78-0.18-8.327
		l0.09-0.028c0.987,2.187,2.336,4.492,3.744,6.739l6.408,10.242h2.638V79.401h-2.456v8.473c0,3.115,0.059,5.57,0.296,8.268
		l-0.087,0.029c-0.93-2.067-2.127-4.192-3.596-6.56l-6.439-10.21h-2.874v20.185H157.054z"/>
	<path fill-rule="evenodd" clip-rule="evenodd" d="M129.102,79.398v11.89c0,6.288,3.113,8.629,7.246,8.629
		c4.374,0,7.638-2.521,7.638-8.719v-11.8h-2.636v11.979c0,4.433-1.946,6.41-4.911,6.41c-2.696,0-4.702-1.917-4.702-6.41V79.398
		H129.102z M131.736,47.653c0.449-0.12,1.317-0.21,2.456-0.21c2.874,0,4.762,1.282,4.762,3.938c0,2.745-1.917,4.267-5.062,4.267
		c-0.869,0-1.588-0.06-2.156-0.209V47.653z M129.131,65.711h2.605v-8.146c0.599,0.15,1.317,0.181,2.097,0.181
		c2.545,0,4.792-0.749,6.168-2.217c1.049-1.043,1.588-2.476,1.588-4.299c0-1.761-0.688-3.225-1.798-4.177
		c-1.196-1.078-3.084-1.678-5.659-1.678c-2.096,0-3.744,0.181-5.001,0.42V65.711z M129.102,31.84h11.259v-2.187h-8.624V11.654
		h-2.635V31.84z"/>
</g>
</svg>
