<svg width="1024" height="767.9999999999999" xmlns="http://www.w3.org/2000/svg">

 <g>
  <title>background</title>
  <rect fill="none" id="canvas_background" height="402" width="582" y="-1" x="-1"/>
 </g>
 <g>
  <title>Layer 1</title>
  <g id="svg_1" fill-rule="evenodd" fill="#FFFFFF00">
   <g id="svg_2">
    <rect id="svg_3" height="768" width="1024" y="76.722351" x="-12.444378"/>
    <path id="svg_4" fill="#ff7f00" d="m594,259c-7.63544,14.92835 -15.702,29.4597 -23.84672,44.11628c-4.3125,7.75848 -18.21875,39.84916 -21.8102,41.07524c-3.86751,1.32001 -27.55892,-12.61184 -34.35859,-15.34077c-12.08282,-4.85046 -23.564,-9.44228 -36.1851,-12.43296c-14.13256,-3.34886 -28.37731,-5.81795 -43.0368,-4.57308c-6.42022,0.54603 -17.0474,2.09838 -10.66626,-6.92125c4.65161,-6.57749 9.15733,-12.63399 15.47545,-17.38551c4.59865,-3.45907 11.33907,-9.80362 16.72308,-12.11426c5.64874,-2.42461 13.98003,-1.88733 20.05106,-1.74456c6.56267,0.15529 37.8444,9.91573 39.56511,-0.25734c3.19057,2.90301 5.0487,1.78023 8.70443,3.19792c4.12089,1.59804 6.68999,4.70018 10.78189,6.57373c2.65482,1.21607 7.54845,6.02269 10.49951,6.0515c3.92298,0.03882 4.97936,-3.20985 7.7968,-5.60815c6.31181,-5.37396 14.71621,-8.91068 21.56504,-13.57954c6.0307,-4.11281 11.77272,-8.3997 18.7413,-11.05725zm-68.72364,-118c-0.53639,6.8149 1.3025,13.14723 1.25833,20.15943c-0.01893,3.05998 -0.15776,6.1187 0.77115,9.06684c0.83425,2.64276 0.25116,7.39045 0.69416,10.15762c-7.80616,-2.37635 -22.30868,-5.90065 -30.27891,-2.69615c-7.61937,3.06375 -8.57772,17.23075 -8.84655,24.12104c-0.183,4.69616 1.90201,11.93078 0.32184,16.42713c-0.73707,2.09703 -0.74316,2.77397 -0.69694,2.96276l0.0057,0.02033c-0.15042,-0.07748 -0.76237,-0.07615 -2.91966,1.48059c-2.13928,1.54193 -4.69253,2.39269 -6.80657,4.09547c-3.84439,3.10145 -4.50325,6.61604 -6.4002,11.11113c-1.84269,4.36566 -6.75182,8.24593 -12.2319,8.08759c4.40477,-7.98359 10.52137,-15.44003 7.01143,-24.81727c-2.64791,-7.07754 1.99329,-15.38318 5.64458,-22.10634c1.2091,-2.22681 14.6102,-19.28597 8.67196,-20.4886c-3.85575,-0.78165 -12.70631,17.32683 -14.40006,20.4886c-4.72282,-3.19318 -6.8438,-7.12872 -3.20892,-11.93798c2.79179,-3.69334 6.21969,-6.85134 8.93702,-10.67537c4.41234,-6.20668 8.71235,-13.61472 13.95264,-19.12771c9.20331,-9.68009 25.26873,-16.27005 38.5209,-16.32911zm-36.77122,80.219c0.0517,0.03542 0.02957,0.06944 0.00655,0.01724l-0.00655,-0.01724zm160.45496,-90.79579c5.88099,5.6341 13.31982,10.30722 19.00292,16.21982c4.97477,5.17619 11.67375,13.88263 14.03698,20.7976c-12.12622,2.33719 -32.27455,9.49587 -37.10311,22.22182c-18.85924,-17.31252 -26.15479,14.33817 -29.89689,27.57346c-11.03725,-4.77599 -8.83648,-20.67639 -8.69028,-29.95991c0.11344,-7.36409 4.59917,-16.08056 -6.09399,-16.68399c-7.99088,-0.44912 -15.75111,2.80513 -22.95803,5.85238c-8.99289,3.80248 -18.42619,9.49094 -25.68983,16.02453l-7.56787,-5.89155c12.41485,-6.97017 18.88586,-20.29701 26.15328,-32.49982c2.31786,-3.8903 5.41424,-8.21638 7.10442,-12.42156c1.16965,-2.908 1.99268,-8.77766 3.2745,-11.36325c2.01663,-4.06468 21.71402,-5.18372 26.93204,-6.23125c13.77482,-2.76499 30.23931,-4.42222 41.49586,6.36172z"/>
    <g id="svg_5" fill="#000000">
     <path id="svg_6" d="m645.820956,220.754156c5.08836,-0.26022 10.15408,0.87623 15.24244,0.38092c-4.41804,-3.84812 -8.83483,-7.69497 -13.25287,-11.54183c-1.95184,3.42697 -2.09395,7.32537 -1.98957,11.16091l0,0zm-120.71711,-79.09817c-13.16987,0.05783 -29.2348,6.67292 -38.38404,16.33406c-4.84689,5.12034 -8.85244,11.99566 -12.9523,17.74834c-2.74917,3.85943 -5.43421,7.58435 -8.77195,10.97612c-4.86702,4.94308 -3.47357,6.07325 2.00969,9.79565c1.73552,-3.25222 10.93758,-20.63977 14.79472,-19.85782c5.86055,1.18925 -5.4581,19.55611 -6.69434,21.84411c-3.66096,6.76971 -9.57306,16.22594 -6.91695,23.36526c3.505,9.4248 -1.57707,14.79657 -5.99008,22.8272c4.63435,0.13451 5.09087,-1.67326 6.68806,-5.62572c2.05119,-5.08011 4.28976,-9.32423 8.62732,-12.83668c3.35912,-2.7192 8.8537,-3.86446 10.43202,-7.14812c1.95184,-4.05931 0.72691,-12.07485 0.88537,-16.59051c0.2402,-6.86149 0.25781,-23.0824 7.81866,-26.13097c7.9218,-3.1944 22.16568,-0.18355 29.91015,2.1824c-0.96711,-6.04686 -4.01686,-9.9968 -3.97536,-16.71623c0.04528,-7.03372 1.98202,-13.30937 2.51903,-20.16709l0,0zm-101.1761,112.21635c6.88928,-2.18115 13.42014,-4.4792 20.50812,-5.96515c7.41749,-1.55634 7.91299,-3.33645 12.0946,-9.6976c3.16922,-4.82114 7.01505,-8.58 6.1171,-14.4848c-0.57599,-3.78777 -2.64982,-5.63325 -2.02604,-9.89245c0.3861,-2.64 1.61857,-5.52263 2.50897,-8.03315c1.09162,-3.08 3.35409,-6.5736 -1.90656,-6.72571c-2.90512,-0.08423 -3.04723,1.44823 -5.0129,4.0216c-3.62826,4.75326 -7.80358,9.06903 -11.6645,13.62743c-6.70566,7.91497 -13.81629,16.33783 -21.30168,23.6632c-8.23998,8.0608 -15.35186,17.78354 -20.67791,28.10343c-0.98346,1.90582 -6.96474,13.13085 -4.41301,15.33211c2.34296,2.02149 15.37575,-2.6928 17.75266,-3.24469c10.25721,-2.38102 21.90032,-3.23085 31.59159,-7.55542c4.93745,-2.20378 15.83353,-4.83372 19.73343,-8.24309c3.62574,-3.16926 3.46225,-10.84663 1.35824,-15.31451c-5.88821,3.66331 -48.45763,17.48434 -44.66211,4.4088l0,0zm128.161,-62.99669c6.87419,-6.20903 14.99972,-11.18983 23.48745,-14.8808c7.59229,-3.30126 17.02324,-6.98091 25.46946,-6.40766c10.52383,0.7128 6.1259,9.18972 6.08817,16.40823c-0.04904,9.57817 -4.247,23.37657 7.18986,28.34606c3.73389,-13.26286 11.60287,-44.6248 30.4547,-27.24606c4.81797,-12.75246 22.00093,-17.06823 34.10056,-19.41028c-2.1933,-6.44286 -8.85496,-12.27475 -13.47171,-17.11098c-5.77628,-6.04937 -10.33643,-13.13965 -16.12277,-19.07462c-11.43184,-11.72035 -32.14118,-7.95646 -46.61395,-5.03486c-4.83055,0.97428 -18.83548,2.19874 -21.17593,5.7464c-1.46765,2.22514 -0.64768,7.66103 -1.73553,10.38148c-1.49909,3.7488 -4.05962,7.22355 -6.11458,10.68572c-7.49671,12.63303 -15.12296,25.34777 -27.95202,32.58137l6.39629,5.016zm41.95193,68.05794c-6.78741,2.6048 -11.78019,6.95955 -17.80046,10.62663c-7.29926,4.44652 -15.85867,8.61143 -22.40965,14.10389c-2.39704,2.00891 -3.74396,5.47863 -7.05278,5.70365c-2.87745,0.19612 -7.26279,-3.14662 -9.81452,-4.31577c-4.2797,-1.96491 -8.36825,-4.94183 -12.66933,-6.69303c-3.53519,-1.43942 -5.09968,-1.14525 -8.15823,-3.94365c-1.7154,10.21051 -32.92468,0.66628 -39.47188,0.5104c-6.05674,-0.14332 -14.36714,0.57451 -20.00382,3.00834c-5.37133,2.31943 -9.57054,7.42469 -14.16843,10.9032c-6.30197,4.7696 -12.31594,9.59326 -16.95659,16.19577c-6.3661,9.05269 3.23839,6.49063 9.64349,5.94377c14.61991,-1.2496 28.84116,2.23269 42.93539,5.59303c12.59765,3.00332 25.03936,6.60629 37.09874,11.47646c6.78238,2.73931 13.92068,5.25737 20.29936,8.8176c3.36289,1.87817 8.81722,6.47428 12.67562,5.14926c3.53897,-1.2144 7.06535,-11.35829 9.21086,-15.41006c4.16652,-7.86469 8.54935,-15.59737 12.8517,-23.38537c8.12553,-14.71109 16.17434,-29.29897 23.79053,-44.28412l0,0zm-83.52279,194.70252c4.18287,-2.4024 11.00172,-1.75497 15.62727,-2.76195c5.2267,-1.13771 10.48233,-2.99074 15.4663,-4.92297c5.04686,-1.95611 9.81578,-3.95748 14.4275,-6.40514c2.10904,-1.11886 4.91984,-2.22137 6.86916,-3.77394c1.57078,-1.25212 2.143,-3.57783 3.59178,-4.71303c3.77792,-2.96309 4.8884,-1.10377 5.39522,-6.82c0.54959,-6.20903 -2.93404,-9.72526 -7.27034,-14.37166c-3.88229,-4.15863 -8.92538,-7.7528 -13.80372,-10.67817c-2.15808,-1.2936 -4.46331,-2.74937 -6.66542,-3.98389c-3.33145,-1.87062 -7.79603,-4.97954 -9.54413,-0.96548c3.64083,0.92903 4.4432,5.5792 1.15702,7.24994c-1.8047,0.91772 -4.53627,-0.42994 -6.5711,0.5456c-3.14156,1.50606 -6.16364,5.70869 -8.85244,7.97154c-8.82603,7.43098 -17.26722,10.2168 -28.81979,10.81395c-24.13889,1.24457 -49.4172,-1.50857 -73.09203,-5.0864c-6.0932,-0.92149 -12.17634,0.07668 -18.32614,-0.14332c-5.98379,-0.21371 -12.22288,-1.5224 -18.1048,-2.53314c-11.32996,-1.94606 -23.27239,-3.54766 -34.42628,-6.41143c-13.48931,-3.46343 -27.02515,-7.94388 -39.68946,-13.7456c-12.14868,-5.56663 -25.87945,-14.76388 -39.5247,-15.47291c5.82281,5.70114 14.54823,7.89737 21.55195,11.65245c5.72472,3.06743 14.67651,5.03738 18.29345,10.09235c2.35427,3.28994 3.53519,9.33303 5.31347,13.1912c1.96693,4.26925 3.78169,8.6064 5.60273,12.93977c1.82859,4.35977 3.7339,8.72206 5.21915,13.21257c0.91933,2.78583 1.31548,8.56114 3.4874,10.46697c3.46477,3.03977 15.06135,4.38869 19.73091,5.39943c8.71788,1.88949 18.66193,1.63806 27.55462,1.7688c3.67478,0.05406 7.37849,0.55566 10.88979,0.62354c4.93115,0.09429 4.4608,-0.75931 4.39038,-5.03988c-0.04025,-2.57086 0.01131,-7.24617 3.44967,-5.12915c2.34295,1.4432 0.73068,7.83326 0.2968,10.10366c19.62778,1.95486 40.10698,2.93794 59.6417,2.28423c19.21152,-0.64366 37.75774,-3.12149 56.73408,-5.35794l0,0zm88.64133,-45.056c3.46351,-24.87006 7.6841,-50.15497 12.40775,-74.7032c4.77395,-24.80595 10.51376,-49.38686 16.97042,-74.09977c-4.26461,-1.0208 -8.52923,-2.03909 -12.79384,-3.05863c-0.15846,5.20708 -1.91914,9.73028 -2.66994,14.91348c-1.03629,7.1544 -3.01705,14.10137 -4.20299,21.23189c-2.25241,13.55451 -6.42648,26.81737 -10.10378,40.03497c-3.74773,13.47531 -5.00032,27.35794 -8.44371,40.90114c-2.83846,11.15715 -4.28851,23.44697 -5.87312,34.91715c-3.84456,27.82685 -9.32278,55.70777 -13.49182,83.54845c-3.90996,26.10206 -4.30234,52.73463 -4.07723,79.08057c0.13834,16.08515 2.59197,32.12378 2.46369,48.23029c-0.03144,3.98137 0.30309,7.95017 0.5106,11.92526c0.14589,2.80468 -1.36075,10.57885 -0.083,12.92845c0.80865,1.4872 4.28348,2.85875 5.51344,4.92423c1.94554,3.26732 2.35553,7.17326 5.48074,9.64606c2.53286,-10.2168 1.3356,-23.70091 0.78224,-34.12766c-0.53575,-10.04583 0.50431,-20.42857 0.7093,-30.62903c0.39993,-20.00994 1.46011,-39.72697 2.48633,-59.74697c1.12432,-21.95474 4.32246,-44.44377 7.44641,-66.23383c2.84098,-19.81257 4.73622,-39.97714 6.96851,-59.68285l0,0zm-92.69969,-311.8896c-1.37333,-0.12823 -2.74666,-0.2552 -4.11999,-0.38343c0.20499,2.89394 -0.40621,7.58057 1.63366,9.0904c1.54562,1.144 4.67586,0.76811 6.54972,1.13394c6.14225,1.20057 13.26042,2.20503 19.3574,0.0176c2.36937,-0.84983 0.84764,-2.18114 4.10992,-1.628c3.93009,0.66754 2.49513,1.28983 3.62951,3.74126c0.87405,1.892 1.32428,5.11154 2.31655,7.3832c1.32806,3.03977 4.01938,8.47943 2.86865,11.98937c-1.11803,3.41189 -5.29084,4.44274 -7.06409,8.3072c-1.31925,2.87257 -1.00736,7.0488 -1.69277,10.21303c-0.91429,4.22023 -2.07005,8.42411 -2.58065,12.72228c-0.64265,5.41452 -0.42256,11.76812 6.28688,12.60789c6.22651,0.78069 10.67851,-1.22069 14.85383,-5.7552c7.97462,-8.65669 17.07984,-20.87737 21.7645,-31.76674c0.54707,-1.27223 1.89399,-3.39555 1.7066,-4.75703c-0.371,-2.69406 -0.53324,0.03268 -1.38716,-1.83794c-0.81495,-1.78892 -2.09395,-3.41189 -2.84601,-5.39692c-2.70516,-7.13177 -4.62304,-14.60674 -5.70712,-22.15588c-0.49173,-3.41943 -0.65648,-6.79738 -0.57222,-10.25075c0.02767,-1.1792 0.73571,-4.71931 0.31315,-5.5264c-0.43011,-0.8184 -2.67371,-1.19554 -3.37295,-2.00765c-1.29662,-1.5048 -3.52388,-5.75395 -4.96008,-6.88035c-1.76697,-1.38411 -5.71969,-0.28788 -6.4378,-3.04103c-1.14821,-4.40628 26.02408,-11.58331 13.32959,-17.46297c-9.47748,-4.38994 -24.01439,17.80115 -27.32824,0.33943c-0.57473,-3.02468 0.5194,-7.13051 -0.80739,-9.90251c-1.46639,-3.06366 -5.4581,-4.20892 -8.24626,-5.69989c-3.55783,-1.9008 -7.15213,-3.8544 -10.60935,-5.93623c-2.37188,-1.42685 -5.78885,-5.21588 -8.31291,-5.56285c0.99353,5.14297 -0.91178,10.24068 -0.94322,15.3736c5.46816,-1.47966 9.23098,-1.51109 14.62746,1.12011c2.57059,1.25211 12.25432,8.35874 7.34831,11.77691c-3.97535,-2.3496 -8.22739,-4.38742 -12.65801,-5.76902c-1.7481,-0.5456 -3.93009,-1.28732 -5.78886,-1.32503c-4.31492,-0.08675 -3.70748,0.36457 -5.32731,3.61805c-1.56197,3.13406 -1.22618,11.308 -4.65448,13.30938c-3.54525,2.06925 -0.81116,-0.8272 -3.83827,-0.1584c-1.72673,0.38217 -3.60814,1.66571 -5.18897,2.39108c2.16563,2.35086 6.53714,4.4968 7.97335,7.10789c2.09521,3.80663 1.3683,11.68011 1.69654,15.84503c2.74289,-0.98183 5.6304,-1.02206 8.41101,-1.7512c2.61335,-0.6864 6.23783,-3.65703 6.51074,0.71028c0.30434,4.8664 -7.38856,6.15749 -10.84326,6.15749l0,0zm35.70026,128.12548c0.21379,-4.20514 0.44771,-8.40903 0.91555,-12.59657c0.31566,-2.81223 2.98561,-10.96857 1.47645,-13.43886c-1.6412,-2.68651 -7.14206,-2.85748 -9.78937,-3.5024c-5.07452,-1.23702 -9.94154,-2.25028 -15.09907,-3.06742c-4.74377,-0.75052 -9.21337,-0.90892 -13.99361,-1.1264c-5.20532,-0.23509 -6.49565,-1.61669 -7.64638,4.11965c-0.90423,4.51063 -2.11784,9.20857 -2.28636,13.82732c-0.15846,4.33463 1.15073,8.09725 -3.14533,11.01885c9.43346,0 21.71922,-8.39897 30.32768,-0.8888c12.31343,10.73978 -9.11528,13.8336 -14.7658,16.20458c4.69724,2.28297 11.67078,4.07565 13.88169,9.29028c2.4813,5.84446 -1.11929,8.32983 -6.62895,8.79749c0.51814,2.2528 2.50142,3.71611 3.0925,6.42525c0.86525,3.97132 -1.94178,2.65635 1.63995,5.7288c4.7161,4.04423 14.42498,6.74835 20.20881,9.32423c1.35446,0.60595 2.72527,1.17417 4.11118,1.70595c2.16689,1.92845 3.76659,1.56137 4.80036,-1.10252c2.96674,-1.87817 5.60776,-6.06823 8.23997,-8.50583c5.85552,-5.42331 12.31846,-10.18285 19.27691,-14.09885c-2.88499,-1.19429 -6.33466,1.5048 -9.1027,0.19108c-2.23732,-1.06228 -1.39471,-2.99451 -2.73408,-4.44148c0.537,-1.88698 -0.03019,-2.57715 -1.70157,-2.07052c-0.83507,0.08926 -1.61228,-0.0528 -2.33164,-0.42366c-1.39974,-1.73485 -2.02856,-2.30308 -2.12162,-4.98205c-0.09809,-2.8424 1.54814,-3.8456 2.17947,-6.12103c2.0537,-1.3992 2.00717,-2.77452 -0.1396,-4.12217c-0.88285,-1.4432 -1.36452,-3.00835 -1.44375,-4.69669c-0.40873,-6.26937 5.31347,-8.79623 9.67744,-12.11257c-7.81364,-0.85863 -7.51558,-10.0232 -2.10904,-14.02971c5.60398,-4.1536 17.46969,-2.45269 24.24579,-1.51612c1.4098,0.1936 5.21664,2.01143 6.64153,0.85234c0.87405,-0.71028 0.25655,-6.71565 0.2968,-7.77542c0.0918,-2.40618 0.6766,-5.27498 0.29302,-7.66858c-0.80236,-5.01222 0.89795,-2.48788 -2.71018,-2.62742c-8.58708,-0.33315 -19.52215,7.1632 -27.07671,10.69702c-8.45629,3.95623 -13.89049,4.56469 -13.97853,14.37292c-0.08426,9.28777 -2.68881,18.5416 -3.8257,27.68103c-0.49676,3.99143 -0.85141,24.728 -8.15697,17.07577c-2.83218,-2.96812 -1.01742,-7.5328 -0.8074,-11.1936c0.28674,-5.03737 0.11696,-10.15269 0.28926,-15.20389l0,0zm-472.39242,310.89395c4.18036,0.74171 10.98915,-1.65818 15.54931,-1.9096c7.97461,-0.43875 16.18691,-1.19806 23.99929,-2.85749c6.11207,-1.29863 13.07681,-2.44137 16.37305,-8.35749c2.94662,-5.28754 3.98794,-11.90891 5.57506,-17.6792c0.84261,-3.06365 3.01705,-7.5064 3.01705,-10.67565c0,-4.12092 -0.55587,-3.3088 -4.85318,-5.56412c-5.43924,-2.85371 -10.73133,-6.83005 -16.59817,-8.44925c-1.77451,-0.34698 -3.55028,-0.6864 -5.3273,-1.01955c-2.29895,-1.33383 -3.59682,-0.6776 -3.89739,1.96492c-2.24361,2.36594 -3.55909,6.72697 -5.44175,9.49394c-4.29228,6.30834 -9.38945,10.60777 -16.04858,14.24594c-11.98267,6.54469 -23.14789,11.59589 -35.98197,15.8752c-7.0729,2.3584 -13.59495,5.6672 -20.50813,8.26697c-5.53859,2.08309 -13.18245,2.71669 -17.437,7.35303c-4.80036,5.23097 2.57814,7.13303 6.67926,10.66937c3.36038,2.89772 3.42578,3.56275 8.0224,2.156c3.42452,-1.04845 6.46043,-3.05234 9.74913,-4.41131c11.26456,-4.65269 24.8985,-7.74903 37.12892,-9.10171l0,0zm257.44256,82.97142c-4.19796,-0.90891 -8.39717,-1.81657 -12.59513,-2.72297c4.12879,7.70755 12.8127,18.98537 6.5799,27.90606c-2.32912,3.33269 -6.20387,4.28309 -9.66486,5.97394c-4.18916,2.04663 -8.05636,4.66777 -12.01663,7.10663c-16.33029,10.05463 -32.92593,20.25132 -50.13279,28.87909c5.38642,1.73863 13.66915,2.94171 19.21654,1.42685c6.46043,-1.76502 12.44171,-5.81554 19.07443,-7.58685c11.89841,-3.17555 24.42312,-5.87966 36.51144,-7.50892c9.88117,-1.33131 34.61492,1.67703 33.41389,-13.18365c-1.14067,-14.10892 -9.56803,-27.56915 -12.07574,-41.51715c-6.15357,1.36652 -12.02417,1.12766 -18.31105,1.22697l0,0zm250.23887,-225.82057c4.78528,-23.48594 7.64386,-47.3704 13.28809,-70.68788c2.81583,-11.63235 4.80037,-23.42435 7.5508,-35.0592c1.28026,-5.41326 2.24738,-10.87932 3.49368,-16.28252c1.26266,-5.46983 3.97914,-10.51851 4.6004,-16.17314c-4.57273,1.13143 -5.63039,11.60469 -7.0163,15.54457c-2.54292,7.22857 -5.31599,14.17429 -8.5833,21.09486c-5.194,11 -10.70492,21.6128 -16.56421,32.27714c-6.17746,11.24892 -12.70329,22.06663 -20.42135,32.33874c-2.53537,3.37543 -5.97624,6.02046 -7.61116,9.72275c-2.57059,5.82434 -3.65089,12.76628 -6.10578,18.82697c1.72924,0.87748 6.19507,1.09623 8.31543,1.51486c3.94392,0.77817 6.70693,1.4696 10.4949,3.34525c6.67297,3.30377 12.27947,7.21977 16.73776,13.16355c1.12055,-3.05109 1.41232,-6.39635 1.82104,-9.62595l0,0zm-185.99676,179.19189c-0.07923,-22.61852 -0.39992,-45.43063 -0.02892,-67.88194c0.10186,-6.23418 0.60995,-12.95989 1.51418,-19.14629c0.56719,-3.88834 3.90745,-12.15406 1.71163,-14.0184c-1.87638,-1.59406 -11.78145,-0.54434 -14.21244,-0.60091c-4.71485,-0.10938 -9.4146,-0.31932 -14.13825,-0.67383c0,8.38263 3.27486,17.90171 4.79659,26.19383c1.4186,7.7352 2.58442,15.51314 3.75528,23.28354c2.53411,16.82686 3.25473,33.88628 6.00642,50.7584c2.49262,15.29817 5.78132,30.53223 7.59481,45.82788c0.99479,8.39646 3.00825,16.31772 4.57274,24.70915c0.81745,4.37611 3.79677,22.39851 7.54953,24.17108c0.79356,-6.46548 -2.44734,-14.27234 -3.02836,-20.80948c-0.59864,-6.7496 -1.0627,-13.54446 -2.15684,-20.32926c-1.28529,-7.96526 -1.93423,-16.12789 -2.42722,-24.1912c-0.30057,-4.93429 -0.39237,-9.85349 -0.81871,-14.784c-0.30812,-3.57783 -1.66258,-8.99989 -0.69044,-12.50857l0,0zm117.87488,-302.46103c0.15594,-2.46274 -6.21897,-2.36343 -7.40617,-5.19451c-2.40836,-5.74892 3.08119,-4.71429 6.45666,-5.30892c-1.20355,-3.19691 -23.73897,-2.0328 -18.48838,-10.66308c3.64209,-5.98778 17.45335,3.1768 21.14449,-2.51303c2.42596,-3.73749 -4.17658,-4.25166 -6.79496,-4.62629c-3.94015,-0.56446 -13.22269,1.25966 -12.91709,-3.85314c0.38483,-6.424 18.43052,-10.85794 23.49247,-12.74492c-0.5609,-4.39874 -22.28012,1.85429 -25.42293,3.63692c-7.1144,4.03668 -12.56495,11.27783 -13.60878,19.32606c-1.21613,9.36445 3.53267,16.73885 12.88565,19.03691c3.8999,0.95794 6.78238,1.0648 10.39051,2.50549c2.3744,0.94662 10.0585,3.3088 11.68587,0.91897c-0.47287,-0.17349 -0.94448,-0.34697 -1.41734,-0.52046l0,0zm127.50075,-58.24469c0.35968,-3.99897 3.72635,-11.52674 -0.15217,-14.15417c-5.42792,-3.67714 -7.67656,2.38229 -8.90652,6.02172c-1.50412,4.444 -7.82621,15.32205 -2.29768,18.09154c1.28529,0.64366 7.37975,-0.1056 8.45502,-0.53051c2.99441,0.78068 3.96027,-0.34069 2.90135,-3.36663l0,-6.06195zm-132.45832,322.93612c-0.34082,-10.9296 4.55261,-24.06926 7.32568,-34.77383c3.14407,-12.12891 4.80036,-24.4992 8.13056,-36.49486c-3.70497,0.44629 -7.4439,0.81086 -11.10485,1.55383c-4.99404,1.01452 -5.08333,0.85486 -4.72491,5.75394c0.53575,7.3568 -0.166,14.57029 -0.5458,21.92458c-0.76087,14.72491 1.09287,29.69245 -0.1396,44.32434c1.09916,0.27908 1.4513,-0.484 1.05892,-2.288l0,0zm138.2761,-286.44126c11.99902,1.83669 23.49877,5.6408 34.41748,10.75234c6.01901,2.81726 12.64796,5.84446 19.37375,6.9696c7.47282,1.25086 15.39713,0.66378 23.02841,1.14652c2.69006,0.16971 9.7617,1.47714 12.38511,-0.1056c2.59826,-1.56766 2.39452,-4.224 2.51651,-7.39074c0.31567,-8.14503 -3.3717,-16.12035 -6.6868,-23.42812c-2.8435,-6.26937 -4.99404,-11.05657 -9.40705,-16.44971c-5.66687,-6.92686 -10.6018,-14.40183 -15.90898,-21.63166c-4.00177,-5.44971 -8.04504,-10.82149 -12.12353,-16.26491c-2.91769,-3.89715 -2.77936,-5.23852 -7.17728,-4.80229c-4.33001,0.42994 -8.6902,2.98949 -12.76869,4.34594c-6.05421,2.01395 -13.38492,3.11897 -18.9059,6.33852c-3.56915,2.08183 -3.72887,2.46525 -3.68737,6.0984c0.03899,3.38423 1.13061,7.51143 3.15413,10.15897c4.20551,5.49623 11.17653,8.40526 17.15907,11.14708c3.46099,1.58526 6.45162,3.83429 9.53281,6.02172c3.31888,2.3584 10.01574,3.74754 12.55615,6.43531c7.39485,7.82823 -6.06679,6.28069 -9.82836,6.04435c-8.11672,-0.5104 -16.18943,-0.43246 -24.36652,-0.43875c-8.92538,-0.00628 -17.77908,-0.42114 -26.57869,-0.13074c-5.15376,0.16971 -11.06712,-2.44389 -14.40612,-6.80114c-1.61605,-2.11075 -2.24613,-4.10583 -4.3602,-6.29577c-2.77055,-2.86755 -5.18016,-5.88846 -8.5506,-8.10732c-5.5147,-3.63063 -15.53547,-5.6848 -22.10028,-4.3296c2.3505,0.32812 13.4063,4.092 8.53928,8.82263c-0.59234,0.57577 -7.70422,0.95291 -9.24984,1.6632c-2.78942,1.28103 -6.30575,3.14286 -7.94192,5.84823c4.76389,-0.79829 22.4323,-1.72229 13.41888,7.4184c-2.21216,2.244 -8.56444,4.48297 -3.15916,6.86903c1.24128,0.54811 3.72635,-0.22755 5.3248,0.26651c2.37565,0.73543 4.31743,2.70286 6.54343,3.75132c6.31329,2.97817 15.01481,4.81485 21.60352,4.1624c9.11025,-0.90389 18.60408,0.72285 27.65396,1.91588l0,0zm-241.60023,275.42492c0.31064,13.13085 -0.16349,26.33965 0.11696,39.53085c0.29932,14.08755 2.10653,27.89349 2.968,41.83897c0.77344,12.49852 2.46118,24.75943 3.83199,37.19886c0.78853,7.16446 1.6978,14.01589 2.91015,21.12629c1.13564,6.65405 1.32931,12.51737 -6.62518,14.30628c-15.20849,3.42195 -17.57157,-18.45737 -20.51064,-27.676c-4.38786,-13.75817 -7.20117,-28.20148 -9.37561,-42.46377c-4.04705,-26.56217 -9.42843,-52.75474 -11.52867,-79.54194c-1.29284,-16.49497 -3.16796,-32.82149 -4.23191,-49.30137c-0.20877,-3.2296 0.61498,-8.20537 -2.22097,-9.64355c-1.7066,-0.86365 -6.40384,-0.8712 -8.5569,-1.49725c-5.99888,-1.74492 -11.53244,-4.31452 -17.38544,-6.98092c4.15395,21.72092 5.52602,43.33372 8.64242,65.24446c1.65252,11.62606 4.81671,23.67326 7.55834,35.11703c2.84098,11.85737 3.47231,24.62491 6.74968,36.22457c1.44376,5.1128 2.66617,7.19589 0.57096,12.4432c-2.57058,6.4416 -0.86524,7.98286 2.35806,14.3088c5.92845,11.63863 10.45465,25.37417 9.44981,38.49497c-0.81998,10.71589 -8.91658,16.32526 -18.94616,19.21669c-12.54609,3.61554 -25.68326,3.18811 -38.3048,7.29394c-10.9967,3.57657 -22.16945,6.21909 -32.84797,10.94091c-4.30611,1.90332 -8.39717,4.1624 -13.17867,4.51189c-6.55727,0.47646 -10.97909,-3.32891 -17.1729,-4.12217c-3.87098,-0.49406 -9.5391,1.35268 -11.76887,-2.70537c-1.76823,-3.21703 0.23266,-10.23692 2.45237,-12.82663c6.23406,-7.2776 18.71852,-13.61863 27.12576,-17.91303c9.69001,-4.94937 19.06562,-11.14457 28.04382,-17.53211c5.44176,-3.87326 10.99167,-7.58938 16.42965,-11.46892c3.59681,-2.56834 4.96385,-2.58468 4.59662,-6.66411c-0.29302,-3.25349 -1.75942,-6.40892 -2.01597,-9.74035c-0.19619,-2.552 0.69798,-6.03051 -0.50809,-7.69622c-0.88662,-1.22823 -4.21682,-2.0944 -5.52601,-3.02469c-4.78778,-3.39429 -5.87563,-7.59314 -8.05007,-12.75623c-4.9387,-11.72663 -10.61311,-23.12388 -15.38204,-34.9448c-10.2396,-25.38046 -16.48749,-52.06834 -24.97647,-77.96674c-8.6726,-26.45909 -16.42713,-54.23566 -21.20359,-81.68663c-6.39126,1.9448 -12.42285,10.5512 -17.51246,14.80914c-6.87671,5.7552 -13.92193,11.32057 -20.66533,17.23292c-11.05329,9.69257 -22.24491,19.11863 -31.37905,30.72583c-4.40044,5.59051 -8.00354,11.6072 -11.98771,17.48057c-2.30145,3.39303 -4.44697,7.2336 -6.93958,10.46194c-0.39993,0.51794 -0.41125,1.58149 -0.84261,2.02274c-0.94951,0.96926 -2.76175,-0.32183 -3.37044,0.3168c-3.75528,3.92732 -3.70623,15.07817 -4.87708,20.26012c-1.61228,7.14183 -3.42326,15.35348 -8.99958,20.2752c-8.61349,7.60194 -24.49858,8.77988 -35.39969,9.17463c-13.98984,0.50662 -27.5609,4.40502 -40.83389,8.59257c-6.1913,1.95234 -12.22037,4.23657 -18.4343,6.13234c-3.57418,1.09246 -7.65141,3.26857 -11.4683,2.84994c-4.60292,-0.50411 -8.23746,-4.37737 -11.60916,-7.25623c-5.39396,-4.60491 -10.388,-9.14445 -10.21407,-16.69988c0.19455,-7.99794 4.52708,-14.03474 11.35222,-18.00732c13.19503,-7.68114 27.95328,-12.60411 42.17579,-17.91177c5.45055,-2.03531 10.11635,-4.28685 15.32795,-7.02617c7.36341,-3.872 15.83982,-7.03246 22.37319,-12.144c1.92669,-1.50857 9.00587,-6.12983 9.60953,-8.51337c0.07923,-0.31051 -1.69025,-3.94994 -1.6978,-4.52697c-0.0176,-1.48469 0.86148,-3.09257 1.40226,-4.36354c3.40314,-8.00046 9.11151,-15.70423 13.47547,-23.24835c7.99222,-13.81851 16.01462,-27.70994 25.28082,-40.70628c18.47706,-25.91097 39.23294,-51.28137 61.63505,-73.89989c10.92123,-11.0264 20.35847,-23.53371 31.43313,-34.408c4.38786,-4.30697 9.0197,-7.8144 14.42624,-10.61028c6.02655,-3.11646 12.79133,-3.72743 19.69947,-4.67909c16.74028,-2.30434 30.72006,2.64754 46.43663,6.95703c14.8576,4.07314 29.73156,7.50891 44.67217,11.75177c16.40826,4.65897 32.648,9.12811 49.0047,14.20571c8.73925,2.71292 17.73003,4.37863 26.51078,6.98218c4.22814,1.25211 20.21258,9.10171 23.73771,6.52331c-11.10485,-5.21086 -22.48134,-9.96034 -34.36215,-13.10571c-3.49871,-0.92526 -5.73352,0.09931 -5.60398,-3.91852c0.07168,-2.1912 2.53412,-5.14926 3.42074,-6.95326c2.12288,-4.31828 4.5262,-8.53851 6.6038,-12.86937c-7.53192,2.1384 -27.77721,9.54046 -33.45288,1.88823c-5.93977,-8.00926 -0.98095,-23.71223 2.74163,-31.55428c9.71768,-20.47132 26.24542,-37.55463 42.34934,-52.98606c3.48362,-3.33646 10.99291,-7.69372 12.84917,-11.94286c0.56468,-1.29234 -0.66403,-3.19063 0.60995,-4.86891c0.75709,-0.99817 3.79929,-1.6808 5.01542,-2.75692c4.4281,-3.91977 7.96078,-12.16788 11.02058,-17.30708c3.20444,-5.38183 6.09195,-11.20995 10.11887,-16.03863c6.58619,-7.89612 13.38619,-16.26617 24.05212,-18.11292c5.23047,-0.90514 10.78667,-0.4224 15.79957,-2.22891c6.06302,-2.18491 11.82421,-5.62697 17.94634,-7.88983c-1.51921,-3.12274 -2.75043,-8.08846 -5.69705,-8.42914c-2.83721,-0.32937 -6.9987,2.10948 -10.24589,2.09188c-4.74251,-0.0264 -8.79081,-0.78445 -13.36732,-1.68834c-5.06572,-1.00194 -6.73459,-0.81966 -8.58079,-6.31463c-1.93675,-5.75645 -1.44879,-12.44194 -1.43244,-18.42091c0.00755,-2.9216 0.58732,-6.54846 0.33831,-9.416c-0.37352,-4.3208 -1.21361,-4.48674 -4.6004,-7.23486c-4.23192,-3.43326 -9.44856,-7.97657 -4.26462,-13.94171c2.80074,-3.22332 8.5569,-0.71657 11.03819,-4.18c2.52658,-3.52755 2.40459,-12.38915 3.17426,-16.53269c-7.78975,3.82926 -4.93367,-10.48583 -4.93493,-13.9304c-0.00126,-5.01223 -3.36038,-14.02594 1.47519,-18.19588c2.24738,-1.936 3.91626,-0.3344 6.48559,-1.44698c2.93153,-1.26971 4.77772,-4.59988 7.89664,-5.89097c6.19884,-2.56708 12.52848,0.52423 18.89333,0.01383c7.30052,-0.58457 14.47152,-1.71348 21.81228,-0.54183c3.4786,0.55315 4.94248,1.8744 7.88533,3.35532c2.82966,1.42434 5.70082,1.81405 8.77446,2.73051c2.73534,0.81589 5.13364,1.22823 6.98109,3.61177c1.46136,1.88572 0.8665,5.05749 2.3417,6.68297c1.45508,1.6016 4.33378,1.36903 6.06805,3.27109c1.6651,1.82537 2.66114,4.84251 3.52639,7.11417c1.16959,3.05989 1.30667,4.20892 3.36541,6.65783c1.79463,2.13714 4.37906,3.85566 5.87689,6.29326c3.5289,5.7464 3.61945,14.05611 2.49262,20.52034c-0.38232,2.20126 -3.57292,7.89109 -3.07364,9.76423c0.47538,1.78263 3.46727,1.31371 4.82174,2.44137c1.17085,0.97429 2.20085,5.3152 3.12394,5.58046c1.9946,0.572 4.45452,-3.36663 5.96619,-3.95749c2.62592,-1.02708 3.72509,-2.08057 5.18016,1.79017c1.07779,2.87257 -0.42382,6.77097 -1.21486,9.5128c-1.00611,3.48983 -2.11785,7.69246 -4.78402,10.3312c-3.13401,3.10263 -5.64297,1.40675 -9.10145,3.07749c-5.18268,2.50423 -3.6534,10.33371 -10.03083,12.57143c-6.07685,2.13211 -12.77246,-4.576 -17.36909,-7.65977c0.95203,7.48628 4.53626,14.69977 2.81583,22.37211c13.97727,-5.47611 27.80111,-13.24777 43.03348,-14.96c7.76711,-0.87371 15.61345,-1.90834 22.94541,1.31623c8.58205,3.77394 13.84019,12.09874 19.64917,19.01554c10.91746,13.00012 22.11914,25.63566 32.59769,39.0544c9.61079,12.30869 17.71368,26.57097 28.29284,38.09646c10.7263,11.68766 18.82165,30.6504 17.64702,46.83486c-0.10564,1.4608 -1.2375,4.77965 -1.06018,6.35485c0.13834,1.20686 1.23499,2.7368 1.2176,3.70983c-0.05932,3.27486 -1.14214,5.16057 -4.26357,6.97714c-5.41157,3.15166 -13.47547,4.74698 -19.59132,5.52892c-8.12552,1.03966 -18.07713,1.15154 -26.20643,0.04148c-8.3846,-1.14651 -15.75429,-5.83942 -23.46481,-8.67554c-6.76351,-2.48914 -13.55596,-4.04297 -20.66281,-5.63074c-3.92002,-0.87623 -8.26009,-3.30126 -10.68228,-0.95417c-2.22475,2.15725 -2.6863,13.22514 -3.20444,16.16811c-5.62285,31.89874 -12.30462,62.71634 -18.22301,94.45292c-6.70693,35.97188 -11.2935,71.92994 -15.95803,108.20731c-4.23947,32.97611 -5.62537,66.3256 -6.57362,99.27154c-0.45275,15.71555 -0.51814,31.26263 -0.42256,46.992c0.05407,8.80755 4.45703,38.20835 -8.59966,39.33349c-7.67278,0.66377 -13.81126,-10.33749 -15.86748,-16.33657c-3.08873,-9.01372 -4.69724,-18.72012 -5.19023,-28.18892c-0.99604,-19.16891 -2.30271,-38.35165 -3.07615,-57.52811c-0.83758,-20.77554 0.22763,-41.93452 1.93549,-62.64217c1.71917,-20.84595 6.05044,-41.38766 7.37849,-62.26503c-3.98542,5.68731 -5.26065,6.75588 -11.89841,9.23246c-6.94587,2.59348 -13.62764,5.66091 -20.6364,8.0784c-2.38446,0.82217 -6.10578,1.3376 -8.06013,2.684c-3.60688,2.48411 -1.23751,-0.3344 -2.38949,4.50057c-1.22996,5.1656 -1.46137,11.36708 -1.78835,16.67474c-1.53556,24.91029 -8.43616,49.64331 -11.61922,74.4216c-0.76841,5.98274 0.32824,31.37954 -9.96795,23.37531c-7.92934,-6.16377 -7.77214,-25.52502 -8.90023,-34.59405c-1.5016,-12.08869 -0.66528,-24.51806 -0.42759,-36.67966c0.27039,-13.8512 0.50305,-28.37874 3.80809,-41.90309c-5.91336,-1.012 -14.13824,1.74492 -20.09059,2.2088c-5.15375,0.40103 -10.2899,0.65623 -15.41473,0.93783c-12.22162,0.67132 -24.81047,1.20686 -37.23834,0.96675c-2.26247,-0.044 -17.04336,-2.11326 -18.93232,-0.44503c-0.61372,0.54183 -0.80111,7.99417 -0.91555,8.90434c-0.43514,3.42446 -1.02497,6.84514 -1.46514,10.25074c-1.40351,10.8856 -2.6712,22.57452 -2.26876,33.45635l0,0z"/>
     <path id="svg_7" d="m620.546486,626.718356c9.32703,3.64513 19.22657,4.96789 28.6327,8.28863c8.40927,2.96866 16.21841,6.95958 24.49837,9.97728c0.48462,-3.84129 0.74199,-10.3457 -0.67671,-13.96568c-2.00753,-5.12633 -7.29314,-5.25207 -12.49715,-7.07778c-12.66538,-4.44357 -25.98863,-5.38031 -38.56236,-10.57202c2.15316,4.14431 1.19146,9.6315 -1.39485,13.34957m161.01027,-13.4049c-20.14433,0.59097 -39.39601,5.27847 -59.24907,8.17798c-9.66099,1.40952 -19.33077,2.66816 -29.00055,3.98463c-3.72127,0.50547 -10.50343,-0.09053 -13.20775,3.13087c-2.24231,2.66941 0.21468,11.77659 -0.78092,15.68829c4.07155,0.30051 11.30066,-3.50305 15.71999,-4.133c6.88134,-0.97824 13.67228,-2.34878 20.62518,-2.78509c11.0119,-0.69407 21.83171,-1.28378 32.82478,-2.50972c11.17888,-1.24606 21.99618,-3.56215 33.2642,-4.40836c5.4777,-0.41242 7.68108,0.61485 8.00374,-5.16782c0.12681,-2.26077 0.43691,-6.04547 -0.19711,-8.2748c1.01318,-2.74108 0.11425,-4.07139 -2.69679,-3.99343c-1.78531,-0.20118 -3.55304,-0.10436 -5.3057,0.29045m-38.96161,-18.45577c5.44757,-0.5105 10.91774,-1.24355 16.37912,-1.55035c1.10734,-0.06287 6.7244,0.27537 7.64216,-0.75442c1.29818,-1.45605 -0.14814,-6.78355 -0.38669,-8.43197c-0.80979,-5.60539 -1.70495,-8.86451 -7.81919,-8.87719c-5.16006,-0.01247 -10.50217,1.07894 -15.64214,1.58189c-23.33328,2.28716 -46.54854,3.25283 -69.62444,7.59581c1.4049,5.98134 2.99937,12.15255 1.31952,18.26969c11.06965,0.57084 23.22279,-1.55915 34.04135,-3.74447c11.0571,-2.2331 22.78965,-3.34211 34.09031,-4.08899m-36.93023,-56.31791c-8.33645,0.03772 -17.14748,3.70926 -25.37344,2.89071c-0.12304,1.53023 2.50972,0.26028 3.23665,1.69243c1.55304,0.00377 2.09416,0.51049 1.61958,1.52268c0.02888,0.6903 -0.32392,1.09518 -1.05963,1.21211c-0.36284,0.03269 -0.72568,0.06287 -1.08726,0.09431c-1.5907,0.05155 -1.85184,1.12409 -0.78091,3.2214c-0.45951,2.59774 0.22975,5.89709 0.33019,8.50489c14.78339,-2.0118 29.14494,-4.10407 44.03253,-5.00184c7.02824,-0.42374 14.05145,-0.42248 21.07089,-1.00087c7.72377,-0.63624 16.15438,0.72802 23.7049,-0.71797c4.0364,-0.77328 3.6133,-0.71922 3.31951,-5.96876c-0.17953,-3.18871 -0.11299,-6.97467 -2.70934,-9.30082c-4.33647,-3.88529 -14.21089,-1.63962 -19.39606,-1.50257c-15.61704,0.41242 -31.49898,1.86344 -46.90761,4.3543m8.53356,74.96103c22.33266,-2.02814 44.49707,-6.47046 66.95652,-6.47046c-1.58819,-1.58681 -5.04707,-1.99545 -7.02321,-2.86179c-2.2536,-0.98578 -4.3804,-3.08686 -6.58253,-3.94942c-4.41932,-1.73015 -8.91648,0.67396 -13.45508,1.71255c-10.94913,2.50721 -22.18325,2.59271 -33.14995,5.05214c-11.33707,2.54116 -22.82229,4.88491 -34.36903,6.17749c-5.49779,0.61486 -11.39733,1.86218 -16.82984,0.40991c-0.44067,-0.3156 -0.88386,-0.63121 -1.32454,-0.94555c-0.47457,-2.02186 -1.79284,-2.56128 -3.95479,-1.6195c-2.74576,-0.52307 -6.2423,0.15214 -9.00656,0.2213c-0.11206,1.10397 10.10009,4.56679 12.04736,5.42432c4.69176,2.06587 7.87317,3.57849 12.88383,2.6933c11.28309,-1.99294 22.38161,-4.3719 33.80782,-5.84429m-78.56101,-65.29306c0.87257,3.40246 4.53734,1.85463 7.69239,2.22933c4.23477,0.50169 8.44819,1.96277 12.54987,3.06423c7.44883,2.00174 14.90016,3.97582 22.31759,6.09199c-0.29253,-2.99633 0.37037,-9.81508 -1.2128,-12.47318c-1.66102,-2.78635 -9.5367,-4.00726 -13.20399,-4.85725c-9.24417,-2.1388 -19.1186,-0.92165 -28.50966,-0.47151c0.16573,2.13628 0.28877,4.27382 0.3666,6.41639m88.79702,21.28488c8.77085,-0.74311 17.55175,-1.32025 26.34771,-1.62956c10.05647,-0.35207 2.74701,-1.959 2.53483,-8.09248c-13.21779,2.10862 -26.55235,2.52481 -39.72871,4.32663c-10.91649,1.49502 -23.92085,5.39666 -35.05578,3.30062c-5.25172,-0.9883 -10.61391,-1.36929 -16.20084,-1.92756c-5.27055,-0.52684 -10.24354,-2.9825 -15.45006,-3.59233c-5.8443,-0.68527 -11.81541,2.60026 -17.62958,3.46785c-2.46453,0.36841 -3.03704,2.03946 -4.20087,-0.92669c-1.20653,-3.0768 2.24983,-5.59156 3.61078,-7.4311c1.58946,-2.14885 0.92907,1.34037 1.81168,-2.01557c0.24733,-0.94052 -0.4231,-3.30313 -0.54614,-4.31658c-0.31136,-2.56127 -1.11613,-5.34008 -1.24168,-7.89632c-0.11551,-2.34752 -0.13559,-5.93105 2.41305,-7.30159c1.55555,-0.83615 2.65787,0.3835 4.0138,0.14711c10.58503,-1.8408 23.03573,-1.99168 33.77016,-0.21501c11.63714,1.92505 21.65343,-3.17236 33.12359,-5.23949c13.45508,-2.42422 27.05203,-2.7876 40.62387,-3.81236c11.60449,-0.87514 32.8072,-5.41678 37.22778,9.40518c1.25173,4.19963 3.07595,15.76121 -0.29253,19.33468c-4.41932,4.69253 -14.65282,3.19499 -20.3678,4.41465c0.85498,2.43177 3.39986,4.08521 2.51976,6.98095c8.00877,0.37847 9.42496,7.94285 10.6792,15.00554c1.29817,7.30661 -1.23415,10.21116 5.74889,14.01598c9.73255,5.30236 20.04263,10.65752 19.8518,23.28662c-0.09542,6.34975 -0.80603,15.92593 -7.32579,19.22026c-6.37788,3.22265 -16.76329,2.67821 -23.79278,3.84757c-13.61202,2.26705 -27.27175,4.9264 -40.96663,6.28689c-14.58251,1.44975 -29.40733,2.63923 -44.0137,3.28678c-7.95855,0.35458 -14.83361,1.55663 -22.51972,-1.12158c-7.55679,-2.63295 -14.94911,-4.55548 -22.7457,-6.5107c-7.69741,-1.92756 -31.26044,-4.5253 -24.39416,-17.68878c1.09855,-2.1061 4.85372,-3.78093 5.46012,-5.77261c0.97803,-3.2126 -2.32642,-5.71981 -2.18832,-8.62309c0.25235,-5.31116 6.24481,-5.97757 10.3829,-5.97757c-7.09226,-4.43603 2.40552,-9.68809 2.34902,-13.45393c-0.09918,-6.63518 -8.35152,-10.9417 -8.81856,-16.50433c-1.13496,-13.53566 41.80404,0.55827 48.41294,3.4867c-5.08725,7.54301 -28.68668,1.01596 -35.71617,-0.12825c0.95919,2.51853 1.8757,4.78306 2.15316,7.36194c0.22474,2.10108 -0.57752,4.50267 0.15694,6.61758c1.16007,3.34462 1.1199,2.70461 5.2266,3.61621c3.03829,0.67396 6.04268,1.45353 9.07092,2.16772c4.65158,1.09769 11.96858,4.04247 16.57748,3.88152c4.04268,-0.14082 3.24419,1.11278 3.98493,-3.37731c0.39924,-2.41291 -0.28123,-4.97796 -0.68801,-7.34183c-0.84871,-4.95406 -2.09039,-9.64282 2.23602,-13.19742c4.12554,-3.38989 12.82106,-5.0031 17.88069,-6.19887c11.23035,-2.65307 24.19203,-3.30313 35.71491,-3.16607"/>
     <path id="svg_8" d="m777.874746,484.935956c-12.1968,-2.04362 -24.5888,-2.54695 -36.92916,-1.92756c0.66871,3.05407 1.33742,6.10688 2.0074,9.15843c11.56083,-2.97712 23.28915,-4.72177 34.92176,-7.23087l0,0zm-99.1763,23.68829c-4.89131,-0.35826 -1.48855,1.82916 -0.28083,5.03083c1.48477,3.93333 1.16616,8.90613 1.50744,13.04634c14.31125,-5.45721 30.96237,-8.6513 46.17783,-10.48804c7.21608,-0.87043 14.53667,-1.1202 21.79305,-1.49234c2.14467,-0.10975 9.89093,0.78843 11.46008,-0.65472c1.1649,-1.07352 0.34758,-6.99371 -0.77198,-8.30061c-6.09022,-7.09842 -29.6325,-0.96883 -38.14948,-0.33303c-13.96493,1.04325 -27.67421,3.53848 -41.73611,3.19157l0,0zm20.32591,-19.02456c12.67157,1.21734 24.90741,1.10128 37.58025,2.99983c-0.96089,-8.05463 0.18764,-10.11086 -8.9502,-10.5385c-8.14295,-0.37971 -16.26072,-0.68752 -24.3659,-0.68373c-18.22656,0.01009 -36.41031,-0.33808 -54.65703,-0.33808l0,8.18582c16.87529,-1.72825 33.48359,1.39269 50.39288,0.37466l0,0zm-60.93489,30.10298c7.99687,-0.03406 15.55548,2.98343 23.55361,3.76555c4.78679,0.46802 3.28313,1.06218 6.60403,3.46532c5.17215,3.74411 6.66196,1.74969 6.01339,-3.33791c-2.19756,-17.20927 -23.98683,-13.35036 -36.54254,-14.30657c0.82487,4.10363 -1.07171,7.58408 -3.8662,10.41361l4.23771,0zm86.44175,-22.09503c-11.5029,0.1867 -23.01965,0.84015 -34.44195,0.60173c-5.11296,-0.10722 -11.73714,-1.1202 -16.74809,-0.24851c-3.671,0.63831 -6.7413,2.50785 -10.76744,3.20293c5.91391,3.18526 8.91242,1.03316 15.12983,0.3078c6.21237,-0.72283 12.51667,-0.70896 18.75423,-1.08614c10.24355,-0.62066 21.16211,-3.07426 31.25454,-2.40693c0.18386,-1.4217 -0.87525,-1.54533 -3.18112,-0.37088l0,0zm-91.2361,37.27204c-5.27793,-0.01136 1.98348,-6.01354 2.93681,-6.60896c-5.84339,0 -7.25764,-3.50442 -5.56507,-9.13446c1.5956,-5.30331 2.77561,-3.67977 -1.23794,-8.09625c-3.02118,-3.3253 -3.47832,-5.77511 0.08312,-9.49273c3.6244,-3.78195 10.96389,-2.71221 14.17523,-5.8344c5.46684,-5.3134 -1.58803,-15.89732 5.98695,-19.96815c5.12052,-2.75005 13.3743,-2.40945 19.02752,-2.991c5.46431,-0.56136 11.12005,-0.66985 16.62089,-0.74428c11.99027,-0.16399 24.44524,1.84682 36.38261,2.95315c4.35231,0.40242 9.24489,2.16094 13.53297,2.16472c4.37246,0.00505 8.95272,-0.97008 13.46749,-0.85781c5.24897,0.13246 10.30526,-0.25482 15.71794,0.60678c4.14704,0.66102 13.83018,1.00793 16.99996,4.09101c10.56217,10.27359 -14.48504,14.99157 -18.79453,16.14584c4.38631,4.80502 4.20371,11.15663 3.54255,17.20548c2.088,0 5.68722,-0.90827 6.76774,1.43306c1.34247,2.90773 -3.62566,3.66337 -4.80064,4.00271c-6.75767,1.95153 -14.66638,1.41666 -21.63059,2.12561c-13.92337,1.41666 -27.67798,2.23411 -41.45653,4.87189c-6.71485,1.28545 -13.3894,2.8762 -20.09922,4.1276c-1.1586,0.21697 -2.3235,0.3898 -3.49343,0.52099c-1.79583,-0.1539 -2.37639,0.97261 -1.74294,3.38585c-1.86258,0.90953 -8.80663,-1.35737 -10.95382,-1.70428c-12.29252,-1.99442 -23.28916,-1.16562 -35.46707,1.79763l0,0z"/>
     <path id="svg_9" d="m881.514456,654.245076c-7.92853,6.23921 -15.29845,12.12651 -23.88476,17.54793c6.06942,-0.1891 26.25478,-9.86852 23.88476,-17.54793m-3.09685,-10.16908c-4.32705,-3.71823 -8.62522,-3.33752 -13.98162,-4.46463c-4.93211,-1.0382 -9.72488,-2.8253 -14.64695,-4.01504c-3.86258,-0.933 -7.68625,-2.19536 -11.53503,-3.07702c-5.43548,-1.24609 -5.9715,0.12524 -10.97014,2.97308c-17.72621,10.10271 -37.5626,17.052 -56.23406,25.25114c5.48193,4.82655 17.81409,5.03444 24.66556,6.57358c5.00241,1.12211 9.76253,2.65749 14.55405,4.43458c4.46136,1.65686 11.64926,5.4665 16.35416,5.59299c3.9718,0.1077 7.20045,-3.80088 10.61991,-5.90608c4.49777,-2.7702 8.97546,-5.49156 13.50838,-8.19288c9.59307,-5.71572 18.56225,-12.72012 27.66574,-19.16972m-80.11003,40.92054c-2.04615,-1.96869 -8.20595,-1.88228 -10.7718,-2.48341c-5.05387,-1.18096 -10.03368,-2.40827 -15.15534,-3.29493c-8.3114,-1.4377 -21.44068,-2.08141 -22.34324,-12.86414c-0.75193,-8.96057 10.07511,-11.08706 16.40814,-14.12276c9.52277,-4.56732 19.23886,-8.78148 29.0039,-12.80903c9.15497,-3.77459 18.44425,-6.96683 27.76618,-10.2292c1.81768,-0.6362 3.29393,-0.54853 4.7777,-2.00376c1.1712,-1.14841 0.80968,-3.37759 2.0926,-4.57734c2.93868,-2.74766 6.75105,-1.30245 10.28223,-0.59737c8.01892,1.59925 16.34538,3.69944 23.99021,6.66626c7.94485,3.08328 15.05115,3.72699 16.95922,12.73389c4.06218,-1.90607 7.1176,-2.18284 6.63179,3.41767c-0.14185,1.64559 -1.3369,3.43519 -1.62437,5.13213c-0.42178,2.50219 0.3176,5.13964 -0.10042,7.6481c-1.52018,9.12087 -13.81844,15.8773 -21.43942,19.45902c-9.39724,4.41579 -21.52226,10.94053 -32.01413,11.80215c-11.17978,0.91922 -23.36381,-3.47152 -34.46325,-3.87728"/>
     <path id="svg_10" d="m656.000006,533.676816c-3.3329,0.021 -6.6684,0.042 -10,0.063c3.3264,-0.625 6.6606,-0.632 10,-0.063"/>
     <path id="svg_11" d="m461.000006,180.999996c-0.99964,1.66588 -1.99928,3.33175 -3,5c0.34076,-2.14813 1.10316,-3.98904 3,-5"/>
     <path id="svg_12" d="m656.000006,581.473496c2.00397,0.018 4.00675,0.034 6,0.053c-2.00755,-0.016 -4.00318,-0.034 -6,-0.053"/>
     <path id="svg_13" d="m702.000006,472.689496c-2.33466,-0.126 -4.66667,-0.253 -7,-0.379c2.33333,0.126 4.66534,0.253 7,0.379"/>
     <path id="svg_14" d="m662.000006,533.726296c-2.00084,-0.019 -4.00168,-0.037 -6,-0.056c2.00711,-0.547 4.00795,-0.528 6,0.056"/>
     <path id="svg_15" d="m741.584506,249.999996c-0.056,-2.00089 -0.112,-4.00178 -0.169,-6c0.058,2.00224 0.113,4.00045 0.169,6"/>
     <path id="svg_16" d="m401.561506,551.999996c-0.041,-1.66747 -0.082,-3.33495 -0.123,-5c0.042,1.6687 0.082,3.33374 0.123,5"/>
     <path id="svg_17" d="m456.000006,470.497496c1.33798,0.001 2.67343,0.002 4,0.005c-1.33926,0 -2.66963,-0.003 -4,-0.005"/>
     <path id="svg_18" d="m635.000006,111.318996c-1.66743,0.121 -3.33372,0.241 -5,0.362c1.66743,-0.121 3.33371,-0.241 5,-0.362"/>
     <path id="svg_19" d="m761.000006,476.519496c-2,-0.013 -4.00137,-0.026 -6,-0.039c1.99863,0.013 4,0.026 6,0.039"/>
     <path id="svg_20" d="m592.574506,599.999996c-0.05,-1.33533 -0.101,-2.67187 -0.149,-4c0.049,1.33655 0.099,2.66948 0.149,4"/>
     <path id="svg_21" d="m594.554006,548.999996c-0.036,-1.3341 -0.072,-2.66936 -0.108,-4c0.037,1.33411 0.073,2.66706 0.108,4"/>
     <path id="svg_22" d="m560.428006,571.999996c0.048,1.33535 0.097,2.6707 0.144,4c-0.048,-1.33655 -0.096,-2.66706 -0.144,-4"/>
     <path id="svg_23" d="m464.000006,469.520496c1.00381,-0.014 2.00648,-0.027 3,-0.041c-1.00611,0.014 -2.00306,0.027 -3,0.041"/>
     <path id="svg_24" d="m754.000006,521.564996c1.00257,-0.043 2.00514,-0.087 3,-0.13c-1.00588,0.044 -2.00404,0.087 -3,0.13"/>
     <path id="svg_25" d="m562.414506,603.999996c0.057,1.33474 0.114,2.67088 0.171,4c-0.057,-1.33894 -0.114,-2.66947 -0.171,-4"/>
     <path id="svg_26" d="m669.601006,596.999996c-0.067,1.33601 -0.135,2.67068 -0.202,4c0.067,-1.336 0.135,-2.668 0.202,-4"/>
     <path id="svg_27" d="m554.344506,1.146746c-1.4125,-0.18 -2.82625,-0.3585 -4.24,-0.5385c1.40125,0.324 2.93625,-0.8775 4.24,0.5385"/>
     <path id="svg_28" d="m493.557506,513.999996c-0.038,1.33515 -0.076,2.67029 -0.115,4c0.037,-1.33785 0.076,-2.66892 0.115,-4"/>
     <path id="svg_29" d="m407.603006,635.999996c-0.068,-1.3342 -0.138,-2.6684 -0.206,-4c0.069,1.33421 0.138,2.66711 0.206,4"/>
     <path id="svg_30" d="m731.000006,523.530996c1.0051,-0.021 2.00742,-0.043 3,-0.062c-1.0065,0.022 -2.00325,0.042 -3,0.062"/>
     <path id="svg_31" d="m391.489506,280.999996c0.008,1.33561 0.015,2.67121 0.021,4c-0.008,-1.33696 -0.014,-2.66848 -0.021,-4"/>
     <path id="svg_32" d="m370.508006,580.999996c-0.004,1.33522 -0.009,2.67184 -0.016,4c0.004,-1.33662 0.01,-2.66901 0.016,-4"/>
     <path id="svg_33" d="m619.742766,572.999996c-0.036,1.33474 -0.071,2.67089 -0.109,4c-0.548,-1.3713 -0.486,-2.70042 0.109,-4"/>
     <path id="svg_34" d="m433.000006,471.499996c1.00359,0 2.00719,0 3,0c-1.0063,0 -2.00315,0 -3,0"/>
     <path id="svg_35" d="m593.516006,566.999996c-0.011,-1.33473 -0.021,-2.66947 -0.032,-4c0.011,1.33755 0.021,2.66807 0.032,4"/>
     <path id="svg_36" d="m798.000006,685.458496c1.00403,0.027 2.00807,0.055 3,0.083c-1.00808,-0.027 -2.00404,-0.055 -3,-0.083"/>
     <path id="svg_37" d="m762.000006,558.517496c0.66851,-0.012 1.33923,-0.023 2,-0.035c-0.67294,0.012 -1.33592,0.023 -2,0.035"/>
     <path id="svg_38" d="m737.000006,561.501996c0.67078,-0.002 1.33932,-0.003 2,-0.004c-0.67079,0.002 -1.33596,0.003 -2,0.004"/>
     <path id="svg_39" d="m347.560006,567.999996c-0.04,-1.00038 -0.081,-2.00193 -0.12,-3c0.041,1.00155 0.081,2.00193 0.12,3"/>
     <path id="svg_40" d="m757.000006,567.241116c-0.86851,0.87899 -1.98598,0.36 -3,0.41599c1.00038,-0.139 2.00075,-0.27699 3,-0.41599"/>
     <path id="svg_41" d="m638.000006,535.246586c-1.32026,0.624 -2.65452,0.71 -4,0.043c1.33426,-0.014 2.66713,-0.028 4,-0.043"/>
     <path id="svg_42" d="m725.000006,569.516996c-1.3338,-0.011 -2.6676,-0.022 -4,-0.034c1.33379,0.012 2.66759,0.023 4,0.034"/>
     <path id="svg_43" d="m669.000006,534.681496c-1.33334,-0.121 -2.66805,-0.242 -4,-0.363c1.33195,0.121 2.66666,0.242 4,0.363"/>
     <path id="svg_44" d="m363.539506,529.999996c-0.025,1.00261 -0.052,2.00392 -0.079,3c0.025,-1.00391 0.052,-2.00261 0.079,-3"/>
     <path id="svg_45" d="m593.423006,583.999996c0.052,-1.00219 0.103,-2.00439 0.154,-3c-0.051,1.00352 -0.102,2.00176 -0.154,3"/>
     <path id="svg_46" d="m731.000006,526.331996c-1.33288,0.112 -2.66712,0.224 -4,0.336c1.33423,-0.112 2.66712,-0.224 4,-0.336"/>
     <path id="svg_47" d="m401.541506,522.999996c-0.027,-1.00179 -0.055,-2.00359 -0.083,-3c0.027,1.00449 0.056,2.00225 0.083,3"/>
     <path id="svg_48" d="m568.618006,445.999996c-0.079,1.00202 -0.158,2.00282 -0.236,3c0.079,-1.00201 0.158,-2.0004 0.236,-3"/>
     <path id="svg_49" d="m751.000006,476.260436c-1.33556,0.692 -2.66845,0.605 -4,-0.007c1.33288,0.002 2.66711,0.005 4,0.007"/>
     <path id="svg_50" d="m592.588506,614.999996c-0.06,-1.00165 -0.118,-2.00206 -0.177,-3c0.059,1.00289 0.117,2.00083 0.177,3"/>
     <path id="svg_51" d="m592.563006,622.999996c-0.042,-1.00078 -0.085,-2.00156 -0.126,-3c0.043,1.00195 0.085,2.00039 0.126,3"/>
     <path id="svg_52" d="m403.479006,490.999996c0.015,-1.00133 0.028,-2.004 0.042,-3c-0.015,1.00401 -0.028,2.00134 -0.042,3"/>
     <path id="svg_53" d="m688.000006,650.527496c0.66927,-0.019 1.33854,-0.038 2,-0.055c-0.67262,0.02 -1.33631,0.037 -2,0.055"/>
     <path id="svg_54" d="m365.581006,658.999996c-0.054,-1.00122 -0.108,-2.00244 -0.162,-3c0.055,1.00123 0.108,2.00123 0.162,3"/>
     <path id="svg_55" d="m582.000006,667.479496c0.67011,0.014 1.34022,0.026 2,0.041c-0.67241,-0.013 -1.33563,-0.027 -2,-0.041"/>
     <path id="svg_56" d="m727.000006,475.651496c-1.33288,-0.101 -2.66712,-0.202 -4,-0.303c1.33288,0.101 2.66712,0.202 4,0.303"/>
     <path id="svg_57" d="m734.000006,476.707496l-3,-0.415l3,0.415z"/>
     <path id="svg_58" d="m582.416006,581.999996c0.057,-3.0013 0.112,-6.0013 0.168,-9c-0.057,3.00131 -0.112,6 -0.168,9"/>
     <path id="svg_59" d="m504.448006,471.999996c0.034,2.33492 0.068,4.66983 0.104,7c-0.034,-2.33728 -0.069,-4.66864 -0.104,-7"/>
     <path id="svg_60" d="m332.000006,618.468996c-1.66913,0.02 -3.34072,0.04 -5,0.062c1.67405,-0.02 3.33702,-0.041 5,-0.062"/>
     <path id="svg_61" d="m469.000006,419.538496c-1.67126,-0.026 -3.34114,-0.053 -5,-0.077c1.67538,0.027 3.33838,0.052 5,0.077"/>
     <path id="svg_62" d="m426.000006,458.502496c1.66783,-0.001 3.3345,-0.003 5,-0.005c-1.66667,0.001 -3.33334,0.003 -5,0.005"/>
     <path id="svg_63" d="m448.000006,418.466996c-1.33802,0.022 -2.67476,0.045 -4,0.066c1.34184,-0.022 2.67092,-0.044 4,-0.066"/>
     <path id="svg_64" d="m340.000006,618.510496c-1.33676,-0.007 -2.67352,-0.014 -4,-0.021c1.34189,0.008 2.67094,0.014 4,0.021"/>
     <path id="svg_65" d="m520.000006,107.673496c1.66589,-0.116 3.3341,-0.231 5,-0.347c-1.66706,0.116 -3.33411,0.231 -5,0.347"/>
     <path id="svg_66" d="m542.407006,224.999996c0.062,-1.66712 0.124,-3.33424 0.186,-5c-0.063,1.6685 -0.124,3.33425 -0.186,5"/>
     <path id="svg_67" d="m502.000006,240.498996c-1.00342,0 -2.00684,0.001 -3,0.002c1.00684,0 2.00342,-0.001 3,-0.002"/>
     <path id="svg_68" d="m417.000006,415.483496c-1.00341,0.011 -2.00681,0.022 -3,0.033c1.00681,-0.01 2.0034,-0.021 3,-0.033"/>
     <path id="svg_69" d="m394.000006,456.337496c1.33374,0.108 2.66748,0.217 4,0.325c-1.33375,-0.108 -2.66626,-0.217 -4,-0.325"/>
     <path id="svg_70" d="m391.468506,506.999996c0.021,-1.33471 0.043,-2.66804 0.063,-4c-0.021,1.3361 -0.042,2.66805 -0.063,4"/>
     <path id="svg_71" d="m506.000006,453.695996c1.33253,-0.131 2.66747,-0.261 4,-0.392c-1.33374,0.131 -2.66747,0.261 -4,0.392"/>
     <path id="svg_72" d="m597.381006,429.999996c0.08,-1.33423 0.159,-2.66982 0.238,-4c-0.079,1.33559 -0.159,2.66848 -0.238,4"/>
     <path id="svg_73" d="m615.000006,245.655496c1.33372,-0.104 2.66627,-0.208 4,-0.311c-1.33373,0.103 -2.66628,0.207 -4,0.311"/>
     <path id="svg_74" d="m479.000006,420.514496c-1.0028,-0.01 -2.007,-0.02 -3,-0.029c1.00699,0.009 2.00419,0.019 3,0.029"/>
     <path id="svg_75" d="m391.573506,581.999996c-0.05,-1.0018 -0.099,-2.00252 -0.147,-3c0.048,1.0018 0.097,2.00144 0.147,3"/>
     <path id="svg_76" d="m503.692366,530.999996c2.18552,5.41951 0.95827,1.58214 1.01431,2.83312c-1.8619,0.24999 -2.20094,-0.69475 -1.01431,-2.83312"/>
     <path id="svg_77" d="m412.000006,415.554496c-1.00229,-0.036 -2.00733,-0.072 -3,-0.109c1.00915,0.036 2.0032,0.072 3,0.109"/>
     <path id="svg_78" d="m616.405506,313.999996c0.063,-1.33376 0.127,-2.66753 0.189,-4c-0.063,1.33507 -0.127,2.66754 -0.189,4"/>
     <path id="svg_79" d="m391.505006,571.999996c-0.003,-1.33426 -0.007,-2.66713 -0.01,-4c0.003,1.33708 0.006,2.66854 0.01,4"/>
     <path id="svg_80" d="m391.395506,541.999996c0.069,-1.0008 0.14,-2.0016 0.209,-3c-0.07,1.00201 -0.14,2.00161 -0.209,3"/>
     <path id="svg_81" d="m599.360006,410.999996c0.093,-1.0008 0.187,-2.00161 0.28,-3c-0.093,1.00202 -0.187,2.00162 -0.28,3"/>
     <path id="svg_82" d="m378.366006,544.999996c0.089,1.00198 0.179,2.00397 0.268,3c-0.09,-1.00079 -0.179,-2.00039 -0.268,-3"/>
     <path id="svg_83" d="m376.352006,536.999996c0.099,1.00081 0.197,2.00281 0.296,3c-0.099,-1.0032 -0.197,-2.0016 -0.296,-3"/>
     <path id="svg_84" d="m576.388006,399.999996c0.075,-1.00038 0.149,-2.00077 0.224,-3c-0.076,1.00155 -0.15,2.00077 -0.224,3"/>
     <path id="svg_85" d="m66.000006,535.657496c1.33239,-0.105 2.6662,-0.211 4,-0.315c-1.33661,0.105 -2.66901,0.21 -4,0.315"/>
     <path id="svg_86" d="m567.557506,559.999996c-0.039,1.00216 -0.078,2.00562 -0.115,3c0.039,-1.00474 0.077,-2.00172 0.115,-3"/>
     <path id="svg_87" d="m583.388506,562.999996c0.074,-1.00039 0.148,-2.00198 0.223,-3c-0.075,1.00159 -0.149,2.0008 -0.223,3"/>
     <path id="svg_88" d="m577.342006,395.999996c0.105,-1.00119 0.212,-2.00119 0.316,-3c-0.105,1.0024 -0.211,2.0012 -0.316,3"/>
     <path id="svg_89" d="m74.000006,534.696496c1.3338,-0.131 2.66761,-0.262 4,-0.393c-1.33239,0.131 -2.66761,0.262 -4,0.393"/>
     <path id="svg_90" d="m498.000006,419.488996c-0.66937,0.007 -1.33989,0.015 -2,0.022c0.67283,-0.007 1.33641,-0.015 2,-0.022"/>
     <path id="svg_91" d="m391.505006,532.999996c-0.003,-1.00206 -0.007,-2.00289 -0.01,-3c0.003,1.00331 0.007,2.00042 0.01,3"/>
     <path id="svg_92" d="m585.578016,530.999996c-0.355,-1.03392 -0.529,-2.05295 0.156,-3c-0.052,1.00166 -0.104,2.00083 -0.156,3"/>
     <path id="svg_93" d="m568.542506,511.999996c-0.028,1.00086 -0.058,2.00301 -0.085,3c0.029,-1.00343 0.057,-2.00171 0.085,-3"/>
     <path id="svg_94" d="m569.406506,610.999996c0.062,1.00039 0.125,2.0031 0.187,3c-0.062,-1.00154 -0.125,-2.00193 -0.187,-3"/>
     <path id="svg_95" d="m643.000006,247.286496c1.00111,0.143 2.00111,0.286 3,0.427c-1.00112,-0.143 -2,-0.285 -3,-0.427"/>
     <path id="svg_96" d="m639.000006,247.379626c1.34165,0.081 2.81635,-0.564 4,0.381l-4,-0.381z"/>
     <path id="svg_97" d="m468.000006,458.509996c1.33333,-0.006 2.66808,-0.013 4,-0.02c-1.33334,0.007 -2.66667,0.014 -4,0.02"/>
     <path id="svg_98" d="m498.000006,246.326496l4,0.347c-1.33517,-0.116 -2.66621,-0.231 -4,-0.347"/>
     <path id="svg_99" d="m432.000006,458.238746c1.3347,0.006 2.66666,0.012 4,0.018c-1.3388,0.644 -2.67214,0.707 -4,-0.018"/>
     <path id="svg_100" d="m395.614506,625.999996c-0.076,-1.00306 -0.152,-2.0035 -0.229,-3c0.077,1.00307 0.153,2.00088 0.229,3"/>
     <path id="svg_101" d="m541.478006,247.999996c0.015,-1.00173 0.029,-2.00216 0.044,-3c-0.015,1.00304 -0.029,2.00217 -0.044,3"/>
     <path id="svg_102" d="m457.000006,458.661496c1.33424,-0.107 2.66712,-0.215 4,-0.323c-1.33425,0.108 -2.66576,0.216 -4,0.323"/>
     <path id="svg_103" d="m570.466506,634.999996c0.022,1.00124 0.045,2.00248 0.067,3c-0.022,-1.0037 -0.045,-2.00123 -0.067,-3"/>
     <path id="svg_104" d="m574.000006,222.690496c1.33333,-0.127 2.66666,-0.254 4,-0.381c-1.33334,0.127 -2.66667,0.254 -4,0.381"/>
     <path id="svg_105" d="m591.363006,477.999996c0.092,-1.00078 0.184,-2.00157 0.274,-3c-0.091,1.00197 -0.183,2.0004 -0.274,3"/>
     <path id="svg_106" d="m637.385506,210.999996c0.077,-1.00157 0.153,-2.00196 0.229,-3c-0.076,1.00158 -0.153,2.00079 -0.229,3"/>
     <path id="svg_107" d="m542.471006,124.999996c0.019,1.0008 0.037,2.0028 0.058,3c-0.019,-1.0032 -0.038,-2.0016 -0.058,-3"/>
     <path id="svg_108" d="m507.000006,106.333496c1.33333,0.111 2.66807,0.223 4,0.333c-1.33334,-0.111 -2.66667,-0.222 -4,-0.333"/>
     <path id="svg_109" d="m307.000006,674.695996c1.3338,-0.131 2.6662,-0.261 4,-0.392c-1.3338,0.131 -2.6662,0.262 -4,0.392"/>
     <path id="svg_110" d="m509.000006,96.500996c-0.66941,-0.001 -1.33998,-0.002 -2,-0.002c0.67174,0.002 1.33646,0.002 2,0.002"/>
     <path id="svg_111" d="m263.000006,687.720016c1.33474,-0.688 2.66666,-0.492 4,0.005c-1.33334,-0.002 -2.66808,-0.003 -4,-0.005"/>
     <path id="svg_112" d="m782.000006,629.678996c2.33373,-0.12 4.66747,-0.239 7,-0.358c-2.33253,0.119 -4.66627,0.239 -7,0.358"/>
     <path id="svg_113" d="m782.000006,612.453996c-1.33756,0.03 -2.67385,0.061 -4,0.092c1.34009,-0.03 2.67004,-0.062 4,-0.092"/>
     <path id="svg_114" d="m762.000006,592.620846c1.66666,-0.127 3.33333,-0.254 5,-0.381c-1.55459,0.977 -3.33334,0.254 -5,0.381"/>
     <path id="svg_115" d="m743.000006,594.680996c1.66709,-0.121 3.3329,-0.241 5,-0.362c-1.66581,0.121 -3.33291,0.241 -5,0.362"/>
     <path id="svg_116" d="m715.000006,612.655996c1.33333,-0.104 2.66666,-0.208 4,-0.312c-1.33334,0.104 -2.66667,0.208 -4,0.312"/>
     <path id="svg_117" d="m722.000006,612.658496c1.33333,-0.105 2.66666,-0.212 4,-0.317c-1.33334,0.105 -2.66667,0.211 -4,0.317"/>
     <path id="svg_118" d="m727.000006,611.676996c1.33294,-0.118 2.66589,-0.235 4,-0.354c-1.33295,0.118 -2.66589,0.236 -4,0.354"/>
     <path id="svg_119" d="m734.000006,577.490996c-1.00316,0.007 -2.00631,0.014 -3,0.018c1.00721,-0.008 2.0036,-0.013 3,-0.018"/>
     <path id="svg_120" d="m759.000006,632.582106c1.33333,-0.112 2.66666,-0.226 4,-0.338c-1.24421,0.874 -2.65025,0.371 -4,0.338"/>
     <path id="svg_121" d="m721.000006,552.690996c1.33254,-0.127 2.66627,-0.255 4,-0.382c-1.33373,0.127 -2.66746,0.255 -4,0.382"/>
     <path id="svg_122" d="m716.000006,536.501496c-1.00414,-0.001 -2.00689,-0.002 -3,-0.003c1.00826,0.001 2.00413,0.002 3,0.003"/>
     <path id="svg_123" d="m706.000006,538.495496c-0.66932,0.004 -1.33864,0.007 -2,0.009c0.67272,-0.003 1.33636,-0.006 2,-0.009"/>
     <path id="svg_124" d="m682.000006,541.281366c-0.33619,0.822 -2.1027,0.717 -1.99531,-0.127c0.66459,0.042 1.32917,0.085 1.99531,0.127"/>
     <path id="svg_125" d="m635.439006,544.999996c0.041,1 0.082,2.00233 0.122,3c-0.041,-1.00232 -0.081,-2.00232 -0.122,-3"/>
     <path id="svg_126" d="m772.000006,550.300596c0.99963,-0.017 2.00036,-0.033 3,-0.05c-0.98768,0.706 -1.98949,0.607 -3,0.05"/>
     <path id="svg_127" d="m734.000006,535.485996c-0.66937,0.01 -1.33874,0.02 -2,0.028c0.67284,-0.009 1.33642,-0.018 2,-0.028"/>
     <path id="svg_128" d="m708.000006,598.686496c1.33379,-0.125 2.66759,-0.249 4,-0.373c-1.3338,0.124 -2.66621,0.249 -4,0.373"/>
     <path id="svg_129" d="m692.000006,600.674496l4,-0.349l-4,0.349z"/>
     <path id="svg_130" d="m770.000006,630.687996c1.33287,-0.126 2.66712,-0.251 4,-0.376c-1.33288,0.125 -2.66713,0.25 -4,0.376"/>
     <path id="svg_131" d="m722.000006,636.708526c1.33568,-0.488 2.67136,-0.655 4,0.012c-1.33428,-0.004 -2.66714,-0.008 -4,-0.012"/>
     <path id="svg_132" d="m719.880036,498.867786l-1.88003,-0.65c2.33333,-0.029 4.66666,-0.058 7,-0.086c0.00534,0.001 -4.8512,0.757 -5.11997,0.736"/>
     <path id="svg_133" d="m702.000006,481.501496c-1.67075,-0.001 -3.3415,-0.002 -5,-0.003c1.6732,0.002 3.3366,0.003 5,0.003"/>
     <path id="svg_134" d="m639.000006,519.726996c1.66355,-0.666 3.33061,-0.536 5,-0.018c-1.66706,0.006 -3.33295,0.012 -5,0.018"/>
     <path id="svg_135" d="m740.000006,503.481996c-1.00344,0.012 -2.00688,0.024 -3,0.036c1.00687,-0.013 2.00343,-0.024 3,-0.036"/>
     <path id="svg_136" d="m719.000006,490.336496c1.66752,0.109 3.33504,0.218 5,0.327c-1.66624,-0.11 -3.33376,-0.218 -5,-0.327"/>
     <path id="svg_137" d="m698.000006,500.676996c1.66709,-0.118 3.33419,-0.235 5,-0.354c-1.66581,0.119 -3.33291,0.236 -5,0.354"/>
     <path id="svg_138" d="m711.000006,498.669496c1.33293,-0.113 2.66587,-0.226 4,-0.339c-1.33413,0.113 -2.66707,0.226 -4,0.339"/>
     <path id="svg_139" d="m700.000006,489.335996c1.33411,0.109 2.66705,0.219 4,0.328c-1.33412,-0.11 -2.66706,-0.219 -4,-0.328"/>
     <path id="svg_140" d="m681.000006,508.520996c-0.66977,-0.014 -1.33837,-0.028 -2,-0.042c0.67208,0.014 1.33604,0.028 2,0.042"/>
     <path id="svg_141" d="m702.000006,498.562496c-0.67011,-0.042 -1.33907,-0.083 -2,-0.125c0.6724,0.041 1.33563,0.083 2,0.125"/>
     <path id="svg_142" d="m689.000006,498.527496c-0.67009,-0.019 -1.34019,-0.038 -2,-0.055c0.67237,0.019 1.33561,0.037 2,0.055"/>
     <path id="svg_143" d="m725.000006,497.597476c0,0.259 3.01182,-1.055 2.99996,0.167l-2.99996,-0.167z"/>
     <path id="svg_144" d="m714.000006,481.498496c-0.67002,0.001 -1.33892,0.002 -2,0.003c0.67336,-0.001 1.33556,-0.002 2,-0.003"/>
     <path id="svg_145" d="m359.000006,434.076476c1.08287,-4.41928 0.78787,-7.8772 4.6445,-5.05311c2.11658,1.55019 5.60626,9.41238 5.34123,12.07521c-0.32618,3.28539 -1.82398,4.5943 -4.91552,3.54918c-3.55442,-1.2039 -4.96468,-7.26588 -5.07021,-10.57128"/>
     <path id="svg_146" d="m553.830056,407.246956c8.95557,0 5.04823,9.531 -2.41723,9.74436c-3.43011,0.09838 -8.36524,-0.57876 -7.25294,-5.1705c0.59406,-2.45047 9.29609,-5.75438 9.67017,-4.57386"/>
     <path id="svg_147" d="m457.774276,425.999996c6.46452,3.1278 -2.63094,16.86348 -8.50548,13.46286c-7.52219,-4.35228 5.84681,-11.50318 8.50548,-13.46286"/>
     <path id="svg_148" d="m442.043896,438.999996c2.11631,2.30815 11.65211,10.13349 6.39597,13.27957c-6.46404,3.86961 -11.38355,-8.9036 -6.39597,-13.27957"/>
     <path id="svg_149" d="m333.678286,432.999996c-2.10319,-4.06718 0.79059,-14.70953 7.2124,-12.76496c6.46215,1.95855 -3.65664,11.68521 -7.2124,12.76496"/>
     <path id="svg_150" d="m476.340276,435.343626c4.19246,-1.68788 3.39421,3.30685 4.02807,4.91704c0.71803,1.83073 4.40945,6.2879 3.48364,8.23642c-1.37426,2.89082 -4.65931,1.04756 -6.44256,-0.82828c-3.12725,-3.29056 -2.905,-8.56848 -1.06915,-12.32518"/>
     <path id="svg_151" d="m412.440286,439.972726c-3.49477,0 -11.83687,-10.07588 -6.93549,-11.76634c6.08388,-2.09791 11.17114,12.50692 6.93549,11.76634"/>
     <path id="svg_152" d="m533.208366,423.999996c3.20026,0.78936 7.43636,9.85123 2.61308,10.90209c-5.34055,1.16467 -6.29377,-8.396 -2.61308,-10.90209"/>
     <path id="svg_153" d="m513.803276,440.999996c-2.51082,-4.83403 -3.12924,-15.18195 2.9998,-6.87621c1.32792,1.79919 2.69779,1.0715 2.01585,4.03913c-0.59565,2.5915 -2.97464,2.83708 -5.01565,2.83708"/>
     <path id="svg_154" d="m381.584916,415.999996c2.55842,3.85078 1.8029,15.92649 -3.54306,8.78445c-2.2734,-3.03601 -0.7078,-8.64006 3.54306,-8.78445"/>
     <path id="svg_155" d="m510.188276,53.097876c4.96362,-1.28151 6.15386,10.42141 3.25906,11.71145c-4.05299,1.80532 -3.54508,-9.75386 -3.25906,-11.71145"/>
     <path id="svg_156" d="m824.156046,647.649126c-4.60699,-0.26946 -11.06063,-1.52564 -4.08213,-4.79562c4.42733,-2.07107 11.01058,-2.21556 15.68558,-1.36553c3.22233,0.58579 8.05774,3.25697 3.1402,6.7196c-2.87841,2.02552 -11.24414,-0.45951 -14.74365,-0.55845"/>
     <path id="svg_157" d="m818.992596,655.999996c-1.33224,-0.15036 -2.66311,-0.30072 -3.99259,-0.44946c1.06826,-1.93853 4.17132,-2.34596 3.99259,0.44946"/>
     <path id="svg_158" d="m825.000006,647.456496c1.33677,0.029 2.67354,0.059 4,0.087c-1.34064,-0.029 -2.67097,-0.058 -4,-0.087"/>
    </g>
   </g>
  </g>
 </g>
</svg>