<?xml version="1.0" encoding="utf-8"?>
<!-- Generator: Adobe Illustrator 19.2.1, SVG Export Plug-In . SVG Version: 6.00 Build 0)  -->
<svg version="1.1" id="layer" xmlns="http://www.w3.org/2000/svg" xmlns:xlink="http://www.w3.org/1999/xlink" x="0px" y="0px"
	 viewBox="0 0 652 652" style="enable-background:new 0 0 652 652;" xml:space="preserve">
<style type="text/css">
	.st0{fill-rule:evenodd;clip-rule:evenodd;fill:#FFFFFF;}
	.st1{fill:#B9D332;}
	.st2{clip-path:url(#SVGID_2_);fill:url(#SVGID_3_);}
	.st3{fill:#FFFFFF;}
	.st4{fill-rule:evenodd;clip-rule:evenodd;fill:#231F20;}
	.st5{fill-rule:evenodd;clip-rule:evenodd;fill:#2AA5DE;}
	.st6{fill-rule:evenodd;clip-rule:evenodd;fill:#0DA6DB;}
	.st7{fill-rule:evenodd;clip-rule:evenodd;fill:#F48020;}
	.st8{fill:#F48020;}
	.st9{fill:#1D76BB;}
	.st10{fill-rule:evenodd;clip-rule:evenodd;fill:#1D76BB;}
</style>
<g>
	<path class="st0" d="M58.3,339l-6-6.4c-0.2-0.3-0.5-0.4-0.6-0.5c-0.2,0-0.3,0-0.4,0.1c-0.1,0.1-0.1,0.1-0.2,0.2
		c-0.3,0.2-0.5,0.2-0.7,0.1c-0.1-0.1-0.1-0.2-0.1-0.3c0-0.1,0.1-0.2,0.3-0.3l1.2-1.2l1-0.9c0.1-0.2,0.3-0.2,0.5-0.2h0.1l8.5,2.2
		l-3.2-3.5c-0.5-0.5-0.8-0.8-1-0.9c-0.2-0.1-0.4-0.2-0.6-0.2c-0.1,0-0.3,0.1-0.6,0.3c-0.3,0.2-0.5,0.2-0.6,0.1
		c-0.1-0.1-0.1-0.2-0.1-0.3c0.1-0.1,0.1-0.2,0.3-0.4c0.1-0.1,0.3-0.3,0.6-0.5c0.3-0.2,0.5-0.3,0.6-0.4c0.3-0.2,0.5-0.5,0.7-0.8
		c0.1-0.1,0.1-0.1,0.1-0.1c0.1-0.1,0.2-0.1,0.3-0.1c0.1,0,0.2,0,0.3,0.1c0.2,0.1,0.2,0.3,0,0.5c-0.1,0.2-0.2,0.3-0.2,0.4
		c-0.1,0.1-0.1,0.3-0.1,0.5c0,0.1,0.2,0.3,0.4,0.6l0.3,0.3l7,7.5c0.2,0.2,0.3,0.4,0.3,0.5c0,0.1-0.1,0.2-0.2,0.3
		c-0.1,0.2-0.3,0.2-0.4,0.2c-0.2,0.1-0.4,0-0.6-0.1l-11-2.9l5.2,5.5c0.4,0.5,0.7,0.7,0.9,0.8c0.2,0.1,0.4,0.1,0.6,0
		c0.1,0,0.2-0.1,0.4-0.2c0.3-0.2,0.5-0.3,0.6-0.1c0.1,0.1,0.1,0.2,0.1,0.3c0,0-0.1,0.2-0.3,0.4l-0.7,0.7l-1.2,1.2
		c-0.1,0.1-0.2,0.2-0.3,0.2c-0.1,0-0.1,0-0.2-0.1c-0.1-0.1-0.2-0.3,0-0.5c0-0.1,0.1-0.2,0.1-0.2c0.2-0.3,0.2-0.5,0.2-0.7
		c0-0.1-0.1-0.3-0.4-0.5L58.3,339z M63,322.7l5.9,7.6c0.3,0.3,0.4,0.6,0.4,0.7c0.1,0.2,0,0.3-0.2,0.5c0,0,0,0-0.1,0.1
		c-0.2,0.2-0.2,0.4-0.1,0.5c0,0.1,0.1,0.1,0.2,0.1c0.1,0,0.2,0,0.3-0.1l1.8-1.4l1.6-1.3c0.2-0.1,0.3-0.2,0.3-0.3
		c0.1-0.1,0-0.2,0-0.3c-0.1-0.2-0.3-0.2-0.6,0c-0.1,0-0.1,0.1-0.2,0.1c-0.1,0-0.3,0-0.4-0.1c-0.2,0-0.3-0.3-0.6-0.6l-5.9-7.6
		c-0.3-0.3-0.4-0.5-0.3-0.6c0-0.1,0.2-0.3,0.5-0.5c0.5-0.3,1.1-0.2,1.9,0.3c0.1,0,0.1,0,0.2,0.1c0.1,0.1,0.2,0.2,0.3,0.2
		c0.6,0.4,1,0.5,1.1,0.4c0.1-0.1,0.1-0.2,0.1-0.3c0-0.1-0.1-0.2-0.2-0.4c-0.6-0.8-1-1.4-1.3-2c-0.3-0.4-0.5-0.7-0.5-0.8
		C67.1,317,67,317,67,317c-0.1-0.1-0.2,0-0.2,0.1c0,0-0.1,0.2-0.2,0.5c-0.1,0.4-0.3,0.8-0.7,1l-4.3,3.3l-0.5,0.3
		c-0.1,0.1-0.2,0.1-0.4,0.2h-0.4h-0.2c-0.2-0.1-0.4-0.1-0.5,0.1c-0.2,0.2-0.1,0.6,0.2,1.2c0.1,0.2,0.1,0.3,0.2,0.3
		c0.3,0.5,0.5,0.9,0.7,1.3c0.3,0.4,0.4,0.7,0.6,0.9c0.1,0.1,0.2,0.1,0.2,0.2c0.1,0,0.2-0.1,0.3-0.1c0.1-0.1,0.2-0.4,0-0.9
		c-0.1-0.4-0.1-0.8-0.2-1c-0.1-0.5-0.1-0.9,0-1.2c0.1-0.3,0.2-0.6,0.5-0.7c0.1-0.1,0.2-0.2,0.3-0.2c0.1,0,0.1,0,0.2,0.1
		c0,0,0,0,0.1,0.1C62.9,322.5,62.9,322.6,63,322.7 M76,321.3c0.1-0.1,0.2-0.1,0.3-0.2c0.1-0.1,0.1-0.1,0-0.2c0-0.1-0.1-0.1-0.1-0.2
		c-0.1-0.1-0.1-0.1-0.2-0.2l-2.4-2.2l0.7,3c0,0.2,0.1,0.3,0.1,0.4c0,0,0,0.2,0,0.2c0.1,0.1,0.1,0.1,0.2,0.1c0.1,0,0.2,0,0.3-0.1
		L76,321.3z M74.6,325.7l-2.4-10.5c0,0,0-0.1,0-0.2c-0.1-0.4,0.1-0.8,0.5-1c0.2-0.1,0.4-0.1,0.5-0.1c0.1,0,0.2,0.1,0.4,0.2l8.5,8.1
		c0,0,0,0,0.1,0c0.3,0.3,0.6,0.4,0.9,0.3h0.5c0.1,0.1,0.2,0.1,0.3,0.2c0,0.1,0.1,0.2,0,0.3c0,0.1-0.1,0.2-0.2,0.2l-1.1,0.7l-2.5,1.3
		l-0.2,0.1c-0.2,0.2-0.4,0.2-0.5,0.2c-0.1,0-0.2-0.1-0.2-0.1c-0.1-0.2,0-0.4,0.3-0.8l0.1-0.1c0.1-0.1,0.1-0.2,0.1-0.2
		c0-0.1,0-0.2-0.1-0.3c0,0,0-0.1-0.1-0.1h0l-1.8-1.8c-0.1-0.1-0.1-0.1-0.2-0.1c-0.1-0.1-0.1,0-0.2,0l-2,1.2
		c-0.1,0.1-0.2,0.1-0.2,0.2c0,0.1,0,0.1,0,0.2l0.4,1.5c0,0.2,0.1,0.3,0.1,0.4c0,0.1,0.1,0.2,0.1,0.3c0.1,0.2,0.3,0.3,0.4,0.4
		c0.2,0.1,0.4,0.1,0.6,0c0.1,0,0.3-0.1,0.4-0.1c0.3-0.1,0.5,0,0.6,0.1c0.1,0.1,0.1,0.2,0,0.3c0,0-0.1,0.1-0.3,0.3l-2.4,1.3
		c-0.1,0.1-0.2,0.1-0.3,0.1c-0.1-0.1-0.1-0.1-0.2-0.2c-0.1-0.1,0-0.4,0.2-0.7l0-0.1c0.1-0.2,0.1-0.3,0.2-0.6
		C74.7,326.4,74.7,326.1,74.6,325.7 M80.1,312.4l3.8,8.6c0.2,0.3,0.3,0.7,0.3,0.8c0,0.2-0.2,0.4-0.3,0.5c0,0.1-0.1,0.1-0.1,0.1
		c-0.3,0.2-0.4,0.4-0.3,0.5c0,0.1,0.1,0.2,0.1,0.2c0.1,0,0.2-0.1,0.3-0.1c0.2-0.1,0.6-0.3,1.3-0.7c0.7-0.3,1.3-0.6,1.8-0.8l3.5-1.6
		c0.4-0.2,0.6-0.3,0.7-0.4c0.1-0.1,0-0.3-0.1-0.5l-1.1-2.6c-0.2-0.3-0.3-0.5-0.4-0.5c-0.1-0.1-0.2-0.1-0.4,0
		c-0.3,0.1-0.4,0.7-0.3,1.5c0,0.2,0.1,0.4,0.1,0.5c0.1,0.5,0,1-0.2,1.3c-0.2,0.3-0.5,0.7-1,0.9c-0.4,0.2-0.6,0.2-0.8,0.1
		c-0.2-0.1-0.4-0.5-0.7-1.2l-3.5-7.9c-0.2-0.4-0.2-0.7-0.2-0.8c0-0.1,0.1-0.3,0.3-0.4c0-0.1,0.1-0.1,0.1-0.1
		c0.2-0.2,0.3-0.3,0.2-0.5c0-0.1-0.1-0.2-0.2-0.2c-0.1,0-0.2,0.1-0.4,0.1c0,0-0.1,0.1-0.2,0.1c-0.5,0.3-1.1,0.5-1.6,0.8
		c-0.6,0.3-1.2,0.5-1.8,0.8c-0.2,0.1-0.3,0.1-0.3,0.1c-0.2,0.1-0.2,0.1-0.3,0.2c-0.1,0.1-0.1,0.2,0,0.2c0.1,0.2,0.3,0.3,0.6,0.2
		c0.1-0.1,0.2-0.1,0.3-0.1c0.2,0,0.3,0.1,0.4,0.2C79.8,311.8,80,312.1,80.1,312.4 M103.1,305.2c0.1,0.1,0.1,0.1,0.1,0.2
		c0,0.1,0.1,0.2,0.1,0.3c0.1,0.3,0.1,0.4,0.1,0.5c-0.1,0.1-0.1,0.1-0.3,0.2c-0.2,0-0.3,0-0.5-0.1c-0.1-0.1-0.3-0.2-0.5-0.4
		c-0.1-0.1-0.2-0.3-0.3-0.4c-0.8-1.1-1.5-1.6-2-1.5c-0.7,0.2-1.1,0.9-1.2,2c-0.1,1.1,0,2.6,0.5,4.6c0.4,1.7,0.9,3,1.6,3.9
		c0.7,1,1.3,1.3,2,1.2c0.4-0.1,0.7-0.3,0.9-0.7c0.2-0.4,0.3-1,0.4-2c0-0.2,0-0.3,0-0.6c0-0.7,0.2-1.1,0.5-1.2c0.2,0,0.3,0,0.4,0.1
		c0.1,0.1,0.2,0.2,0.2,0.5c0.2,0.8,0.3,1.4,0.4,1.9c0.1,0.4,0.1,0.9,0,1.1c-0.1,0.3-0.4,0.5-0.8,0.9c-0.5,0.3-1.1,0.4-1.7,0.7
		c-1.7,0.3-3.2,0.1-4.5-0.9c-1.3-1-2.2-2.4-2.6-4.4c-0.5-2-0.3-3.6,0.5-5.1c0.8-1.5,2-2.5,3.7-2.9c0.5-0.1,1-0.2,1.4-0.2
		c0.5,0.1,0.8,0.1,1.1,0.3c0.1,0,0.1,0.1,0.2,0.2c0,0.1,0.1,0.3,0.2,0.7L103.1,305.2z M106.1,308.5c-0.2-2,0.1-3.6,0.9-5.1
		c0.8-1.4,2-2.1,3.5-2.3c0.7-0.1,1.4,0,2.1,0.2c0.7,0.2,1.4,0.6,1.9,1.1c0.7,0.6,1.2,1.3,1.6,2.1c0.4,0.8,0.7,1.6,0.8,2.6
		c0.2,1.1,0.1,2,0,2.8c-0.2,0.8-0.5,1.5-0.9,2.3c-0.4,0.5-0.9,1.1-1.5,1.5c-0.6,0.4-1.3,0.7-1.9,0.7c-0.7,0.1-1.4,0-2.1-0.2
		c-0.7-0.2-1.3-0.6-1.9-1.1c-0.6-0.5-1.2-1.3-1.6-2.1C106.5,310.3,106.3,309.4,106.1,308.5 M110.5,301.9c-0.5,0.1-0.9,0.5-1.1,1.4
		c-0.3,0.9-0.3,2-0.1,3.4c0.3,2.1,0.7,3.8,1.3,5.1c0.6,1.3,1.3,2,1.9,1.9c0.5-0.1,0.9-0.6,1.2-1.4c0.2-0.9,0.2-2.1,0-3.5
		c-0.2-2.1-0.7-3.9-1.3-5C111.8,302.4,111.2,301.8,110.5,301.9 M120.1,302.5c0-0.3,0-0.5-0.1-0.7c-0.1-0.2-0.1-0.3-0.3-0.4h-0.3
		c-0.3-0.1-0.5-0.2-0.5-0.5c0-0.1,0-0.2,0.1-0.2c0.1-0.1,0.2-0.1,0.4-0.1c0,0,0.1,0.1,0.3,0.1c0.7,0.1,1.4,0.1,1.9,0.1h1.8h0.2
		c0.2,0,0.3,0,0.4,0.1c0.1,0,0.2,0.1,0.2,0.2c-0.1,0.2-0.2,0.3-0.4,0.4c-0.1,0-0.1,0.1-0.1,0.1c-0.2,0-0.3,0.1-0.4,0.2
		c-0.1,0.2-0.1,0.4-0.1,0.9l-0.2,8.5c0,0.8,0.1,1.2,0.2,1.4c0.1,0.2,0.4,0.2,0.8,0.2c0.5,0,0.9-0.1,1.3-0.3c0.3-0.2,0.5-0.7,0.7-1.1
		c0-0.2,0.1-0.3,0.2-0.6c0.2-0.9,0.5-1.3,0.9-1.3c0.1,0,0.3,0,0.3,0.2c0.1,0.1,0.1,0.3,0.1,0.7l0,2.8c0,0.3-0.1,0.5-0.2,0.6
		c-0.1,0.1-0.4,0.1-0.8,0.1l-3.8-0.1h-2h-1.4h-0.3c0-0.1-0.1-0.1-0.1-0.2c0-0.2,0.2-0.3,0.5-0.4c0.1-0.1,0.1-0.1,0.1-0.1
		c0.3,0,0.4-0.1,0.5-0.3c0.1-0.2,0.1-0.4,0.1-0.8L120.1,302.5z M131.1,303c0.1-0.3,0.1-0.6,0-0.7c0-0.2-0.1-0.3-0.2-0.4
		c-0.1,0-0.1,0-0.3-0.1c-0.3-0.1-0.5-0.2-0.5-0.4c0-0.1,0.1-0.2,0.2-0.2h0.3h0.3c0.7,0.1,1.4,0.2,2,0.3c0.6,0,1.2,0.1,1.8,0.2
		c0.1,0.1,0.2,0.1,0.2,0.1c0.2,0,0.3,0,0.4,0.1c0,0,0.1,0.1,0.1,0.2c0,0.2-0.2,0.3-0.4,0.3c0,0.1-0.1,0.1-0.1,0.1
		c-0.2,0-0.3,0.1-0.4,0.2c-0.1,0.2-0.2,0.5-0.2,0.9l-1.1,8.5c-0.1,0.8-0.1,1.3,0,1.4c0.1,0.2,0.4,0.3,0.8,0.4c0.5,0.1,0.9,0,1.3-0.2
		c0.4-0.2,0.6-0.6,0.8-1c0.1-0.2,0.1-0.3,0.2-0.6c0.3-0.9,0.7-1.2,1-1.2c0.2,0,0.3,0.1,0.3,0.2c0,0.1,0,0.3,0,0.7l-0.4,2.9
		c0,0.3-0.1,0.5-0.2,0.5c-0.1,0.1-0.4,0.1-0.8,0l-3.8-0.5c-0.6,0-1.3-0.1-2-0.2c-0.8-0.1-1.2-0.1-1.4-0.1c-0.1,0-0.3,0-0.3-0.1
		c-0.1,0-0.1-0.1-0.1-0.2c0-0.2,0.2-0.3,0.5-0.3h0.1c0.2,0,0.4-0.1,0.5-0.2c0.1-0.1,0.2-0.4,0.2-0.8L131.1,303z M148.4,304.2
		c0.6,0.2,0.8,0.5,0.7,1c0,0.1-0.1,0.2-0.1,0.3l-0.3,1.5l-0.1,0.2c-0.1,0.3-0.1,0.5-0.2,0.6c-0.1,0.1-0.2,0.2-0.4,0.1
		c-0.3,0-0.4-0.4-0.6-0.9c0-0.1,0-0.2-0.1-0.3c-0.1-0.6-0.3-1.1-0.6-1.5c-0.3-0.4-0.7-0.6-1.2-0.7c-0.2,0-0.4,0-0.5,0.1
		c-0.1,0.1-0.2,0.3-0.3,0.6L144,309h0.2c0.1,0,0.2,0.1,0.2,0.1c0.4,0.1,0.7,0.1,0.9,0.1c0.2-0.1,0.4-0.2,0.5-0.3
		c0.1-0.1,0.2-0.3,0.3-0.5c0.2-0.4,0.4-0.6,0.7-0.6c0.1,0,0.2,0.1,0.2,0.2c0.1,0.1,0,0.4-0.1,0.7l-0.7,2.9c-0.1,0.5-0.2,0.7-0.2,0.8
		c-0.1,0.1-0.2,0.2-0.4,0.1c-0.2,0-0.3-0.3-0.4-0.8c-0.1-0.4-0.1-0.7-0.1-0.9c-0.1-0.3-0.2-0.4-0.3-0.5c-0.1-0.2-0.4-0.3-0.7-0.3
		l-0.3-0.1l-0.9,3.8c-0.1,0.8-0.2,1.3-0.1,1.4c0.1,0.2,0.3,0.3,0.8,0.4c0.5,0.2,1,0.1,1.3,0c0.4-0.2,0.7-0.5,1-1
		c0.1-0.1,0.1-0.3,0.3-0.5c0.4-0.8,0.8-1.1,1.2-1c0.2,0,0.3,0.1,0.3,0.2c0.1,0.1,0,0.3-0.1,0.7l-0.6,2.6c-0.1,0.3-0.2,0.5-0.3,0.5
		c-0.2,0.1-0.4,0.1-0.9-0.1l-3.9-0.9c-0.6-0.2-1.2-0.3-2-0.4c-0.7-0.1-1.2-0.2-1.4-0.3c-0.2,0-0.3-0.1-0.3-0.1c0-0.1-0.1-0.1,0-0.2
		c0.1-0.2,0.2-0.3,0.6-0.3h0.1c0.2,0,0.4,0,0.5-0.2c0.1-0.1,0.3-0.4,0.3-0.8l2.1-9.2c0.1-0.3,0.1-0.6,0.1-0.8c0-0.1-0.1-0.2-0.2-0.3
		c0,0-0.1-0.1-0.3-0.2c-0.3-0.1-0.5-0.3-0.4-0.5c0-0.1,0.1-0.2,0.1-0.2c0.1,0,0.2,0,0.4,0.1L148.4,304.2z M155.6,315.9
		c0.1-0.3,0.2-0.6,0.2-0.7c0-0.2,0-0.3-0.1-0.4c0,0-0.1,0-0.2-0.1c-0.3-0.2-0.4-0.3-0.3-0.5c0-0.1,0.1-0.2,0.2-0.2
		c0.1,0,0.3,0,0.4,0.1c0,0,0.1,0,0.2,0.1c0.5,0.3,1.1,0.5,1.6,0.7c0.6,0.2,1.2,0.4,1.8,0.6c0.1,0.1,0.2,0.1,0.3,0.1
		c0.1,0.1,0.2,0.1,0.3,0.2c0.1,0.1,0.1,0.1,0,0.2c-0.1,0.2-0.3,0.3-0.5,0.2h-0.2c-0.2,0-0.4,0-0.5,0.1c-0.1,0.1-0.3,0.3-0.4,0.8
		l-0.9,2.3c-0.1,0.2-0.2,0.4-0.4,0.6c-0.1,0.2-0.3,0.3-0.5,0.3c-0.4,0.1-0.9,0.2-1.5,0.1c-0.6,0-1.2-0.1-1.8-0.4
		c-1.6-0.6-2.7-1.6-3.2-3.2c-0.5-1.5-0.4-3.2,0.3-5c0.7-1.9,1.8-3.2,3.3-4c1.5-0.8,3-0.9,4.5-0.4c0.6,0.2,1.1,0.5,1.6,0.9
		c0.4,0.3,0.8,0.6,0.9,0.9c0,0.1,0,0.2,0,0.3c0,0.2-0.1,0.3-0.1,0.6l-0.3,1.1c0,0.1-0.1,0.1-0.1,0.2c0,0.1-0.1,0.1-0.1,0.3
		c-0.1,0.3-0.2,0.4-0.3,0.5h-0.4c-0.2-0.1-0.3-0.2-0.4-0.3c-0.1-0.2-0.1-0.4-0.1-0.7c0-0.1,0-0.2,0-0.4c-0.1-1.5-0.4-2.4-1.1-2.6
		c-0.7-0.3-1.4,0-2.2,0.9c-0.7,0.9-1.5,2.2-2.2,4.1c-0.6,1.6-0.9,3-0.9,4.1c0,1.2,0.3,1.9,0.9,2.1c0.3,0.1,0.5,0.1,0.7-0.1
		c0.2-0.2,0.4-0.6,0.6-1.1L155.6,315.9z M171.7,314.2l-6.1-3.3c-0.2-0.1-0.3-0.2-0.4-0.2c-0.1,0-0.1,0.1-0.2,0.2
		c-0.1,0.2,0,0.3,0.2,0.6c0.1,0.1,0.2,0.2,0.2,0.3c0.1,0.1,0.1,0.3,0.1,0.4c0,0.2-0.1,0.4-0.3,0.7l-4.6,8.2
		c-0.2,0.4-0.4,0.7-0.5,0.7c-0.1,0-0.3,0-0.6,0c0,0,0,0-0.1,0c-0.3-0.1-0.5-0.1-0.6,0.1c-0.1,0-0.1,0.2,0,0.2c0,0.1,0.1,0.2,0.2,0.2
		c0.1,0.1,0.6,0.3,1.2,0.6c0.7,0.3,1.3,0.7,1.8,1l3.4,1.9c0.5,0.3,0.7,0.4,0.9,0.3c0.1,0,0.3-0.1,0.5-0.4l1.3-2.4
		c0.2-0.2,0.2-0.4,0.2-0.5c0-0.1-0.1-0.2-0.2-0.3c-0.3-0.2-0.8,0-1.4,0.7c-0.1,0.2-0.3,0.3-0.4,0.4c-0.4,0.3-0.8,0.6-1.2,0.7
		c-0.4,0.1-0.9,0-1.4-0.3c-0.4-0.2-0.5-0.4-0.6-0.6c0-0.2,0.1-0.7,0.5-1.4l1.9-3.4l0.3,0.2c0.3,0.2,0.5,0.3,0.6,0.5
		c0.1,0.2,0.1,0.4,0.1,0.7c0,0.2-0.1,0.5-0.1,0.9c-0.1,0.5-0.1,0.8,0.1,0.9c0.1,0.1,0.3,0.1,0.4,0c0.1-0.1,0.3-0.3,0.5-0.7l1.5-2.6
		c0.2-0.3,0.3-0.6,0.3-0.7c0-0.1,0-0.2-0.2-0.3c-0.2-0.1-0.5,0-0.7,0.3c-0.2,0.2-0.4,0.3-0.5,0.4c-0.2,0.2-0.4,0.2-0.6,0.2
		c-0.2,0-0.5-0.1-0.8-0.3c-0.1,0-0.1-0.1-0.2-0.1c-0.1-0.1-0.1-0.1-0.2-0.1l1.9-3.5c0.2-0.3,0.3-0.4,0.4-0.5c0.1,0,0.3,0,0.4,0.1
		c0.5,0.2,0.8,0.6,1,1c0.2,0.4,0.3,1,0.2,1.6c0,0.1,0,0.1,0,0.2c-0.1,0.7,0,1,0.3,1.1c0.1,0.1,0.3,0.1,0.4,0
		c0.1-0.1,0.3-0.2,0.4-0.5l0.1-0.2l0.7-1.3c0-0.1,0.1-0.2,0.2-0.3C172.4,314.9,172.3,314.5,171.7,314.2 M178,327.9
		c0.1,0.1,0.2,0.2,0.3,0.2c0.1,0,0.1,0,0.2-0.1c0-0.1,0.1-0.1,0.1-0.2c0.1,0,0.1-0.1,0.1-0.2l1.2-3.1l-2.6,1.8
		c-0.1,0.1-0.2,0.2-0.3,0.2c-0.1,0.1-0.1,0.1-0.2,0.1c0,0.1-0.1,0.2,0,0.2c0,0.1,0.1,0.2,0.2,0.2L178,327.9z M173.4,328.3l8.8-6.4
		c0,0,0,0,0.1-0.1c0.4-0.3,0.8-0.3,1.1,0.1c0.2,0.1,0.3,0.3,0.4,0.3c0,0.1,0,0.3-0.1,0.4l-4.1,11c0,0,0,0.1,0,0.1
		c-0.1,0.4-0.1,0.7,0.1,0.9c0.1,0.2,0.2,0.3,0.2,0.5c0,0.1,0,0.2-0.1,0.3c-0.1,0.1-0.2,0.1-0.2,0.1c-0.1,0-0.2,0-0.3-0.1l-1-0.8
		l-2.3-1.8l-0.1-0.1c-0.3-0.2-0.4-0.3-0.4-0.3c0-0.1,0-0.2,0.1-0.3c0.1-0.1,0.4-0.1,0.9,0c0,0.1,0.1,0.1,0.1,0.1
		c0.1,0.1,0.1,0.1,0.3,0c0.1-0.1,0.1-0.1,0.2-0.2c0,0,0.1-0.1,0.1-0.1s0-0.1,0-0.1l0.9-2.3c0-0.1,0.1-0.2,0-0.2c0,0-0.1-0.1-0.2-0.2
		l-1.8-1.4c-0.1,0-0.2-0.1-0.3-0.1c0,0-0.1,0.1-0.1,0.1l-1.4,1c-0.1,0.1-0.2,0.2-0.3,0.2c-0.1,0.1-0.1,0.2-0.2,0.2
		c-0.1,0.2-0.2,0.3-0.2,0.6c0,0.1,0.1,0.3,0.2,0.5c0.1,0.1,0.1,0.2,0.3,0.4c0.2,0.2,0.3,0.4,0.1,0.6c-0.1,0.1-0.2,0.2-0.3,0.2
		c-0.1,0-0.2-0.1-0.3-0.2l-2.2-1.7c-0.1-0.1-0.2-0.2-0.2-0.3c0-0.1,0-0.2,0.1-0.3c0.1-0.1,0.4-0.2,0.8-0.1h0c0.2,0,0.4-0.1,0.6-0.1
		C172.8,328.6,173.1,328.5,173.4,328.3"/>
	<path class="st1" d="M110.6,225.9h12.8h2.3v2.2v13.2c1.3,0.2,2.6,0.3,3.9,0.5c1.3,0.2,2.6,0.4,3.9,0.7l4.1-12.6l0.7-2.1l2.2,0.7
		l12.1,3.9l2.1,0.8l-0.7,2.1l-4.1,12.6c1.2,0.5,2.4,1.1,3.5,1.7c1.2,0.6,2.3,1.2,3.5,1.9l7.8-10.7l1.3-1.9l1.8,1.4l10.3,7.5l1.9,1.3
		l-1.3,1.9l-7.8,10.7c1,0.9,2,1.8,2.8,2.7c0.9,0.9,1.8,1.9,2.7,2.9l10.7-7.8l1.8-1.3l1.3,1.9l7.5,10.3l1.4,1.8l-1.8,1.4l-10.7,7.7
		c0.7,1.1,1.3,2.4,1.9,3.4c0.6,1.2,1.2,2.4,1.7,3.6l12.6-4.1l2.1-0.7l0.7,2.1l3.9,12.2l0.7,2.1l-2.1,0.7l-12.6,4.1
		c0.3,1.3,0.5,2.6,0.7,3.9c0.2,1.3,0.4,2.6,0.5,3.8H210h2.3v2.3v12.8v2.3H210h-13.2c-0.1,1.3-0.3,2.6-0.5,3.9
		c-0.2,1.3-0.4,2.6-0.7,3.9l12.6,4.1l2.1,0.8l-0.7,2.1l-3.9,12.2l-0.7,2.2l-2.1-0.8l-12.6-4c-0.5,1.2-1.1,2.4-1.7,3.5
		c-0.6,1.2-1.2,2.4-1.9,3.5l10.7,7.8l1.8,1.3l-1.4,1.9l-7.5,10.3l-1.3,1.8l-1.8-1.3l-10.7-7.8c-0.9,1-1.8,2-2.7,2.9
		c-0.9,0.9-1.8,1.9-2.8,2.7l7.8,10.8l1.3,1.8l-1.9,1.4l-10.3,7.5l-1.8,1.3l-1.3-1.8l-7.8-10.7c-1.2,0.7-2.3,1.3-3.5,1.9
		c-1.1,0.6-2.3,1.2-3.5,1.7l4.1,12.6l0.7,2.2l-2.1,0.7l-12.1,4l-2.2,0.7l-0.7-2.1l-4.1-12.6c-1.3,0.3-2.6,0.6-3.9,0.7
		c-1.3,0.2-2.6,0.4-3.9,0.5v13.3v2.3h-2.3h-12.8h-2.3v-2.3v-13.3c-1.3-0.1-2.6-0.3-3.9-0.5c-1.3-0.2-2.6-0.5-3.9-0.7l-4.1,12.6
		l-0.7,2.1l-2.2-0.7l-12.1-4l-2.2-0.7l0.7-2.2l4.1-12.6c-1.2-0.6-2.4-1.1-3.5-1.7c-1.2-0.5-2.3-1.2-3.5-1.9l-7.8,10.7l-1.3,1.8
		l-1.8-1.3l-10.4-7.5l-1.8-1.4l1.3-1.8l7.8-10.8c-1-0.9-1.9-1.8-2.8-2.7c-0.9-0.9-1.8-1.9-2.7-2.9l-10.7,7.8l-1.8,1.3l-1.4-1.8
		L36.2,372l-1.3-1.9l1.8-1.3l10.7-7.8c-0.6-1.2-1.3-2.3-1.9-3.5c-0.6-1.1-1.1-2.3-1.7-3.5l-12.6,4l-2.2,0.8l-0.7-2.2l-3.9-12.2
		l-0.7-2.1l2.2-0.8l12.6-4.1c-0.3-1.3-0.5-2.5-0.7-3.9c-0.2-1.3-0.4-2.6-0.5-3.9H24h-2.2v-2.3v-12.8v-2.3H24h13.3
		c0.1-1.2,0.3-2.5,0.5-3.8c0.2-1.3,0.4-2.6,0.7-3.9l-12.6-4.1l-2.2-0.7l0.7-2.1l3.9-12.2l0.7-2.1l2.2,0.7l12.6,4.1
		c0.6-1.2,1.1-2.4,1.7-3.6c0.6-1.1,1.2-2.3,1.9-3.4l-10.7-7.7l-1.8-1.4l1.3-1.8l7.5-10.3l1.4-1.9l1.8,1.3l10.7,7.8
		c0.9-1,1.8-1.9,2.7-2.9c0.9-0.9,1.9-1.8,2.8-2.7L55.3,251l-1.3-1.9l1.8-1.3l10.4-7.5l1.8-1.4l1.3,1.9l7.8,10.7
		c1.2-0.7,2.3-1.3,3.5-1.9c1.2-0.6,2.4-1.2,3.6-1.7L80,235.3l-0.7-2.1l2.2-0.8l12.1-3.9l2.2-0.7l0.7,2.1l4.1,12.6
		c1.2-0.2,2.5-0.4,3.9-0.7c1.3-0.2,2.6-0.4,3.9-0.5v-13.2v-2.2H110.6z M121.1,230.4h-8.3v13v2.1l-2.1,0.2c-2,0.2-3.9,0.4-5.7,0.7
		c-1.8,0.3-3.6,0.7-5.5,1.1l-2,0.5l-0.6-2l-4-12.4l-7.9,2.5l4,12.4l0.7,2l-1.9,0.8c-1.7,0.8-3.4,1.5-5.2,2.4
		c-1.7,0.9-3.3,1.8-4.9,2.7l-1.8,1.1l-1.2-1.6L67,245.3l-6.7,4.8l7.7,10.5l1.2,1.8l-1.6,1.3c-1.4,1.2-2.8,2.5-4.2,3.8
		c-1.4,1.4-2.7,2.8-3.9,4.2l-1.4,1.6l-1.7-1.2L46,264.4l-4.9,6.7l10.6,7.6l1.7,1.3l-1.1,1.8c-1,1.5-1.9,3.2-2.8,4.9
		c-0.9,1.6-1.7,3.4-2.4,5.2l-0.8,1.9l-2-0.6l-12.4-4l-2.6,7.8l12.4,4l2,0.7l-0.5,2c-0.5,1.9-0.8,3.7-1.1,5.5
		c-0.3,1.8-0.5,3.7-0.7,5.6l-0.2,2.1h-2.1h-13v8.3h13h2.1l0.2,2.1c0.2,2,0.4,3.9,0.7,5.6c0.3,1.8,0.6,3.7,1.1,5.5l0.5,2l-2,0.6
		l-12.4,4.1l2.6,7.9l12.4-4.1l2-0.7l0.8,2c0.7,1.7,1.5,3.4,2.4,5.2c0.9,1.6,1.8,3.3,2.8,4.9l1.1,1.8l-1.7,1.2l-10.6,7.7l4.9,6.7
		l10.5-7.7l1.7-1.2l1.4,1.5c1.2,1.4,2.5,2.8,3.9,4.1c1.4,1.4,2.8,2.7,4.2,3.9l1.6,1.4l-1.2,1.6L60.3,392l6.7,4.9l7.7-10.5l1.2-1.7
		l1.8,1.1c1.6,1,3.2,1.9,4.9,2.8c1.7,0.9,3.4,1.7,5.2,2.4l1.9,0.8l-0.7,1.9l-4,12.4l7.9,2.6l4-12.3l0.6-2l2,0.5
		c1.9,0.4,3.7,0.8,5.5,1.1c1.8,0.3,3.7,0.6,5.7,0.7l2.1,0.2v2.1v13h8.3v-13v-2.1l2.1-0.2c1.9-0.1,3.8-0.4,5.6-0.7
		c1.8-0.3,3.7-0.7,5.6-1.1l2-0.5l0.6,2l4.1,12.3l7.8-2.6l-4-12.4l-0.6-1.9l1.9-0.8c1.7-0.7,3.5-1.5,5.1-2.4c1.7-0.9,3.4-1.8,5-2.8
		l1.8-1.1l1.2,1.7l7.7,10.5l6.7-4.9l-7.7-10.5l-1.2-1.6l1.6-1.4c1.4-1.2,2.8-2.5,4.2-3.9c1.4-1.3,2.7-2.7,3.9-4.1l1.3-1.5l1.7,1.2
		l10.6,7.7l4.9-6.7l-10.6-7.7l-1.7-1.2l1.1-1.8c1-1.6,1.9-3.3,2.8-4.9c0.9-1.8,1.7-3.5,2.4-5.2l0.8-2l2,0.7l12.4,4.1l2.6-7.9
		l-12.4-4.1l-2-0.6l0.5-2c0.5-1.9,0.8-3.7,1.1-5.5c0.3-1.8,0.5-3.7,0.7-5.6l0.2-2.1h2.1h13.1v-8.3h-13.1h-2.1l-0.2-2.1
		c-0.2-1.9-0.4-3.9-0.7-5.6c-0.3-1.8-0.6-3.7-1.1-5.5l-0.5-2l2-0.7l12.4-4l-2.6-7.8l-12.4,4l-2,0.6l-0.8-1.9
		c-0.7-1.8-1.5-3.5-2.4-5.2c-0.9-1.8-1.8-3.4-2.8-4.9l-1.1-1.8l1.7-1.3l10.6-7.6l-4.9-6.7l-10.6,7.7l-1.7,1.2l-1.3-1.6
		c-1.2-1.4-2.5-2.8-3.9-4.2c-1.4-1.3-2.8-2.6-4.2-3.8l-1.6-1.3l1.2-1.8l7.7-10.5l-6.7-4.8l-7.7,10.5l-1.2,1.6l-1.8-1.1
		c-1.6-0.9-3.3-1.9-5-2.7c-1.7-0.9-3.4-1.6-5.1-2.4l-1.9-0.8l0.6-2l4-12.4l-7.8-2.5l-4.1,12.4l-0.6,2l-2-0.5
		c-1.9-0.4-3.8-0.8-5.6-1.1c-1.8-0.3-3.7-0.5-5.6-0.7l-2.1-0.2v-2.1V230.4z"/>
</g>
<g>
	<defs>
		<path id="SVGID_1_" d="M110.6,228.1v15.3c-3.9,0.3-7.8,0.9-11.5,1.8l-4.7-14.5l-12.2,3.9l4.7,14.5c-3.6,1.5-7.1,3.3-10.4,5.3
			l-9-12.4l-10.3,7.6l9,12.3c-3,2.6-5.7,5.3-8.3,8.3l-12.4-9L38,271.6l12.4,9c-2,3.3-3.8,6.8-5.3,10.4l-14.5-4.7l-4,12.2l14.6,4.7
			c-0.9,3.7-1.5,7.6-1.8,11.5H24v12.8h15.3c0.4,3.9,1,7.8,1.8,11.6l-14.6,4.7l4,12.2l14.5-4.7c1.5,3.6,3.3,7,5.3,10.4l-12.4,9
			l7.5,10.4l12.4-9c2.6,2.9,5.3,5.7,8.3,8.2l-9,12.4l10.3,7.5l9-12.4c3.3,2,6.8,3.8,10.4,5.3l-4.7,14.6l12.2,3.9l4.7-14.5
			c3.8,0.9,7.6,1.5,11.5,1.8v15.3h12.8v-15.3c3.9-0.3,7.8-0.9,11.5-1.8l4.7,14.5l12.2-3.9l-4.7-14.6c3.6-1.5,7.1-3.3,10.4-5.3
			l9,12.4l10.3-7.5l-9-12.4c2.9-2.5,5.7-5.3,8.2-8.2l12.4,9l7.5-10.4l-12.4-9c2-3.3,3.8-6.8,5.3-10.4l14.6,4.7l3.9-12.2l-14.5-4.7
			c0.9-3.8,1.5-7.6,1.8-11.6H210v-12.8h-15.3c-0.3-4-0.9-7.8-1.8-11.5l14.5-4.7l-3.9-12.2l-14.6,4.7c-1.5-3.6-3.3-7.1-5.3-10.4
			l12.4-9l-7.5-10.3l-12.4,9c-2.5-3-5.3-5.7-8.2-8.3l9-12.3l-10.3-7.6l-9,12.4c-3.3-2-6.8-3.8-10.4-5.3l4.7-14.5l-12.2-3.9
			l-4.7,14.5c-3.7-0.9-7.6-1.5-11.5-1.8v-15.3H110.6z"/>
	</defs>
	<clipPath id="SVGID_2_">
		<use xlink:href="#SVGID_1_"  style="overflow:visible;"/>
	</clipPath>
	
		<radialGradient id="SVGID_3_" cx="-294.122" cy="788.4175" r="10.4984" gradientTransform="matrix(12.5268 0 0 -12.5268 3801.3882 10197.416)" gradientUnits="userSpaceOnUse">
		<stop  offset="0" style="stop-color:#8ED7F7"/>
		<stop  offset="0.2714" style="stop-color:#57B2E2"/>
		<stop  offset="0.5" style="stop-color:#2590CF"/>
		<stop  offset="0.5395" style="stop-color:#2489C8"/>
		<stop  offset="0.8476" style="stop-color:#205997"/>
		<stop  offset="1" style="stop-color:#1E4684"/>
	</radialGradient>
	<rect x="24" y="228.1" class="st2" width="186" height="186"/>
</g>
<g>
	<path class="st0" d="M76,376.5l3.4-4.7l0.6,0.5l-1.7,2.3l4-0.6l0.8,0.6l-3.3,0.4l0.1,4.3l-0.8-0.6l0-3.6l-1.3,0.2l-1.2,1.6
		L76,376.5z M80.5,379.4l0.6,0.3l1.2-2c0.3-0.5,0.5-0.7,0.8-0.8c0.3-0.1,0.6,0,0.8,0.2c0.1,0.1,0.3,0.1,0.4,0.4
		c0.1,0.1,0.1,0.2,0.1,0.4c0,0.1-0.1,0.3-0.3,0.5l-1.3,2.3l0.6,0.3l1.3-2.2c0.2-0.3,0.3-0.4,0.3-0.6c0.1-0.2,0.1-0.4,0.1-0.5
		c0-0.2-0.1-0.4-0.2-0.5c-0.1-0.2-0.3-0.4-0.5-0.5c-0.5-0.3-1-0.3-1.5-0.1l0.3-0.5l-0.5-0.3L80.5,379.4z M85.1,379.6
		c0.4-0.7,0.8-1.1,1.4-1.2c0.5-0.1,0.9,0,1.4,0.2c0.5,0.2,0.9,0.7,1,1.2c0.1,0.5,0.1,1-0.2,1.6c-0.2,0.5-0.5,0.8-0.8,1
		c-0.3,0.2-0.6,0.3-1,0.3c-0.4,0-0.7-0.1-1-0.3c-0.5-0.3-0.9-0.6-1-1.1C84.8,380.8,84.8,380.2,85.1,379.6 M85.8,380
		c-0.3,0.4-0.3,0.9-0.3,1.2c0.1,0.3,0.3,0.6,0.6,0.8c0.3,0.1,0.6,0.2,1,0c0.3-0.1,0.6-0.4,0.9-0.9c0.2-0.6,0.3-0.9,0.2-1.2
		c-0.1-0.4-0.3-0.7-0.6-0.8c-0.3-0.2-0.7-0.2-1-0.1C86.3,379.1,86,379.4,85.8,380 M89.1,384l0.3-4.4l0.7,0.2l-0.2,2.5l-0.1,1
		c0-0.1,0.2-0.3,0.5-0.7l1.5-2.1l0.7,0.3l-0.3,2.5l-0.1,0.8l0.5-0.7l1.5-2l0.6,0.3l-2.7,3.4l-0.7-0.2l0.3-2.6l0.1-0.7l-2,2.7
		L89.1,384z M93.9,385.8l0.7,0.3l2-5.5l-0.7-0.2L93.9,385.8z M98.7,385.9l0.7,0.3c-0.2,0.4-0.5,0.6-0.9,0.8c-0.4,0.1-0.8,0.1-1.3,0
		c-0.6-0.2-1-0.4-1.3-0.9c-0.2-0.5-0.3-1-0.1-1.7c0.1-0.7,0.5-1.2,1-1.4c0.4-0.3,1-0.3,1.5-0.2c0.5,0.2,0.9,0.4,1.2,0.9
		c0.3,0.5,0.3,1,0.1,1.7c0,0-0.1,0.1-0.1,0.2l-3-0.9c-0.1,0.5-0.1,0.9,0.1,1.1c0.2,0.3,0.4,0.5,0.8,0.6c0.3,0.1,0.5,0,0.7-0.1
		C98.3,386.3,98.5,386.1,98.7,385.9 M96.8,384.1l2.3,0.7c0-0.4,0-0.7-0.1-0.9c-0.2-0.3-0.4-0.6-0.8-0.6c-0.3-0.1-0.6-0.1-0.9,0.1
		C97.1,383.6,96.8,383.8,96.8,384.1 M102.6,388.2l0.1-0.5c-0.3,0.3-0.8,0.4-1.3,0.3c-0.3-0.1-0.6-0.3-0.8-0.5
		c-0.2-0.2-0.4-0.5-0.5-0.9c-0.1-0.4-0.1-0.7,0.1-1.1c0.1-0.4,0.2-0.8,0.5-1.1c0.2-0.2,0.5-0.4,0.8-0.5c0.3-0.1,0.6-0.1,0.9-0.1
		c0.3,0.1,0.4,0.2,0.7,0.3c0.1,0.2,0.3,0.3,0.3,0.5l0.5-2l0.7,0.1l-1.4,5.7L102.6,388.2z M100.9,385.6c-0.2,0.6-0.2,0.9,0,1.3
		c0.1,0.3,0.4,0.6,0.7,0.6c0.3,0.1,0.6,0,0.9-0.1c0.3-0.2,0.5-0.6,0.6-1.1c0.1-0.5,0.1-1,0-1.3c-0.2-0.3-0.4-0.5-0.7-0.5
		c-0.3-0.1-0.6,0-0.9,0.2C101.2,384.7,101,385.1,100.9,385.6 M104.2,388.9c-0.1,0.5,0,0.8,0.3,1c0.3,0.3,0.6,0.4,1.1,0.6
		c0.4,0.1,0.8,0.1,1.1,0c0.3-0.1,0.6-0.3,0.7-0.6c0.2-0.2,0.3-0.6,0.4-1.3l0.6-3.6l-0.6-0.1l-0.1,0.5c-0.2-0.5-0.6-0.8-1.1-0.9
		c-0.4,0-0.7,0-1,0.1c-0.3,0.2-0.6,0.4-0.8,0.7c-0.2,0.3-0.3,0.7-0.4,1.1c-0.1,0.6,0,1.1,0.2,1.5c0.2,0.5,0.7,0.8,1.2,0.9
		c0.5,0.1,0.9,0,1.2-0.3c-0.1,0.4-0.1,0.8-0.2,0.9c-0.1,0.2-0.3,0.4-0.5,0.5c-0.2,0-0.5,0-0.8,0c-0.3,0-0.5-0.1-0.7-0.3
		c-0.1-0.1-0.1-0.3-0.1-0.6L104.2,388.9z M105.2,386.6c0.1-0.6,0.2-0.9,0.5-1.1c0.3-0.2,0.5-0.3,0.8-0.2c0.3,0,0.6,0.2,0.8,0.5
		c0.2,0.3,0.2,0.7,0.1,1.2c-0.1,0.6-0.3,0.9-0.5,1.1c-0.3,0.2-0.6,0.3-0.9,0.3c-0.3-0.1-0.6-0.3-0.8-0.5
		C105.1,387.5,105.1,387,105.2,386.6 M111.8,388.1l0.7,0.1c-0.1,0.4-0.4,0.8-0.7,1c-0.3,0.2-0.7,0.3-1.3,0.2c-0.6,0-1.1-0.2-1.4-0.7
		c-0.3-0.4-0.5-1-0.4-1.6c0.1-0.7,0.3-1.2,0.7-1.6c0.4-0.4,0.9-0.5,1.4-0.5c0.6,0.1,1,0.3,1.3,0.7c0.3,0.4,0.4,0.9,0.4,1.7
		c0,0,0,0,0,0.2l-3.1-0.3c0,0.4,0.1,0.7,0.3,1.1c0.2,0.2,0.5,0.4,0.9,0.4c0.3,0,0.5,0,0.7-0.2C111.5,388.6,111.6,388.4,111.8,388.1
		 M109.6,386.7l2.3,0.2c0-0.4-0.1-0.6-0.2-0.8c-0.2-0.3-0.5-0.5-0.8-0.5c-0.3,0-0.6,0.1-0.9,0.3
		C109.7,386.1,109.6,386.3,109.6,386.7 M119.7,387.6l0.8,0.2c-0.1,0.7-0.5,1.1-0.8,1.4c-0.4,0.4-0.9,0.5-1.5,0.5
		c-0.6,0.1-1.1-0.1-1.6-0.3c-0.4-0.3-0.7-0.6-0.9-1c-0.2-0.6-0.3-1-0.4-1.6c0-0.6,0.1-1.2,0.3-1.6c0.3-0.4,0.6-0.8,1-1.1
		c0.4-0.2,0.9-0.3,1.4-0.4c0.6,0,1,0.2,1.5,0.4c0.4,0.3,0.7,0.7,0.9,1.2l-0.7,0.2c-0.2-0.4-0.4-0.7-0.6-0.9c-0.2-0.2-0.6-0.3-1-0.2
		c-0.5,0-0.8,0.1-1.1,0.3c-0.3,0.2-0.5,0.5-0.6,0.9c-0.1,0.3-0.1,0.8-0.1,1.1c0,0.6,0.1,0.9,0.3,1.3c0.1,0.3,0.4,0.7,0.7,0.8
		c0.3,0.2,0.6,0.3,1,0.2c0.4,0,0.8-0.1,1.1-0.3C119.4,388.4,119.6,388.1,119.7,387.6 M121,387.4c-0.1-0.8,0.1-1.4,0.5-1.8
		c0.3-0.3,0.7-0.5,1.3-0.5c0.6-0.1,1.1,0.1,1.5,0.4c0.4,0.3,0.6,0.8,0.7,1.5c0.1,0.5,0,1-0.1,1.3c-0.1,0.3-0.4,0.6-0.6,0.8
		c-0.3,0.2-0.6,0.3-1,0.4c-0.6,0.1-1.1-0.1-1.5-0.4C121.2,388.6,121,388.1,121,387.4 M121.7,387.3c0.1,0.5,0.2,1,0.5,1.2
		c0.2,0.2,0.6,0.3,0.9,0.3c0.4,0,0.6-0.2,0.8-0.4c0.2-0.3,0.3-0.8,0.3-1.3c0-0.5-0.2-0.9-0.5-1.1c-0.3-0.3-0.5-0.4-0.9-0.3
		c-0.4,0-0.7,0.2-0.9,0.5C121.7,386.4,121.7,386.8,121.7,387.3 M125.9,389.2l-0.8-4.1l0.6-0.2l0.1,0.7c0.2-0.5,0.6-0.9,1.2-1h0.7
		c0.2,0.1,0.4,0.2,0.6,0.3c0.1,0.2,0.2,0.3,0.3,0.5c0.1,0.1,0.1,0.3,0.2,0.7l0.5,2.5l-0.7,0.1l-0.5-2.5c-0.1-0.3-0.1-0.5-0.2-0.6
		c-0.1-0.1-0.2-0.2-0.4-0.3c-0.2,0-0.3-0.1-0.5,0c-0.3,0.1-0.5,0.2-0.7,0.4c-0.2,0.2-0.2,0.6-0.1,1.1l0.4,2.3L125.9,389.2z
		 M133.3,389.3l-0.5-2c-0.1,0.1-0.2,0.3-0.4,0.5c-0.2,0.2-0.4,0.2-0.6,0.3c-0.5,0.1-0.9,0-1.4-0.3c-0.4-0.3-0.7-0.8-0.9-1.5
		c-0.1-0.4-0.1-0.8,0-1.1c0.1-0.4,0.2-0.7,0.4-0.9c0.3-0.3,0.5-0.4,0.9-0.5c0.5-0.1,0.9,0,1.3,0.4l-0.1-0.5l0.6-0.2l1.3,5.7
		L133.3,389.3z M130.3,386.2c0.1,0.5,0.3,0.9,0.6,1.1c0.3,0.2,0.6,0.3,0.9,0.2c0.3-0.1,0.5-0.3,0.7-0.5c0.2-0.3,0.2-0.8,0.1-1.3
		c-0.1-0.5-0.3-0.9-0.6-1.2c-0.3-0.2-0.6-0.3-0.9-0.2c-0.3,0.1-0.5,0.3-0.7,0.5C130.2,385.2,130.2,385.7,130.3,386.2 M137.4,386.6
		l0.7-0.2l-1.3-4l-0.7,0.2l0.7,2.1c0.1,0.3,0.1,0.7,0.1,0.9c0,0.2-0.1,0.3-0.3,0.6c-0.1,0.1-0.3,0.2-0.5,0.3h-0.6
		c-0.2-0.1-0.3-0.2-0.4-0.3c-0.1-0.2-0.2-0.4-0.3-0.8l-0.7-2.2l-0.7,0.2l0.8,2.4c0.1,0.3,0.2,0.5,0.2,0.7c0.1,0.2,0.2,0.3,0.4,0.4
		c0.1,0.1,0.3,0.2,0.6,0.2c0.2,0,0.5,0,0.7-0.1c0.5-0.2,0.9-0.5,1-1L137.4,386.6z M141.2,383.8l0.7-0.2c0.1,0.4,0,0.8-0.2,1.2
		c-0.2,0.3-0.5,0.5-1,0.8c-0.5,0.2-1.1,0.2-1.6,0.1c-0.5-0.2-0.9-0.6-1.1-1.3c-0.3-0.7-0.3-1.2-0.1-1.8c0.2-0.4,0.5-0.9,1.1-1.1
		c0.5-0.2,1-0.2,1.5,0c0.5,0.2,0.9,0.7,1.1,1.3c0,0,0,0.1,0,0.1l-2.9,1.2c0.2,0.4,0.5,0.7,0.7,0.8c0.3,0.2,0.6,0.2,1,0
		c0.3-0.1,0.5-0.2,0.5-0.4C141.2,384.4,141.2,384.1,141.2,383.8 M138.6,383.6l2.2-0.9c-0.2-0.3-0.3-0.5-0.5-0.6
		c-0.3-0.2-0.7-0.2-1-0.1c-0.3,0.1-0.5,0.3-0.6,0.7C138.5,383,138.5,383.3,138.6,383.6 M143.3,384.5l0.7-0.3l-0.9-2
		c-0.1-0.3-0.2-0.5-0.2-0.7c-0.1-0.2,0-0.4,0.1-0.6c0.1-0.1,0.2-0.2,0.3-0.3c0.2-0.1,0.4-0.1,0.6-0.1l0-0.7c-0.3-0.1-0.5,0-0.8,0.1
		c-0.1,0.1-0.2,0.2-0.3,0.3c-0.1,0.2-0.1,0.4-0.2,0.8l-0.2-0.6l-0.6,0.3L143.3,384.5z M145,382.5l0.6-0.4c0.2,0.2,0.4,0.4,0.6,0.4
		c0.2,0,0.5,0,0.8-0.2c0.3-0.1,0.4-0.3,0.5-0.4c0.1-0.2,0.1-0.4,0-0.5c-0.1-0.2-0.2-0.2-0.4-0.3c-0.1,0-0.4,0.1-0.8,0.2
		c-0.5,0.1-0.9,0.2-1.1,0.2c-0.2,0-0.4-0.1-0.6-0.2c-0.2-0.1-0.3-0.3-0.4-0.4c-0.1-0.2-0.1-0.4-0.1-0.6c0-0.2,0-0.3,0.1-0.5
		c0.1-0.1,0.1-0.2,0.3-0.4c0.1-0.2,0.3-0.3,0.5-0.4c0.3-0.1,0.6-0.2,0.8-0.3c0.2-0.1,0.5,0,0.7,0.1c0.2,0.1,0.4,0.3,0.5,0.5
		l-0.6,0.4c-0.2-0.2-0.3-0.2-0.5-0.3c-0.2,0-0.4,0-0.6,0.1c-0.3,0.2-0.5,0.3-0.5,0.5c-0.1,0.2-0.1,0.3,0,0.4c0,0.1,0.1,0.1,0.2,0.2
		c0.1,0.1,0.2,0.1,0.3,0.1c0.1,0,0.3-0.1,0.6-0.1c0.5-0.1,0.9-0.2,1.1-0.2c0.2,0,0.4,0,0.6,0.1c0.2,0.1,0.3,0.2,0.4,0.4
		c0.1,0.2,0.2,0.4,0.1,0.7c0,0.3-0.1,0.6-0.3,0.8c-0.1,0.2-0.4,0.4-0.7,0.6c-0.5,0.2-0.9,0.3-1.3,0.3
		C145.5,383,145.2,382.8,145,382.5 M150.5,381.1l-1.3-6l0.7-0.4l5.2,3.6l-0.8,0.5l-1.5-1.1l-2,1.3l0.4,1.8L150.5,381.1z
		 M150.6,378.2l1.6-1.1l-1.4-1c-0.4-0.3-0.7-0.6-1-0.8c0.1,0.4,0.2,0.7,0.3,1.2L150.6,378.2z M155.6,377.9l0.6-0.4l-3.4-4.7
		l-0.6,0.4L155.6,377.9z M157,376.8l0.6-0.4l-3.4-4.7l-0.6,0.4L157,376.8z"/>
	<path class="st3" d="M50.7,345l3.9-1.9l0.1,0.3c-0.9,0.7-1.5,1.4-1.8,2.3c-0.3,0.9-0.3,1.8,0.1,2.5c0.3,0.7,0.6,1,1.1,1.2
		c0.5,0.2,0.9,0.2,1.3,0c0.2-0.1,0.5-0.2,0.6-0.4c0.2-0.3,0.4-0.7,0.5-1.2c0.1-0.3,0.1-1.1,0.2-2.3c0-1.7,0.3-2.9,0.6-3.6
		c0.4-0.8,1-1.3,1.8-1.7c1-0.4,2-0.4,3,0c1,0.5,1.8,1.3,2.3,2.5c0.2,0.4,0.3,0.7,0.4,1.1c0.1,0.4,0.1,0.8,0.1,1.4
		c0,0.3,0.1,0.6,0.1,0.8c0.1,0.2,0.2,0.3,0.4,0.4c0.2,0.1,0.5,0.2,0.7,0.2l0.1,0.3l-4.5,2l-0.1-0.4c1.2-0.8,1.8-1.7,2.2-2.7
		c0.3-1.1,0.3-2-0.1-2.9c-0.3-0.6-0.7-1-1.2-1.3c-0.5-0.3-1-0.3-1.5,0c-0.3,0.1-0.5,0.3-0.7,0.6c-0.2,0.3-0.3,0.6-0.4,1
		c-0.1,0.4-0.2,1-0.2,2c0,1.3-0.1,2.2-0.3,2.8c-0.1,0.7-0.4,1.2-0.8,1.6c-0.3,0.4-0.8,0.8-1.3,1c-0.9,0.4-1.9,0.4-2.8,0.1
		c-1-0.4-1.7-1.1-2.2-2.2c-0.2-0.3-0.3-0.8-0.4-1.2c0-0.3-0.1-0.7,0-1.1c0-0.4,0-0.8-0.1-0.9c-0.1-0.1-0.2-0.3-0.3-0.3
		c-0.1-0.1-0.4-0.1-0.8,0L50.7,345z M57,330.9l0.9,4.4l1.3,0.3c0.4,0.1,0.8,0.1,1,0c0.4-0.1,0.6-0.3,0.7-0.6c0.1-0.2,0.1-0.7,0-1.3
		l0.4-0.1l0.9,4.2l-0.3,0c-0.1-0.4-0.4-0.8-0.8-1c-0.4-0.2-1.1-0.4-2.1-0.7l-11-2.4l0-0.1l9.3-6.7c0.9-0.7,1.4-1.1,1.6-1.5
		c0.2-0.2,0.2-0.5,0.2-0.9l0.4-0.1l1.2,6.1l-0.3,0.1l0-0.2c-0.1-0.5-0.3-0.9-0.5-1c-0.1-0.1-0.3-0.2-0.4-0.1c-0.1,0-0.3,0-0.4,0.1
		c0,0-0.2,0.2-0.6,0.4L57,330.9z M56.4,331.4l-3.9,2.8l4.7,1L56.4,331.4z M47.2,312.6l-0.1,4.2h0.4c0-0.4,0-0.8,0.2-1.1
		c0.1-0.2,0.2-0.3,0.3-0.4c0.2-0.1,0.3-0.1,0.5-0.1c0.2,0,0.4,0.1,0.6,0.1c0.3,0.1,0.7,0.3,1.4,0.7l5.6,2.7l-6.5,2.5
		c-0.7,0.3-1.1,0.4-1.2,0.5c-0.2,0-0.3,0.1-0.4,0.1c-0.2-0.1-0.3-0.1-0.4-0.3c-0.1-0.2-0.2-0.6-0.2-1.1v-0.2H47l-0.2,6.2h0.4
		c0.1-0.5,0.2-0.8,0.5-1c0.2-0.2,1-0.6,2.2-1l10.3-4.1l0-0.3l-9.7-4.8c-1.1-0.5-1.8-0.9-2.2-1.3c-0.4-0.3-0.6-0.8-0.7-1.2
		L47.2,312.6z M49.5,304.6l5.1,1.2l0.1-0.2c0.2-0.8,0.1-1.4-0.3-1.9c-0.4-0.5-1.1-0.9-2-1.3l0.1-0.3l6.5,1.6l-0.1,0.4
		c-0.7-0.1-1.3-0.1-1.9,0.1c-0.5,0.1-0.9,0.3-1.1,0.5c-0.2,0.3-0.4,0.7-0.6,1.3l3.5,0.9c0.7,0.2,1.1,0.2,1.3,0.2
		c0.2,0,0.3-0.1,0.5-0.2c0.2-0.1,0.3-0.4,0.3-0.8l0.2-0.7c0.3-1.1,0.3-2.1-0.1-3c-0.4-0.9-1-1.5-2.1-2.1L59,300l3.8,1.5l-2.7,10.8
		l-0.3-0.1l0.1-0.4c0.1-0.4,0.1-0.7,0-0.9c0-0.2-0.2-0.3-0.3-0.5c-0.1-0.1-0.5-0.2-1.1-0.4l-8.2-2c-0.6-0.2-0.9-0.2-1.1-0.2
		c-0.2,0-0.4,0.1-0.5,0.2c-0.3,0.2-0.4,0.5-0.5,0.9l-0.1,0.4l-0.3-0.1l2.6-10.4l3.7,0.9l-0.1,0.3c-1,0-1.6,0.1-2.1,0.3
		c-0.5,0.2-0.9,0.6-1.2,1.2c-0.2,0.3-0.4,0.9-0.7,1.9L49.5,304.6z M54.9,289.7l0.7-1.2c0.4-0.8,0.8-1.4,1.1-1.7
		c0.4-0.5,0.9-0.7,1.4-0.8c0.5-0.1,1.2,0,2.1,0.3l0.2-0.3l-3.4-1.8l-5,9.4l0.3,0.2l0.2-0.4c0.2-0.4,0.4-0.6,0.7-0.8
		c0.2-0.1,0.4-0.1,0.6-0.1c0.1,0,0.4,0.2,1,0.4l7.5,4c0.6,0.3,0.9,0.6,1,0.7c0.2,0.2,0.3,0.4,0.3,0.5c0,0.3-0.1,0.5-0.3,0.9
		l-0.2,0.5l0.3,0.1l5.2-9.8l-3.3-2.4l-0.2,0.3c0.9,0.8,1.4,1.7,1.5,2.6c0.1,0.9-0.1,1.9-0.6,3l-0.4,0.7c-0.2,0.3-0.3,0.6-0.5,0.7
		c-0.2,0.1-0.3,0.1-0.5,0.1c-0.2,0-0.6-0.2-1.2-0.5l-3.2-1.7c0.3-0.5,0.6-0.9,0.9-1.2c0.3-0.2,0.7-0.3,1.2-0.3
		c0.5,0,1.1,0.2,1.8,0.4l0.2-0.3l-6-3.1l-0.2,0.3c0.8,0.5,1.4,1.1,1.7,1.7c0.3,0.6,0.2,1.2-0.2,1.9l-0.1,0.2L54.9,289.7z
		 M67.3,270.9l2.6,2.3l-0.2,0.2c-0.7-0.3-1.3-0.5-1.7-0.6c-0.4-0.1-0.9,0.1-1.3,0.2c-0.2,0.1-0.6,0.4-1,0.8l-0.6,0.8l7.5,6.5
		c0.5,0.4,0.8,0.7,1,0.7c0.2,0.1,0.4,0.1,0.6-0.1c0.3-0.1,0.5-0.2,0.7-0.5l0.3-0.3l0.3,0.2l-4.4,5.1l-0.3-0.2l0.3-0.3
		c0.3-0.3,0.4-0.5,0.4-0.8c0-0.2,0-0.4-0.1-0.6c0-0.2-0.3-0.5-0.8-0.9l-7.4-6.5l-0.6,0.7c-0.6,0.7-0.8,1.3-0.8,1.8
		c0,0.8,0.3,1.5,1,2.2l-0.2,0.2l-2.7-2.2L67.3,270.9z M78.3,270.4l3.7-2.6l2.3,3.2c0.3,0.5,0.5,0.9,0.6,1.1c0,0.2,0,0.4-0.1,0.6
		c-0.1,0.2-0.3,0.5-0.6,0.7l-0.4,0.3l0.2,0.3l5.5-3.8l-0.2-0.3l-0.4,0.3c-0.3,0.2-0.5,0.3-0.8,0.3c-0.3,0-0.4-0.1-0.6-0.1
		c-0.1-0.1-0.4-0.4-0.8-1l-4.8-6.9c-0.4-0.5-0.6-0.9-0.7-1c0-0.3,0-0.4,0.1-0.7c0.1-0.2,0.3-0.4,0.6-0.7l0.3-0.2l-0.2-0.3l-5.5,3.8
		l0.2,0.3l0.3-0.2c0.3-0.2,0.6-0.3,0.8-0.3c0.2,0,0.4,0,0.6,0.1c0.1,0,0.4,0.3,0.8,0.9l2.1,3l-3.8,2.6l-2.1-3
		c-0.4-0.5-0.6-0.9-0.6-1c-0.1-0.2,0-0.4,0.1-0.6c0.1-0.2,0.3-0.5,0.6-0.7l0.4-0.2l-0.2-0.3l-5.5,3.8l0.2,0.3l0.4-0.3
		c0.3-0.2,0.6-0.3,0.8-0.3c0.2-0.1,0.4,0.1,0.6,0.1c0.1,0.1,0.4,0.4,0.8,0.9l4.9,6.9c0.3,0.6,0.5,0.9,0.6,1c0,0.3,0,0.4-0.1,0.6
		c-0.1,0.2-0.3,0.4-0.6,0.7l-0.4,0.2l0.2,0.3l5.5-3.8l-0.2-0.3l-0.3,0.2c-0.3,0.2-0.6,0.3-0.8,0.3c-0.3,0.1-0.5,0-0.6-0.1
		c-0.1-0.1-0.4-0.4-0.8-0.9L78.3,270.4z M96.1,263.5l-4.2,1.7l-0.1,1.4c0,0.4,0.1,0.8,0.1,1c0.1,0.3,0.3,0.6,0.7,0.6
		c0.2,0.1,0.6,0,1.3-0.2l0.1,0.3l-4,1.5l-0.1-0.3c0.4-0.2,0.7-0.6,0.9-0.9c0.2-0.4,0.3-1.2,0.3-2.2l0.6-11.2h0.2l8.1,8.1
		c0.8,0.8,1.3,1.2,1.7,1.4c0.3,0.1,0.6,0.1,1,0l0.1,0.3l-5.8,2.3l-0.1-0.3l0.2-0.1c0.5-0.1,0.8-0.3,0.9-0.6c0.1-0.2,0.1-0.3,0.1-0.5
		c-0.1-0.1-0.1-0.2-0.2-0.3c-0.1-0.1-0.2-0.3-0.6-0.6L96.1,263.5z M95.5,262.9l-3.4-3.4l-0.2,4.8L95.5,262.9z M112.2,250.4l6.6,0.2
		v0.3h-0.3c-0.5,0-0.8,0-1,0.1c-0.2,0.1-0.4,0.2-0.4,0.4c-0.1,0.2-0.1,0.7-0.1,1.3l-0.1,6.4c0,1.1,0.1,1.9,0.3,2.2
		c0.2,0.4,0.4,0.7,0.8,0.9c0.4,0.2,0.9,0.5,1.5,0.5c0.7,0,1.3-0.2,1.8-0.5c0.5-0.3,0.9-0.8,1.1-1.3c0.3-0.5,0.4-1.5,0.4-2.9l0.1-5.3
		c0-0.5,0-1-0.1-1.2c-0.1-0.2-0.3-0.4-0.5-0.5c-0.3-0.2-0.7-0.3-1.2-0.3l0-0.3l4.4,0.1v0.4h-0.3c-0.4,0-0.6,0-0.9,0.2
		c-0.3,0.2-0.5,0.4-0.6,0.7c-0.1,0.2-0.1,0.6-0.1,1.1l-0.1,4.9c0,1.5-0.1,2.6-0.4,3.2c-0.2,0.7-0.7,1.3-1.5,1.8
		c-0.8,0.5-1.8,0.9-3.2,0.8c-1.1-0.1-1.9-0.2-2.5-0.5c-0.8-0.4-1.4-1-1.7-1.6c-0.3-0.6-0.5-1.5-0.5-2.6l0.1-6.2c0-0.8,0-1.2-0.1-1.4
		c-0.1-0.2-0.3-0.3-0.5-0.4c-0.2-0.1-0.5-0.1-1.1-0.1V250.4z M133.5,252.5l4.1,9.3l1.4-5.3c0.2-0.8,0.2-1.3,0.1-1.6
		c-0.2-0.4-0.6-0.8-1.3-0.9l0.1-0.3l4.1,1.1l-0.1,0.3c-0.5-0.1-0.9-0.1-1.1,0c-0.2,0-0.4,0.2-0.5,0.4c-0.2,0.2-0.4,0.6-0.5,1.2
		l-2.8,10.4l-0.3-0.1l-5.6-12.6l-2.1,7.9c-0.2,0.7-0.2,1.2,0.1,1.6c0.3,0.4,0.6,0.5,1,0.7h0.3l-0.1,0.3l-4.4-1.1l0.1-0.4
		c0.7,0.2,1.2,0.2,1.5,0c0.3-0.2,0.6-0.6,0.8-1.3l2.4-8.7l-0.2-0.4c-0.2-0.4-0.3-0.7-0.5-0.8c-0.2-0.2-0.4-0.3-0.8-0.4l0.1-0.4
		L133.5,252.5z M145.4,270.6l-0.4-0.2c-0.3-0.2-0.5-0.3-0.7-0.6c-0.1-0.2-0.2-0.4-0.2-0.5c0-0.2,0.2-0.6,0.5-1.2l3.8-7.5
		c0.3-0.5,0.5-0.9,0.6-1c0.2-0.2,0.4-0.3,0.6-0.3c0.3,0,0.5,0.1,0.9,0.3l0.3,0.2l0.2-0.3l-5.9-3l-0.2,0.3l0.4,0.2
		c0.3,0.2,0.6,0.3,0.7,0.5c0.1,0.2,0.2,0.4,0.2,0.6c0,0.2-0.2,0.5-0.5,1.1l-3.8,7.5c-0.3,0.7-0.5,1-0.6,1.1
		c-0.2,0.1-0.4,0.2-0.6,0.2c-0.3,0-0.5-0.1-0.9-0.2l-0.4-0.2l-0.2,0.3l6,3L145.4,270.6z M164.7,269l-0.2,0.3
		c-0.4-0.2-0.9-0.3-1.4-0.2c-0.4,0.1-1.2,0.4-2.3,1l-9.5,5l-0.2-0.2l2.8-10.8c0.4-1.3,0.5-2.1,0.5-2.4c0-0.3-0.2-0.6-0.6-0.9
		l0.2-0.3l4.8,3.8l-0.2,0.2l-0.2-0.1c-0.4-0.3-0.8-0.5-1-0.5c-0.2,0-0.3,0.1-0.4,0.2c-0.1,0.1-0.1,0.2-0.2,0.3
		c-0.1,0.2-0.2,0.7-0.4,1.3l-1.8,6.7l5.5-2.9c0.7-0.3,1.1-0.6,1.3-0.8c0.2-0.1,0.3-0.3,0.4-0.4c0.1-0.2,0.2-0.3,0.2-0.5
		c0-0.2,0-0.4-0.1-0.5c-0.1-0.2-0.4-0.5-0.7-0.8l0.2-0.3L164.7,269z M169.9,275.6l0.8,1c0.6,0.8,1,1.3,1.1,1.7
		c0.2,0.6,0.3,1.1,0.2,1.6c-0.1,0.5-0.5,1.1-1.1,1.9l0.2,0.3l3-2.4l-6.8-8.4l-0.3,0.2l0.3,0.3c0.3,0.4,0.4,0.6,0.4,0.9
		c0,0.2,0,0.4-0.2,0.6c-0.1,0.1-0.4,0.3-0.8,0.7l-6.6,5.3c-0.5,0.4-0.8,0.6-1,0.7c-0.2,0.1-0.4,0.1-0.6,0c-0.2-0.1-0.5-0.3-0.7-0.6
		l-0.3-0.3l-0.2,0.2l7,8.7l3.5-2.1l-0.2-0.3c-1.1,0.4-2.1,0.6-2.9,0.4c-0.9-0.2-1.7-0.8-2.5-1.7l-0.4-0.6c-0.3-0.3-0.4-0.5-0.4-0.7
		c0-0.2,0-0.4,0.1-0.5c0.1-0.2,0.4-0.4,0.9-0.9l2.8-2.3c0.4,0.5,0.6,0.9,0.7,1.3c0.1,0.3,0,0.8-0.2,1.2c-0.2,0.5-0.6,1-1.1,1.5
		l0.2,0.3l5.2-4.2l-0.2-0.3c-0.9,0.6-1.6,0.8-2.2,0.8c-0.6,0.1-1.2-0.2-1.7-0.9l-0.2-0.2L169.9,275.6z M172.8,291.3l-3.2,1.6
		c-0.6,0.3-1,0.6-1.1,0.7c-0.1,0.2-0.2,0.3-0.2,0.7c0,0.2,0.1,0.5,0.4,1.1l-0.3,0.2l-3-5.9l0.3-0.1c0.3,0.5,0.5,0.8,0.7,1
		c0.2,0.1,0.4,0.2,0.6,0.2c0.2,0,0.6-0.2,1.2-0.5l7.4-3.7c0.6-0.3,1-0.5,1.1-0.8c0.1-0.1,0.1-0.3,0.1-0.5c0-0.3-0.1-0.7-0.4-1.1
		l0.3-0.2l2.7,5.3c0.7,1.4,1.2,2.5,1.3,3.2c0.1,0.7,0,1.5-0.3,2.1c-0.3,0.7-0.8,1.2-1.5,1.5c-0.9,0.4-1.7,0.5-2.6,0.1
		c-0.6-0.2-1.1-0.6-1.6-1.2l-2.5,4.7c-0.3,0.6-0.5,1-0.5,1.2c-0.1,0.3,0,0.7,0.1,1l-0.3,0.1l-1.9-3.6l3.3-6.4L172.8,291.3z
		 M178.4,288.5l-5,2.5l0.2,0.5c0.4,0.8,0.8,1.3,1.1,1.6c0.3,0.3,0.8,0.5,1.2,0.5c0.5,0.1,1-0.1,1.6-0.4c0.9-0.4,1.5-0.9,1.7-1.5
		c0.2-0.7,0.1-1.4-0.4-2.3L178.4,288.5z M186.4,307.9l0-0.3c-0.4,0-0.7,0-0.8-0.1c-0.1-0.1-0.2-0.2-0.2-0.3c-0.1-0.2,0-0.5,0.1-0.9
		c0.1-0.5,0.2-0.9,0.2-1.2c0-0.4-0.1-0.8-0.1-1.2c-0.3-1.1-0.8-1.9-1.7-2.5c-0.9-0.6-1.8-0.7-2.8-0.4c-0.6,0.1-1.1,0.3-1.5,0.8
		c-0.4,0.3-0.8,0.8-1,1.4c-0.3,0.6-0.6,1.5-0.9,2.7c-0.2,0.9-0.4,1.6-0.6,2c-0.2,0.3-0.4,0.7-0.6,0.9c-0.2,0.2-0.5,0.3-0.8,0.4
		c-0.5,0.1-1,0-1.5-0.3c-0.4-0.3-0.8-0.8-0.9-1.5c-0.2-0.9-0.1-1.7,0.5-2.7c0.5-0.9,1.4-1.7,2.6-2.2l-0.1-0.4l-4.7,1.1l0.1,0.4
		c0.3,0,0.5,0.1,0.7,0.3c0.2,0.2,0.3,0.3,0.3,0.5c0,0.2,0,0.4,0,0.7c-0.1,0.6-0.1,1-0.1,1.4c0,0.3,0,0.7,0.1,1.1
		c0.3,1.3,0.9,2.2,1.8,2.8c1,0.7,1.9,0.9,3,0.6c0.8-0.2,1.5-0.6,2-1.3c0.5-0.7,1-1.8,1.4-3.4c0.3-1.2,0.5-2,0.6-2.3
		c0.2-0.5,0.4-0.8,0.7-1.1c0.2-0.2,0.4-0.3,0.7-0.4c0.4-0.1,0.9,0,1.3,0.3c0.4,0.3,0.7,0.8,0.9,1.4c0.2,0.8,0,1.6-0.4,2.5
		c-0.5,0.9-1.2,1.5-2.2,1.9l0.1,0.4L186.4,307.9z M174.7,319.5h-0.3l-0.6-6.7h0.3l0.1,0.4c0,0.4,0.1,0.7,0.3,0.9
		c0.1,0.2,0.3,0.3,0.5,0.4h1.2l8.4-0.8c0.7-0.1,1.1-0.1,1.2-0.2c0.1-0.1,0.3-0.2,0.4-0.4c0.1-0.2,0.1-0.6,0.1-0.9l-0.1-0.4h0.4
		l0.6,6.7h-0.4l-0.1-0.4c0-0.3-0.1-0.7-0.3-0.9c-0.1-0.1-0.3-0.2-0.5-0.3c-0.2-0.1-0.6-0.1-1.2,0l-8.4,0.8c-0.7,0-1.1,0.1-1.2,0.2
		c-0.2,0.1-0.3,0.2-0.4,0.4c-0.1,0.2-0.2,0.5-0.1,0.9L174.7,319.5z M186.3,333.1l-3.5-0.2v-0.4c0.8-0.2,1.4-0.3,1.8-0.5
		c0.3-0.2,0.7-0.5,0.9-0.9c0.2-0.2,0.2-0.7,0.3-1.3l0.1-0.9l-9.9-0.7c-0.7-0.1-1.1-0.1-1.2,0c-0.1,0.1-0.3,0.2-0.4,0.3
		c-0.2,0.2-0.2,0.5-0.3,0.9l0,0.4h-0.4l0.5-6.7l0.3,0.1l0,0.4c0,0.3,0,0.7,0.1,0.9c0.1,0.2,0.2,0.3,0.4,0.5c0.1,0,0.5,0.1,1.1,0.2
		l9.9,0.7l0.1-0.9c0-0.9-0.1-1.5-0.4-1.9c-0.5-0.6-1.2-1-2.1-1.2l0-0.3l3.5,0.2L186.3,333.1z M181.3,349.9l-0.3-0.1
		c0.1-0.4,0.1-0.8,0-1.1c-0.1-0.3-0.7-1-1.6-2.1l-3.6-4.1l-3-1c-0.6-0.2-1-0.3-1.2-0.2c-0.2,0-0.4,0.1-0.5,0.2
		c-0.2,0.1-0.4,0.4-0.5,0.8l-0.2,0.7l-0.4-0.1l2.2-6.9l0.4,0.1l-0.2,0.6c-0.1,0.4-0.1,0.7-0.1,0.9c0,0.1,0.1,0.4,0.3,0.5
		c0.1,0.1,0.5,0.3,1.1,0.5l2.5,0.8l6.1-1.2c1.2-0.2,2-0.4,2.2-0.6c0.3-0.2,0.5-0.4,0.6-0.8l0.3,0.1l-1.9,5.8l-0.3-0.1l0.1-0.2
		c0.1-0.4,0.2-0.7,0.1-0.8c-0.1-0.2-0.1-0.3-0.3-0.3c-0.2-0.1-0.8,0-1.8,0.1l-4.8,0.9l3,3.4c0.7,0.8,1.2,1.3,1.6,1.4
		c0.1,0.1,0.3,0,0.5-0.1c0.2-0.2,0.4-0.5,0.6-1.1l0.3,0.1L181.3,349.9z"/>
	<path class="st4" d="M116.1,295.5h2l1.4,1.6l0,0.1l3.4-2.5v-2.2c0,0,3.2-1.4,1.2-6.7c-1.8-4.7-6.3-9.1-7.1-9.9h0
		c-1,0.9-5.5,5.3-7.2,9.9c-2,5.3,1.2,6.7,1.2,6.7v2.2l3.5,2.7L116.1,295.5z"/>
	<path class="st5" d="M116.9,290.4l2.2,2.7c0,0,3.4-2.5,1.5-6.7c-1.4-3-3.8-5-3.8-5l0,0c0,0-2.3,1.9-3.6,5c-1.9,4.2,1.5,6.7,1.5,6.7
		L116.9,290.4z"/>
	<path class="st4" d="M117.2,312.1c0-0.2,0-0.3,0-0.4h-0.1l-0.1-1c0.1,0,0.1-0.1,0.1-0.1l-0.1-0.1l-0.3-6.7l-0.4-0.1
		c0,0-0.3,0.8-1.6,0.8c-1,0.1-1.7-0.1-2.2-0.6c-0.4-0.4-0.6-1-0.6-1.8v-0.2c0.1-1,0.1-3.3-2.2-4.4c-2.4-1.2-6.1,0-6.2,0L83,306h-0.1
		l0,0.1c0,0-0.2,0.4-0.1,0.7c0.1,0.1,0.2,0.2,0.4,0.3c0.4,0.1,1.9,0.2,3.5,0.2c-0.1,0-0.2,0-0.3,0.1c-1.3,0.7-1.4,0.8-1.4,0.9
		c0,0.1,0,0.2,0,0.2c0,0.1,0.1,0.2,0.9,0.3c0.5,0.1,1.2,0.2,1.8,0.2c0.5,0.1,1.4,0.1,2.4,0.2c-0.1,0.2-0.3,0.4-0.4,0.7
		c-0.1,0.1-0.3,0.3-0.5,0.4c-0.4,0.2-0.6,0.4-0.6,0.7c0,0,0.1,0.1,0.2,0.2c0.4,0.1,3.9,0.4,5.5,0.2c0.2-0.1,0.5-0.1,0.7-0.1
		c0,0,0,0-0.1,0.1c-0.6,0.6-0.7,0.8-0.6,1c0,0.1,0.1,0.3,0.4,0.3c1.3,0.1,2.4,0.1,3.5-0.1c-0.1,0.1-0.1,0.2-0.2,0.2
		c-0.5,0.5-0.6,0.8-0.5,1c0,0.1,0.1,0.3,0.4,0.3c1.7,0.1,2.8,0,3.7-0.2c0.3-0.1,0.6-0.2,1-0.3c-0.1,0.1-0.2,0.3-0.2,0.4
		c-0.3,0.7-0.4,1.1-0.3,1.3c0.1,0.1,0.2,0.2,0.5,0.1c0.9-0.2,2.2-0.6,3.3-1.1c-0.1,0.5-0.2,1.1,0.1,1.4c0.2,0.2,0.6,0.2,1,0
		c1-0.4,2.1-1,3-1.5c-0.1,0.1-0.1,0.2-0.1,0.3c-0.2,0.5-0.2,0.9,0,1.1c0.2,0.2,0.4,0.2,0.8,0.1c1.5-0.5,1.8-0.6,2.5-1
		c0.4-0.3,1-0.7,1.4-0.9c0.1,0.4,0.2,1.2,0.6,1.5c0.2,0.1,0.4,0.2,0.6,0C116.9,314.7,117.1,312.9,117.2,312.1"/>
	<path class="st0" d="M103.6,310.2c-0.3-0.3-0.3-1.2-0.2-1.6c0.2-0.1,0.5-0.2,0.7-0.3c0.3-0.2,0.6-0.3,0.8-0.5
		c0.7-0.3,1.3-0.7,1.9-1.1c0.4-0.2,0.8-0.4,1.1-0.6c0.5-0.2,1.9-0.8,2.4-0.9c0.2,0.3,0.4,0.4,0.7,0.6c0.1,0,0.2,0.1,0.3,0.1
		c-0.3,0.2-0.6,0.4-0.9,0.6c-0.5,0.2-2,1.3-2.8,1.8c-0.5,0.4-2.3,1.7-3.5,2C103.8,310.3,103.7,310.3,103.6,310.2"/>
	<path class="st0" d="M103.1,308.2c0,0-0.1,0-0.1,0.1c-0.6,0.2-1.3,0.5-2,0.5h0h0c-0.2,0-0.3-0.1-0.3-0.1c-0.3-0.3,0.1-1.4,0.4-2
		c1.4-0.3,2.8-0.8,3.7-1.4c1.3-0.8,2.7-1.5,3.3-1.6c0.5-0.3,1.3-0.1,1.5,0c0.1,0.4,0.2,0.9,0.5,1.3c-0.5,0.2-1.9,0.7-2.4,0.9
		c-0.3,0.1-0.7,0.3-1.1,0.6c-0.6,0.3-1.2,0.7-1.8,1c-0.3,0.1-0.6,0.2-0.9,0.4C103.6,308,103.4,308.1,103.1,308.2L103.1,308.2z"/>
	<path class="st0" d="M99.7,306.4c-0.4,0-0.6-0.1-0.7-0.3c-0.3-0.4-0.2-1.2-0.2-1.5c1.2-0.3,2.5-1,3.7-1.5c0.8-0.3,1.5-0.7,1.9-0.8
		l0.3-0.1c1.2-0.4,2.2-0.8,2.8-0.8c0.5,0,1.6,0.1,2,0.1c0,0.1,0,0.3,0,0.4c0,0.2,0,0.8,0.1,1.3c-0.3-0.1-1-0.2-1.5,0.1
		c-0.4,0.1-1.9,0.8-3.3,1.6C103.4,305.7,101.3,306.5,99.7,306.4"/>
	<path class="st0" d="M98.4,304.2L98.4,304.2c-0.4,0.2-0.8,0.3-1.2,0.3c-1.4,0.2-2-0.8-2.2-1.2c1.4-0.6,3.2-1.3,4.6-1.8
		c0.8-0.4,1.5-0.6,1.8-0.7l0.1-0.1c1.1-0.4,4.5-1.6,5.7-1.6c0.9,0.1,1.8,0.3,2.1,1.9h-2c-0.6,0-1.7,0.3-2.8,0.8l-0.3,0.1
		c-0.4,0.1-1.1,0.4-2,0.8C101.1,303.2,99.7,303.9,98.4,304.2L98.4,304.2z"/>
	<path class="st0" d="M83.3,306.7c-0.1,0-0.2,0-0.2-0.1c0-0.1,0-0.3,0-0.3l20.7-8.6c0.1-0.1,3.7-1.2,5.9-0.1c2.1,1,2,3.1,2,4.1v0.2
		c0,0.9,0.2,1.6,0.7,2.1c0.5,0.5,1.3,0.8,2.4,0.7c0.8-0.1,1.3-0.3,1.6-0.6l0.1,1.5l0-0.1c0,0-1.5,0.7-2.5,0.7
		c-0.6,0-1.5-0.1-2.8-0.8c-1.3-0.7-1.4-3.1-1.4-3.6c0-1.2-0.3-2-0.9-2.5c-0.5-0.5-1.1-0.6-1.6-0.6c-1.1-0.1-3.9,0.9-5.8,1.6h-0.1
		c-0.4,0.1-1,0.4-1.9,0.7c-1.7,0.8-4.2,1.7-5.6,2.1c-2,0.6-7.6,2.5-7.7,2.5l0.1,0.4c0.1,0,5.7-1.9,7.7-2.5c0.2-0.1,0.4-0.2,0.7-0.2
		c0,0.2,0.2,0.5,0.4,0.8c0.1,0.2,0.3,0.3,0.6,0.4c-1.2,0.5-4.9,2-7,2.1c-0.4,0-0.7,0.1-1.1,0.1l0-0.1c0,0-0.1,0.1-0.2,0.1
		C85.7,306.9,83.8,306.8,83.3,306.7"/>
	<path class="st0" d="M85.5,308.3c0.3-0.3,1.3-0.8,2.2-1.2h1.2c2.4-0.2,6.9-2.1,7.4-2.3c0.3,0.1,0.7,0.1,1.1,0.1
		c0.3-0.1,0.7-0.1,1-0.3c0,0.4,0,1.1,0.3,1.6c0.1,0.2,0.4,0.3,0.6,0.4c-1.3,0.5-4.4,1.6-7.1,2C90,309,86.3,308.6,85.5,308.3"/>
	<path class="st0" d="M94.3,311.1c-1.4,0.2-4.4-0.1-5.2-0.2c0.1-0.1,0.2-0.2,0.3-0.2c0.2-0.2,0.5-0.4,0.7-0.6
		c0.2-0.3,0.4-0.7,0.5-0.9c0.5,0,1-0.1,1.5-0.1c3.4-0.4,7.4-2.1,7.9-2.3c0.2,0,0.5,0,0.7,0c-0.3,0.5-0.6,1.6-0.3,2.2
		c0.1,0.1,0.1,0.1,0.2,0.2c-0.5,0.3-1.4,0.7-1.9,0.8C97.7,310.2,95.8,310.8,94.3,311.1"/>
	<path class="st0" d="M94.8,312.2L94.8,312.2c0-0.2,0.5-0.7,1-1.2c1.2-0.3,2.3-0.6,2.9-0.8c0.7-0.3,2-0.9,2.3-1
		c0.6,0,1.3-0.2,1.9-0.5c0,0.5,0,1.3,0.4,1.7c-0.4,0.1-0.9,0.4-1.4,0.6c-0.4,0.2-1.9,0.9-3.6,1.2C97.3,312.3,96.2,312.4,94.8,312.2"
		/>
	<path class="st0" d="M101.5,313.4c-0.8,0.2-2,0.3-3.6,0.2h-0.1c0-0.2,0.5-0.8,1.1-1.3c1.5-0.3,2.8-0.9,3.2-1
		c0.7-0.3,1.4-0.6,1.7-0.7h0.3c0.8-0.2,1.9-0.8,2.8-1.3c0,0.4-0.1,1.2,0.1,1.8c-0.3,0.2-1.1,0.7-1.7,1
		C104.4,312.5,102.6,313.2,101.5,313.4"/>
	<path class="st6" d="M103.1,313.3"/>
	<path class="st0" d="M102.5,315h-0.1c-0.1-0.2,0.2-1,0.7-1.7c0.9-0.2,1.8-0.6,2.3-0.9c0.6-0.3,1.3-0.7,1.7-0.9c0,0,0.1,0.1,0.1,0.1
		c0.1,0.1,0.2,0.2,0.4,0.2c0.6,0,1.4-0.7,1.9-1.1c0,0.4,0,0.8,0.2,1.1c-0.2,0.1-0.5,0.3-0.7,0.5c-0.2,0.2-0.5,0.3-1.1,0.5
		c-0.5,0.2-1,0.5-1.7,0.9C105.1,314.3,103.5,314.8,102.5,315"/>
	<path class="st0" d="M83.2,321.7c11.4,0.6,22.6,4,33.7,10.4c11.1-5.9,22.6-10,34.6-10.6l11,27.2l-3.2,8.3l-30.6,3.1l-12.1,4.3
		l-0.2-0.1l-16.3-6.4l-28.8-8.4L83.2,321.7z"/>
	<path class="st7" d="M161.9,359.8c-14.8-1.1-30.6,1-45.3,4.6c11.1-11,26.7-16.5,47.3-16.3L161.9,359.8z"/>
	<path class="st8" d="M150.4,322.8c-12.3,1-23.4,4.7-33.5,10.6l-0.8,0.5l-0.8-0.5c-7.2-5.4-20.3-10.1-31.1-10.2l-11.6,26.3l-2.6-1.2
		l12.3-27.9l0.9-0.1h0.5c11.3,0.1,24.5,4.6,32.6,10.2c10.5-6,22.1-9.7,34.9-10.6l1-0.1l12.1,28.5l-2.6,1.1L150.4,322.8z"/>
	<path class="st4" d="M116.5,312.1v-0.4l0.1-1c0,0-0.1-0.1-0.1-0.1l0.1-0.1l0.3-6.7l0.3-0.1c0,0,0.3,0.8,1.6,0.8
		c1,0.1,1.7-0.1,2.2-0.6c0.4-0.4,0.6-1,0.6-1.8v-0.2c0-1-0.1-3.3,2.2-4.4c2.4-1.2,6.1,0,6.2,0h0l20.7,8.7h0.1l0.1,0.1
		c0,0,0.2,0.4,0,0.7c0,0.1-0.2,0.2-0.4,0.3c-0.4,0.1-1.9,0.2-3.4,0.2c0.1,0,0.1,0,0.2,0.1c1.3,0.7,1.4,0.8,1.4,0.9
		c0,0.1,0,0.2,0,0.2c-0.1,0.1-0.1,0.2-1,0.3c-0.5,0.1-1.1,0.2-1.8,0.2c-0.5,0.1-1.4,0.1-2.4,0.2c0.1,0.2,0.3,0.4,0.4,0.7
		c0.1,0.1,0.4,0.3,0.6,0.4c0.4,0.2,0.6,0.4,0.6,0.7c0,0,0,0.1-0.2,0.2c-0.4,0.1-3.9,0.4-5.5,0.2c-0.3-0.1-0.5-0.1-0.8-0.1
		c0,0,0.1,0,0.1,0.1c0.6,0.6,0.7,0.8,0.6,1c0,0.1-0.1,0.3-0.3,0.3c-1.3,0.1-2.4,0.1-3.5-0.1c0.1,0.1,0.1,0.2,0.2,0.2
		c0.4,0.5,0.6,0.8,0.6,1c0,0.1-0.1,0.3-0.4,0.3c-1.6,0.1-2.8,0-3.7-0.2c-0.3-0.1-0.6-0.2-0.9-0.3c0.1,0.1,0.1,0.3,0.2,0.4
		c0.3,0.7,0.4,1.1,0.2,1.3c-0.1,0.1-0.2,0.2-0.5,0.1c-0.8-0.2-2.2-0.6-3.3-1.1c0.1,0.5,0.2,1.1-0.1,1.4c-0.2,0.2-0.5,0.2-1,0
		c-0.8-0.4-1.8-1-2.7-1.4c-0.1,0-0.2-0.1-0.3-0.1c0,0.1,0,0,0,0c0.1,0.1,0.1,0.1,0.1,0.2c0.2,0.5,0.2,0.9,0.1,1.1
		c-0.2,0.2-0.4,0.2-0.9,0.1c-1.4-0.5-1.8-0.6-2.5-1c-0.5-0.3-1-0.7-1.4-0.9c0,0.4-0.2,1.2-0.5,1.5c-0.2,0.1-0.4,0.2-0.6,0
		C116.7,314.7,116.6,312.9,116.5,312.1"/>
	<path class="st0" d="M130.6,308.2v0.1c0.7,0.2,1.3,0.5,2,0.5h0.1h0c0.2,0,0.2-0.1,0.3-0.1c0.2-0.3-0.2-1.4-0.5-2
		c-1.3-0.3-2.8-0.8-3.7-1.4c-1.3-0.8-2.8-1.5-3.3-1.6c-0.5-0.3-1.3-0.1-1.5,0c-0.1,0.4-0.2,0.9-0.5,1.3c0.6,0.2,1.9,0.7,2.4,0.9
		c0.3,0.1,0.7,0.3,1.1,0.6c0.6,0.3,1.2,0.7,1.8,1c0.3,0.1,0.6,0.2,0.9,0.4C130.1,308,130.3,308.1,130.6,308.2L130.6,308.2z"/>
	<path class="st0" d="M134,306.4c0.3,0,0.6-0.1,0.7-0.3c0.3-0.4,0.2-1.2,0.2-1.5c-1.2-0.3-2.5-1-3.7-1.5c-0.8-0.3-1.5-0.7-1.9-0.8
		l-0.3-0.1c-1.2-0.4-2.2-0.8-2.7-0.8c-0.5,0-1.6,0.1-2,0.1c0,0.1,0,0.3,0,0.4c0,0.2,0,0.8-0.1,1.3c0.4-0.1,1-0.2,1.5,0.1
		c0.4,0.1,1.9,0.8,3.3,1.6C130.3,305.7,132.3,306.5,134,306.4"/>
	<path class="st0" d="M135.3,304.2L135.3,304.2c0.4,0.2,0.8,0.3,1.1,0.3c1.4,0.2,2-0.8,2.2-1.2c-1.4-0.6-3.2-1.3-4.6-1.8
		c-0.9-0.4-1.5-0.6-1.8-0.7l-0.1-0.1c-1.1-0.4-4.5-1.6-5.7-1.6c-1,0.1-1.8,0.3-2.1,1.9h2c0.6,0,1.7,0.3,2.8,0.8l0.3,0.1
		c0.4,0.1,1.1,0.4,2,0.8C132.6,303.2,134,303.9,135.3,304.2L135.3,304.2z"/>
	<path class="st0" d="M150.4,306.7c0.1,0,0.2,0,0.2-0.1c0-0.1,0-0.3,0-0.3l-20.7-8.6c-0.1-0.1-3.7-1.2-5.9-0.1c-2.1,1-2,3.1-2,4.1
		v0.2c0,0.9-0.2,1.6-0.7,2.1c-0.6,0.5-1.3,0.8-2.4,0.7c-0.8-0.1-1.3-0.3-1.6-0.6l-0.1,1.5l0-0.1c0,0,1.5,0.7,2.5,0.7
		c0.7,0,1.6-0.1,2.9-0.8c1.3-0.7,1.4-3.1,1.4-3.6c0-1.2,0.3-2,0.9-2.5c0.5-0.5,1.1-0.6,1.6-0.6c1.1-0.1,3.8,0.9,5.8,1.6h0.1
		c0.4,0.1,1,0.4,1.9,0.7c1.8,0.8,4.2,1.7,5.5,2.1c2,0.6,7.6,2.5,7.7,2.5l-0.1,0.4c-0.1,0-5.7-1.9-7.7-2.5c-0.2-0.1-0.4-0.2-0.6-0.2
		c-0.1,0.2-0.2,0.5-0.5,0.8c-0.1,0.2-0.4,0.3-0.6,0.4c1.2,0.5,4.9,2,7,2.1c0.4,0,0.7,0.1,1.1,0.1l0.1-0.1c0,0,0.1,0.1,0.1,0.1
		C148,306.9,149.9,306.8,150.4,306.7"/>
	<path class="st0" d="M148.2,308.3c-0.3-0.3-1.3-0.8-2.2-1.2h-1.2c-2.4-0.2-6.9-2.1-7.4-2.3c-0.3,0.1-0.6,0.1-1.1,0.1
		c-0.3-0.1-0.6-0.1-1-0.3c0,0.4,0,1.1-0.3,1.6c-0.1,0.2-0.3,0.3-0.6,0.4c1.4,0.5,4.5,1.6,7.1,2C143.7,309,147.4,308.6,148.2,308.3"
		/>
	<path class="st0" d="M139.4,311.1c1.4,0.2,4.4-0.1,5.2-0.2c-0.1-0.1-0.2-0.2-0.3-0.2c-0.2-0.2-0.5-0.4-0.7-0.6
		c-0.3-0.3-0.5-0.7-0.5-0.9c-0.5,0-1-0.1-1.6-0.1c-3.4-0.4-7.3-2.1-7.8-2.3c-0.2,0-0.5,0-0.7,0c0.3,0.5,0.6,1.6,0.3,2.2
		c0,0.1-0.1,0.1-0.1,0.2c0.5,0.3,1.4,0.7,1.9,0.8C135.9,310.2,137.9,310.8,139.4,311.1"/>
	<path class="st0" d="M138.8,312.2L138.8,312.2c0-0.2-0.5-0.7-1-1.2c-1.1-0.3-2.3-0.6-2.9-0.8c-0.7-0.3-1.9-0.9-2.3-1
		c-0.7,0-1.3-0.2-1.9-0.5c0,0.5,0,1.3-0.4,1.7c0.4,0.1,0.9,0.4,1.4,0.6c0.5,0.2,2,0.9,3.6,1.2C136.4,312.3,137.5,312.4,138.8,312.2"
		/>
	<path class="st0" d="M132.2,313.4c0.8,0.2,2,0.3,3.6,0.2h0.1c0-0.2-0.5-0.8-1.1-1.3h0c-1.5-0.3-2.8-0.9-3.2-1
		c-0.7-0.3-1.5-0.6-1.7-0.7h-0.3c-0.9-0.2-2-0.8-2.8-1.3c0,0.4,0,1.2-0.1,1.8c0.3,0.2,1.1,0.7,1.7,1
		C129.3,312.5,131.1,313.2,132.2,313.4"/>
	<path class="st0" d="M110.8,374.2v0.7H107c0-0.2,0-0.3,0.1-0.5c0.1-0.3,0.3-0.5,0.5-0.8c0.2-0.2,0.5-0.5,0.9-0.9
		c0.6-0.5,1.1-0.9,1.3-1.2c0.2-0.3,0.3-0.5,0.3-0.9c0-0.2-0.1-0.4-0.3-0.7c-0.2-0.2-0.5-0.3-0.8-0.3c-0.3,0-0.6,0.1-0.8,0.3
		c-0.2,0.2-0.3,0.5-0.3,0.9l-0.7-0.1c0-0.6,0.2-1,0.6-1.2c0.3-0.3,0.8-0.5,1.3-0.5c0.6,0,1,0.1,1.3,0.5c0.3,0.3,0.5,0.6,0.5,1.1
		c0,0.2,0,0.4-0.1,0.7c-0.1,0.2-0.2,0.4-0.5,0.7c-0.2,0.3-0.6,0.6-1.1,1c-0.4,0.4-0.7,0.6-0.8,0.7c-0.1,0.1-0.2,0.2-0.3,0.5H110.8z
		 M111.6,372c0-0.7,0.1-1.3,0.2-1.6c0.2-0.4,0.4-0.8,0.7-1c0.3-0.2,0.6-0.3,1.1-0.3c0.3,0,0.6,0,0.8,0.2c0.2,0.1,0.4,0.3,0.6,0.6
		c0.2,0.2,0.3,0.5,0.4,0.8c0.1,0.3,0.1,0.8,0.1,1.4c0,0.7-0.1,1.2-0.2,1.6c-0.2,0.4-0.4,0.7-0.6,1c-0.3,0.2-0.6,0.3-1,0.3
		c-0.6,0-1-0.2-1.3-0.7C111.8,373.8,111.6,373.1,111.6,372 M112.3,372c0,0.9,0.1,1.5,0.3,1.9c0.2,0.3,0.5,0.5,0.8,0.5
		c0.3,0,0.6-0.2,0.8-0.5c0.2-0.3,0.3-0.9,0.3-1.9c0-1-0.1-1.6-0.3-1.9c-0.2-0.3-0.5-0.5-0.9-0.5c-0.3,0-0.6,0.2-0.8,0.5
		C112.4,370.3,112.3,371,112.3,372 M116.1,372c0-0.7,0.1-1.3,0.2-1.6c0.1-0.4,0.4-0.8,0.6-1c0.3-0.2,0.6-0.3,1.1-0.3
		c0.3,0,0.6,0,0.8,0.2c0.3,0.1,0.4,0.3,0.6,0.6c0.1,0.2,0.3,0.5,0.4,0.8c0.1,0.3,0.1,0.8,0.1,1.4c0,0.7-0.1,1.2-0.2,1.6
		c-0.2,0.4-0.4,0.7-0.6,1c-0.3,0.2-0.7,0.3-1.1,0.3c-0.6,0-1-0.2-1.3-0.7C116.3,373.8,116.1,373.1,116.1,372 M116.8,372
		c0,0.9,0.1,1.5,0.3,1.9c0.2,0.3,0.5,0.5,0.9,0.5c0.3,0,0.6-0.2,0.8-0.5c0.3-0.3,0.3-0.9,0.3-1.9c0-1-0.1-1.6-0.3-1.9
		c-0.2-0.3-0.5-0.5-0.8-0.5c-0.3,0-0.6,0.2-0.8,0.5C116.9,370.3,116.8,371,116.8,372 M120.6,373.3l0.7-0.1c0.1,0.4,0.2,0.6,0.4,0.8
		c0.2,0.2,0.4,0.3,0.7,0.3c0.3,0,0.6-0.2,0.9-0.4c0.3-0.3,0.4-0.6,0.4-1c0-0.4-0.1-0.7-0.3-0.9c-0.2-0.3-0.6-0.4-0.9-0.4
		c-0.2,0-0.4,0.1-0.6,0.2c-0.2,0.1-0.3,0.2-0.4,0.5l-0.7-0.1l0.5-3h2.9v0.7h-2.3l-0.3,1.5c0.3-0.2,0.7-0.3,1.1-0.3
		c0.5,0,1,0.2,1.3,0.5c0.3,0.3,0.5,0.8,0.5,1.3c0,0.5-0.1,1-0.5,1.3c-0.4,0.5-0.9,0.8-1.5,0.8c-0.6,0-1-0.2-1.3-0.4
		C120.9,374.2,120.7,373.8,120.6,373.3"/>
	<path class="st0" d="M114.9,313c-0.2,0.1-0.3,0.2-0.5,0.1c-0.3-0.2-0.5-0.7-0.6-1c0.8-0.7,1.4-1.7,1.9-2.6c0.3-0.6,0.6-1.1,0.9-1.5
		l0.1,2.6C116.5,311.1,115.6,312.5,114.9,313"/>
	<path class="st0" d="M112.7,312.2L112.7,312.2C112.7,312.2,112.7,312.2,112.7,312.2L112.7,312.2c-0.4-0.2-0.7-0.7-0.9-1
		c0.9-0.9,1.5-2.1,1.6-2.3l1.3-2.3c0.7-0.1,1.5-0.4,1.8-0.5l0.1,1.2c-0.1,0.3-0.7,1.2-1.2,2c-0.6,1.1-1.3,2.3-2.3,2.8
		C113,312.2,112.9,312.2,112.7,312.2"/>
	<path class="st0" d="M107.2,309.1c0.2-0.2,0.4-0.3,0.6-0.4c0.8-0.6,2.3-1.6,2.7-1.8c0.4-0.2,0.9-0.6,1.2-0.7
		c0.3,0.1,0.6,0.2,0.8,0.3c-0.5,0.7-1.8,2.2-2.3,3c-0.2,0.3-0.5,0.5-0.8,0.8c-0.7,0.7-1.5,1.2-1.9,1.2c-0.1,0-0.1,0-0.1-0.1
		C107.1,311.1,107.1,309.9,107.2,309.1"/>
	<path class="st0" d="M109.7,310.4c0.3-0.3,0.5-0.5,0.7-0.8c0.5-0.7,2-2.5,2.4-3c0.5,0.1,0.8,0.1,1.2,0.1h0.3l-1.1,2
		c-0.6,1-1.8,2.7-2.8,3.1c-0.3,0.1-0.4,0-0.4,0C109.7,311.5,109.7,310.8,109.7,310.4"/>
	<path class="st0" d="M106.9,315.3c-0.2,0.1-0.5,0.2-0.6,0.1c-0.2-0.2-0.1-0.9,0-1.3c0.7-0.4,1.2-0.7,1.6-0.8
		c0.6-0.3,0.9-0.4,1.1-0.6c0.3-0.2,0.6-0.4,0.8-0.5c0.1,0.1,0.4,0.2,0.7,0.1c0.4-0.2,0.7-0.4,1.1-0.8c0.1,0.3,0.4,0.8,0.7,1
		c-0.2,0.1-0.6,0.4-1,0.6l-0.1,0.1C110.3,313.5,108.3,314.6,106.9,315.3"/>
	<path class="st0" d="M113,314.2c-0.8,0.4-1,0.6-2.5,1c-0.3,0.1-0.4,0.1-0.5,0.1c-0.1-0.2,0.1-0.8,0.4-1.3l-0.1-0.1
		c0.4-0.2,0.7-0.3,0.9-0.4l0.1-0.1c0.5-0.3,1-0.6,1.3-0.8c0.2,0.1,0.4,0,0.6-0.1c0.1-0.1,0.1-0.1,0.2-0.1c0.1,0.3,0.3,0.9,0.7,1.1h0
		C113.9,313.6,113.5,313.9,113,314.2"/>
	<path class="st0" d="M115.6,314.8h-0.3c-0.3-0.2-0.4-1-0.4-1.4c0.1,0,0.1-0.1,0.1-0.1c0.7-0.3,1.3-1.4,1.7-2.1l0.1,0.9
		C116.8,312.8,116.6,314.5,115.6,314.8"/>
	<path class="st0" d="M118.8,313c0.2,0.1,0.3,0.2,0.5,0.1c0.3-0.2,0.5-0.7,0.6-1c-0.8-0.7-1.4-1.7-2-2.6c-0.3-0.6-0.6-1.1-0.9-1.5
		l-0.1,2.6C117.2,311.1,118,312.5,118.8,313"/>
	<path class="st0" d="M121,312.2L121,312.2L121,312.2h0.1c0.3-0.2,0.6-0.7,0.8-1c-0.9-0.9-1.6-2.1-1.7-2.3l-1.3-2.3
		c-0.7-0.1-1.5-0.4-1.8-0.5l0,1.2c0.1,0.3,0.7,1.2,1.2,2c0.6,1.1,1.3,2.3,2.3,2.8C120.7,312.2,120.9,312.2,121,312.2"/>
	<path class="st0" d="M126.5,309.1c-0.3-0.2-0.4-0.3-0.6-0.4c-0.7-0.6-2.3-1.6-2.7-1.8c-0.4-0.2-0.9-0.6-1.1-0.7
		c-0.3,0.1-0.6,0.2-0.9,0.3c0.5,0.7,1.8,2.2,2.3,3c0.2,0.3,0.5,0.5,0.8,0.8c0.8,0.7,1.5,1.2,1.9,1.2c0,0,0.1,0,0.1-0.1
		C126.6,311.1,126.6,309.9,126.5,309.1"/>
	<path class="st0" d="M123.9,310.4c-0.3-0.3-0.5-0.5-0.7-0.8c-0.6-0.7-2-2.5-2.4-3c-0.5,0.1-0.9,0.1-1.2,0.1h-0.3l1.2,2
		c0.5,1,1.8,2.7,2.8,3.1c0.3,0.1,0.4,0,0.4,0C124,311.5,124,310.8,123.9,310.4"/>
	<path class="st0" d="M126.8,315.3c0.2,0.1,0.5,0.2,0.6,0.1c0.2-0.2,0.1-0.9,0-1.3c-0.7-0.4-1.2-0.7-1.6-0.8
		c-0.5-0.3-0.9-0.4-1.2-0.6c-0.2-0.2-0.5-0.4-0.7-0.5c-0.1,0.1-0.4,0.2-0.7,0.1c-0.4-0.2-0.7-0.4-1.1-0.8c-0.1,0.3-0.4,0.8-0.8,1
		c0.3,0.1,0.7,0.4,1.1,0.6l0.1,0.1C123.4,313.5,125.4,314.6,126.8,315.3"/>
	<path class="st0" d="M120.6,314.2c0.7,0.4,1,0.6,2.5,1c0.3,0.1,0.4,0.1,0.5,0.1c0.1-0.2-0.1-0.8-0.4-1.3l0.1-0.1
		c-0.4-0.2-0.7-0.3-0.9-0.4l-0.1-0.1c-0.5-0.3-1-0.6-1.3-0.8c-0.2,0.1-0.4,0-0.6-0.1c-0.1-0.1-0.1-0.1-0.2-0.1
		c-0.1,0.3-0.3,0.9-0.8,1.1C119.8,313.6,120.2,313.9,120.6,314.2"/>
	<path class="st0" d="M118,314.8h0.3c0.3-0.2,0.4-1,0.4-1.4c-0.1,0-0.1-0.1-0.1-0.1c-0.7-0.3-1.3-1.4-1.8-2.1l0,0.9
		C116.9,312.8,117.1,314.5,118,314.8"/>
	<path class="st0" d="M130.1,310.2c0.3-0.3,0.3-1.2,0.2-1.6c-0.2-0.1-0.5-0.2-0.7-0.3c-0.3-0.2-0.6-0.3-0.9-0.5
		c-0.6-0.3-1.3-0.7-1.9-1.1c-0.4-0.2-0.8-0.4-1.1-0.6c-0.5-0.2-2-0.8-2.5-0.9c-0.2,0.3-0.4,0.4-0.7,0.6c-0.1,0-0.2,0.1-0.2,0.1
		c0.3,0.2,0.6,0.4,0.9,0.6c0.5,0.2,2,1.3,2.8,1.8c0.5,0.4,2.3,1.7,3.5,2C129.9,310.3,130,310.3,130.1,310.2"/>
	<path class="st6" d="M130.6,313.3"/>
	<path class="st0" d="M131.2,315h0.1c0.1-0.2-0.2-1-0.7-1.7c-0.9-0.2-1.8-0.6-2.3-0.9c-0.6-0.3-1.3-0.7-1.6-0.9
		c-0.1,0-0.1,0.1-0.1,0.1c-0.1,0.1-0.2,0.2-0.3,0.2c-0.6,0-1.4-0.7-1.9-1.1c0,0.4,0,0.8-0.2,1.1c0.2,0.1,0.4,0.3,0.7,0.5
		c0.2,0.2,0.5,0.3,1.1,0.5c0.4,0.2,0.9,0.5,1.7,0.9C128.6,314.3,130.2,314.8,131.2,315"/>
	<path class="st4" d="M116.7,354.6c0.1-0.5,1.4-0.8,2-0.9c1-0.2,1.9-0.6,1.9-2c0.1-1.8-2.7-3.8-2.7-3.8c-3.2-2.4-4.2-3.3-1.6-4.4
		c1.8-0.8,4.8-1.5,6.2-3.3c1.2-1.5,1-3.6-0.5-4.8c-2.6-2-8.3-3.1-10.9-5.6c-0.4-0.3-0.9-0.9-0.9-1.4c0.1-0.7,0.9-0.9,1.4-1
		c2.3-0.7,4.6-0.9,6.9-1.4c1.3-0.4,2.7-0.8,4-1.3c4.5-2.1,6.7-4.3,6.8-6.5c0.1-2.6-3.2-3.2-4.2-3.5c-1-0.3-1.2-0.7-3.3-0.5
		c-2.1,0.3-2,1.8-2,1.8c0.7,1.9,5.1-0.1,5.1-0.1s2.2-0.4,2.5,1.4c0.2,1.2-2.4,3.6-5.6,5.4c-2.1,1.1-4.5,1.5-6.8,1.9
		c-0.7,0.1-1.4,0.3-2.1,0.5c-1.1,0.3-2.2,0.7-3,1.1c-1.6,1-1.8,3-0.8,4.3c1.2,1.6,3.8,3.3,6.2,4.1c2.2,0.8,3.9,1.5,4.9,2.2
		c0.5,0.4,1,1,1,1.6c0.1,0.8-0.5,1.3-1,1.7c-1,0.7-2.6,1.2-3.8,1.7c-1.5,0.5-4.1,2-3.4,3.9c0.3,1,1.4,1.8,2.1,2.4
		c0.5,0.5,1.1,0.9,1.7,1.4c0.7,0.6,2.2,1.5,2.2,2.5c0,0.7-0.6,0.9-1.2,1.1c-0.9,0.3-2.4,0.8-2,2.1c0.2,0.6,1.1,1.2,2.5,1.5
		c0,0,0.7-0.3-0.5-0.8C117,355.3,116.6,355,116.7,354.6"/>
	<path class="st4" d="M116.6,354.6c-0.1-0.5-1.4-0.8-2-0.9c-0.9-0.2-1.8-0.6-1.9-2c-0.1-1.8,2.8-3.8,2.8-3.8
		c3.2-2.4,4.1-3.3,1.6-4.4c-1.8-0.8-4.8-1.5-6.2-3.3c-1.2-1.5-1-3.6,0.6-4.8c2.6-2,8.3-3.1,10.9-5.6c0.4-0.3,0.9-0.9,0.9-1.4
		c-0.1-0.7-0.8-0.9-1.3-1c-2.3-0.7-4.6-0.9-6.9-1.4c-1.4-0.4-2.7-0.8-3.9-1.3c-4.5-2.1-6.7-4.3-6.8-6.5c-0.1-2.6,3.2-3.2,4.2-3.5
		c1.1-0.3,1.2-0.7,3.3-0.5c2.1,0.3,2,1.8,2,1.8c-0.7,1.9-5.1-0.1-5.1-0.1s-2.1-0.4-2.5,1.4c-0.2,1.2,2.4,3.6,5.6,5.4
		c2.1,1.1,4.5,1.5,6.8,1.9c0.7,0.1,1.4,0.3,2,0.5c1.1,0.3,2.2,0.7,3,1.1c1.6,1,1.8,3,0.8,4.3c-1.2,1.6-3.8,3.3-6.2,4.1
		c-2.3,0.8-3.9,1.5-4.9,2.2c-0.5,0.4-1,1-1,1.6c-0.1,0.8,0.5,1.3,1,1.7c1,0.7,2.6,1.2,3.8,1.7c1.5,0.5,4.1,2,3.4,3.9
		c-0.3,1-1.3,1.8-2.1,2.4c-0.6,0.5-1.1,0.9-1.7,1.4c-0.8,0.6-2.2,1.5-2.2,2.5c0,0.7,0.6,0.9,1.1,1.1c0.9,0.3,2.4,0.8,2,2.1
		c-0.2,0.6-1.1,1.2-2.5,1.5c0,0-0.7-0.3,0.4-0.8C116.4,355.3,116.7,355,116.6,354.6"/>
	<polygon class="st4" points="114.8,295.3 116.5,364.4 117.3,364.2 119.1,294.9 	"/>
	<path class="st3" d="M111.7,289.9c-0.4,0-0.6-0.3-0.6-0.7c0-0.3,0.3-0.6,0.6-0.6h10.5c0.3,0,0.6,0.2,0.6,0.6c0,0.3-0.2,0.7-0.6,0.7
		H111.7z"/>
	<path class="st3" d="M111.7,288.1c-0.4,0-0.6-0.3-0.6-0.6c0-0.3,0.2-0.6,0.6-0.6h10.5c0.3,0,0.6,0.3,0.6,0.6c0,0.3-0.3,0.6-0.6,0.6
		H111.7z"/>
	<path class="st3" d="M111.7,286.2c-0.4,0-0.6-0.3-0.6-0.5c0-0.3,0.2-0.7,0.6-0.7h10.5c0.3,0,0.6,0.3,0.6,0.7c0,0.3-0.3,0.5-0.6,0.5
		H111.7z"/>
	<path class="st0" d="M116.9,286.3c0.6,0,1.2,0.5,1.2,1.1c0,0.7-0.6,1.2-1.2,1.2c-0.7,0-1.2-0.5-1.2-1.2
		C115.7,286.8,116.3,286.3,116.9,286.3"/>
	<path class="st7" d="M72.3,359.8c14.8-1.1,29.4,1,44.2,4.6c-10.2-11.7-25.6-16.5-46.3-16.3L72.3,359.8z"/>
	<path class="st9" d="M244.7,282.4l7.3-3.5c0.7,2.6,2,4.6,3.8,5.9c1.8,1.4,4.2,2,7.1,2c2.7,0,4.9-0.8,6.5-2.3
		c1.6-1.6,2.4-3.6,2.4-6.3c0-3.4-2.8-6.4-8.3-9.1c-0.8-0.4-1.4-0.7-1.8-0.9c-6.2-3.1-10.4-5.9-12.5-8.5c-2.1-2.5-3.1-5.6-3.1-9.3
		c0-4.7,1.6-8.6,4.7-11.5c3.1-2.9,7.2-4.4,12.3-4.4c4.2,0,7.7,0.8,10.5,2.5c2.8,1.6,4.7,4,5.8,7.1l-7.2,3.8c-1.1-1.8-2.4-3.2-3.7-4
		c-1.4-0.8-2.9-1.3-4.7-1.3c-2.5,0-4.4,0.7-5.9,2c-1.4,1.3-2.2,3.1-2.2,5.3c0,3.5,3.2,6.7,9.6,9.8c0.5,0.2,0.9,0.4,1.2,0.6
		c5.6,2.6,9.4,5.2,11.5,7.8c2.1,2.5,3.1,5.7,3.1,9.5c0,5.5-1.7,9.9-5.1,13.1c-3.4,3.2-7.9,4.9-13.7,4.9c-4.8,0-8.8-1.1-11.8-3.4
		C247.6,289.9,245.6,286.7,244.7,282.4"/>
	<path class="st9" d="M328.7,294.1l-6.4-15h-22.4l-6.6,15h-9.7l27.4-60.4l27.3,60.4H328.7z M303.2,271.2H319l-5.8-13.2
		c-0.3-0.9-0.7-1.8-1-2.9c-0.4-1.1-0.7-2.3-1.1-3.7c-0.3,1.3-0.6,2.4-1,3.5c-0.3,1.1-0.7,2.1-1.1,3L303.2,271.2z"/>
	<path class="st9" d="M360.2,296.3L335,236h9.5l12.7,30.9c0.7,1.8,1.4,3.5,1.8,5c0.5,1.5,0.9,3,1.2,4.3c0.3-1.4,0.8-3,1.3-4.5
		c0.5-1.6,1.1-3.1,1.8-4.8L376,236h9.5L360.2,296.3z"/>
	<polygon class="st9" points="391.2,294.1 391.2,236 422.7,236 422.7,244 400.4,244 400.4,258.6 422.7,258.6 422.7,266.8 
		400.4,266.8 400.4,285.6 422.7,285.6 422.7,294.1 	"/>
	<polygon class="st9" points="433.3,294.1 433.3,236 464.8,236 464.8,244 442.4,244 442.4,258.6 464.8,258.6 464.8,266.8 
		442.4,266.8 442.4,285.6 464.8,285.6 464.8,294.1 	"/>
	<polygon class="st9" points="493.6,244 493.6,294.1 484.4,294.1 484.4,244 469.4,244 469.4,236 508.5,236 508.5,244 	"/>
	<polygon class="st9" points="515.6,294.1 515.6,236 524.8,236 524.8,257.4 552.6,257.4 552.6,236 561.8,236 561.8,294.1 
		552.6,294.1 552.6,265.9 524.8,265.9 524.8,294.1 	"/>
	<path class="st9" d="M612.1,294.1l-6.4-15h-22.4l-6.6,15H567l27.4-60.4l27.3,60.4H612.1z M586.7,271.2h15.7l-5.8-13.2
		c-0.3-0.9-0.7-1.8-1-2.9c-0.4-1.1-0.7-2.3-1.1-3.7c-0.3,1.3-0.6,2.4-1,3.5c-0.3,1.1-0.7,2.1-1.1,3L586.7,271.2z"/>
	<path class="st9" d="M245.1,308.6h8v32c0,4.8,1,8.3,3.1,10.7c2.1,2.4,5.2,3.6,9.3,3.6c4.1,0,7.2-1.2,9.3-3.6
		c2.1-2.4,3.1-6,3.1-10.7v-32h8.1v32.8c0,7.1-1.7,12.5-5.1,16c-3.4,3.6-8.5,5.3-15.4,5.3c-6.8,0-12-1.8-15.3-5.3
		c-3.4-3.5-5.1-8.9-5.1-16V308.6z"/>
	<path class="st9" d="M297.1,361.4v-54.9l31.6,32.3c0.9,0.9,1.7,1.9,2.6,2.9c0.9,1,1.8,2.2,2.8,3.5v-36.6h7.5v54.8l-32.3-32.8
		c-0.9-0.9-1.7-1.8-2.5-2.8c-0.8-1-1.6-2-2.3-3.1v36.7H297.1z"/>
	<rect x="353.2" y="308.6" class="st9" width="8.1" height="52.8"/>
	<path class="st9" d="M388.7,363.4l-22.2-54.8h8.4l11.2,28.1c0.7,1.6,1.2,3.1,1.6,4.5c0.4,1.4,0.8,2.7,1,3.9
		c0.3-1.3,0.7-2.7,1.1-4.1c0.5-1.4,1-2.9,1.6-4.4l11.1-28.1h8.4L388.7,363.4z"/>
	<polygon class="st9" points="415.9,361.4 415.9,308.6 443.7,308.6 443.7,315.9 424,315.9 424,329.1 443.7,329.1 443.7,336.6 
		424,336.6 424,353.7 443.7,353.7 443.7,361.4 	"/>
	<path class="st9" d="M460.6,337.8v23.6H453v-52.8h11.3c3.3,0,5.9,0.2,7.7,0.7c1.8,0.5,3.4,1.2,4.7,2.3c1.5,1.3,2.7,2.9,3.6,4.9
		c0.8,2,1.2,4.2,1.2,6.6c0,4.2-1,7.5-2.9,9.9c-1.9,2.4-4.8,3.8-8.5,4.3l17.1,24h-9.2l-16.6-23.6H460.6z M461.1,331.1h1.5
		c4.3,0,7.1-0.5,8.5-1.6c1.4-1,2.1-2.9,2.1-5.6c0-2.9-0.7-5-2.3-6.2c-1.5-1.2-4.3-1.8-8.4-1.8h-1.5V331.1z"/>
	<path class="st9" d="M489.1,350.8l6.5-3.2c0.6,2.4,1.7,4.1,3.4,5.4c1.6,1.2,3.7,1.9,6.3,1.9c2.4,0,4.3-0.7,5.7-2.1
		c1.4-1.4,2.1-3.3,2.1-5.7c0-3.1-2.4-5.9-7.3-8.3c-0.7-0.4-1.2-0.6-1.6-0.8c-5.5-2.8-9.1-5.4-11-7.7c-1.8-2.3-2.7-5.1-2.7-8.4
		c0-4.3,1.4-7.8,4.1-10.4c2.8-2.7,6.4-4,10.8-4c3.7,0,6.7,0.7,9.2,2.2c2.5,1.5,4.2,3.7,5.1,6.5l-6.3,3.5c-1-1.7-2.1-2.9-3.3-3.6
		c-1.2-0.8-2.6-1.2-4.1-1.2c-2.2,0-3.9,0.6-5.2,1.8c-1.3,1.2-1.9,2.8-1.9,4.8c0,3.2,2.8,6.1,8.4,8.9c0.4,0.2,0.8,0.4,1,0.5
		c4.9,2.4,8.3,4.7,10.1,7c1.8,2.3,2.8,5.2,2.8,8.6c0,5-1.5,9-4.5,11.9c-3,2.9-7,4.4-12,4.4c-4.2,0-7.7-1-10.4-3.1
		C491.8,357.6,490,354.6,489.1,350.8"/>
	<rect x="530.4" y="308.6" class="st9" width="8.1" height="52.8"/>
	<polygon class="st9" points="566.1,315.9 566.1,361.4 558.1,361.4 558.1,315.9 544.8,315.9 544.8,308.6 579.3,308.6 579.3,315.9 	
		"/>
	<path class="st9" d="M596.2,361.4v-24.1l-16.8-28.6h8.5l10.4,17.9c0.2,0.5,0.6,1.1,0.9,1.8c0.4,0.7,0.7,1.5,1.1,2.4
		c0.3-0.8,0.7-1.6,1-2.4c0.3-0.7,0.7-1.4,1.1-2l10.7-17.7h8.1l-17.1,28.6v24.1H596.2z"/>
	<path class="st9" d="M286.3,404.7h1.9c1,0,1.8-0.1,2.3-0.2c0.5-0.1,1-0.3,1.3-0.7c0.6-0.4,0.9-1,1.2-1.7c0.3-0.7,0.4-1.4,0.4-2.3
		c0-0.9-0.1-1.6-0.4-2.3c-0.3-0.7-0.6-1.2-1.2-1.7c-0.3-0.3-0.8-0.6-1.4-0.7c-0.5-0.1-1.4-0.2-2.6-0.2h-0.8h-0.9V404.7z M284,406.8
		V393h3c2,0,3.3,0.1,4.1,0.3c0.8,0.2,1.5,0.6,2.1,1c0.9,0.6,1.5,1.3,1.8,2.3c0.5,1,0.7,2.1,0.7,3.3c0,1.2-0.2,2.3-0.7,3.2
		c-0.3,1-0.9,1.7-1.8,2.4c-0.5,0.5-1.3,0.8-2,1c-0.8,0.2-2,0.3-3.6,0.3h-0.6H284z M306.7,402.6h-7.2c0.1,0.8,0.3,1.4,0.8,1.9
		c0.4,0.5,1,0.7,1.7,0.7c0.7,0,1.2-0.2,1.7-0.4c0.5-0.3,0.8-0.7,1.1-1.3l1.7,0.9c-0.4,0.9-1.1,1.6-1.8,2c-0.7,0.5-1.6,0.7-2.6,0.7
		c-1.4,0-2.6-0.4-3.4-1.3c-0.8-0.8-1.2-2.1-1.2-3.5c0-1.3,0.4-2.5,1.3-3.4c0.9-0.9,2-1.3,3.4-1.3c1.5,0,2.6,0.3,3.3,1.2
		c0.8,0.8,1.2,2,1.2,3.4V402.6z M304.6,401.2c-0.1-0.6-0.3-1.1-0.7-1.5c-0.3-0.3-0.9-0.5-1.6-0.5c-0.7,0-1.2,0.2-1.6,0.5
		c-0.4,0.3-0.7,0.8-0.9,1.5H304.6z M315.5,400.4c-0.3-0.3-0.7-0.6-1.1-0.8c-0.4-0.2-0.8-0.3-1.4-0.3c-0.8,0-1.5,0.3-1.9,0.8
		c-0.5,0.5-0.8,1.2-0.8,2.1c0,0.9,0.3,1.7,0.8,2.2c0.5,0.5,1.2,0.8,2.1,0.8c0.5,0,0.9-0.1,1.4-0.3c0.4-0.2,0.7-0.5,1-0.9v2.4
		c-0.4,0.2-0.8,0.4-1.2,0.5c-0.4,0.1-0.8,0.1-1.4,0.1c-1.4,0-2.5-0.4-3.4-1.3c-0.9-0.9-1.3-2-1.3-3.5c0-1.3,0.4-2.6,1.4-3.5
		c0.9-0.8,2.1-1.2,3.6-1.2c0.4,0,0.9,0,1.2,0.1c0.4,0.1,0.8,0.2,1.1,0.5V400.4z M317.7,392.2h2v14.6h-2V392.2z M330.9,406.8h-2v-1.2
		c-0.4,0.5-0.8,0.9-1.3,1.2c-0.4,0.2-1,0.3-1.6,0.3c-1.3,0-2.2-0.4-3-1.2c-0.7-0.9-1.1-2.1-1.1-3.6c0-1.4,0.4-2.6,1.1-3.5
		c0.8-0.8,1.7-1.2,2.9-1.2c0.7,0,1.4,0.1,1.9,0.4c0.5,0.3,0.9,0.7,1.1,1.3v-1.5h2V406.8z M329,402.3c0-0.9-0.2-1.7-0.6-2.1
		c-0.4-0.6-1-0.8-1.8-0.8c-0.8,0-1.4,0.2-1.9,0.8c-0.4,0.5-0.7,1.2-0.7,2.2c0,0.9,0.2,1.6,0.7,2.1c0.4,0.6,1,0.8,1.8,0.8
		c0.7,0,1.3-0.3,1.8-0.9C328.8,403.9,329,403.2,329,402.3 M335.8,399.3c0.2-0.6,0.6-1,0.9-1.4c0.4-0.2,0.8-0.3,1.3-0.3
		c0.3,0,0.6,0,0.9,0.1c0.3,0,0.5,0.1,0.8,0.2l-0.7,1.8c-0.2-0.1-0.3-0.2-0.5-0.3c-0.2,0-0.4-0.1-0.7-0.1c-0.7,0-1.2,0.3-1.5,0.8
		c-0.3,0.5-0.4,1.5-0.4,2.7v3.9h-2v-8.9h2V399.3z M349.5,402.6h-7.1c0,0.8,0.3,1.4,0.8,1.9c0.4,0.5,1,0.7,1.7,0.7
		c0.7,0,1.2-0.2,1.7-0.4c0.4-0.3,0.8-0.7,1.1-1.3l1.7,0.9c-0.5,0.9-1.2,1.6-1.9,2c-0.7,0.5-1.6,0.7-2.6,0.7c-1.5,0-2.6-0.4-3.4-1.3
		c-0.8-0.8-1.3-2.1-1.3-3.5c0-1.3,0.5-2.5,1.4-3.4c0.8-0.9,2-1.3,3.4-1.3c1.4,0,2.6,0.3,3.3,1.2c0.8,0.8,1.2,2,1.2,3.4V402.6z
		 M347.3,401.2c-0.1-0.6-0.3-1.1-0.7-1.5c-0.4-0.3-1-0.5-1.7-0.5c-0.6,0-1.2,0.2-1.6,0.5c-0.4,0.3-0.7,0.8-0.9,1.5H347.3z
		 M358,402.3c0-0.9-0.2-1.7-0.7-2.1c-0.5-0.6-1-0.8-1.8-0.8c-0.8,0-1.4,0.2-1.8,0.8c-0.5,0.5-0.6,1.2-0.6,2.2c0,0.9,0.2,1.6,0.6,2.1
		c0.4,0.6,1,0.8,1.8,0.8c0.7,0,1.3-0.3,1.8-0.9C357.8,404,358,403.2,358,402.3 M357.9,392.2h2.1v14.6h-2.1v-1.2
		c-0.3,0.5-0.8,0.9-1.2,1.2c-0.5,0.2-1.1,0.3-1.7,0.3c-1.3,0-2.2-0.4-3-1.2c-0.7-0.9-1.1-2.1-1.1-3.6c0-1.4,0.4-2.6,1.1-3.5
		c0.7-0.8,1.7-1.2,3-1.2c0.7,0,1.3,0.1,1.8,0.4c0.5,0.3,0.9,0.7,1.1,1.3V392.2z M368.7,393h2.2v8.4c0,1.2,0.3,2.1,0.8,2.7
		c0.6,0.6,1.5,1,2.6,1c1.1,0,2-0.3,2.6-1c0.6-0.6,0.8-1.5,0.8-2.7V393h2.3v8.6c0,1.9-0.5,3.3-1.4,4.2c-0.9,0.9-2.4,1.3-4.3,1.3
		c-1.9,0-3.3-0.4-4.3-1.3c-0.9-0.9-1.3-2.4-1.3-4.2V393z M388.3,392.7h1.6l-6.7,15.9h-1.6L388.3,392.7z M390.6,404l1.8-0.8
		c0.2,0.6,0.5,1.1,0.9,1.4c0.5,0.3,1.1,0.5,1.7,0.5c0.7,0,1.2-0.2,1.6-0.6c0.4-0.4,0.6-0.9,0.6-1.5c0-0.9-0.7-1.6-2-2.2
		c-0.2-0.1-0.3-0.1-0.5-0.2c-1.5-0.7-2.5-1.4-3-1.9c-0.5-0.7-0.8-1.3-0.8-2.2c0-1.1,0.4-2,1.2-2.7c0.8-0.7,1.7-1.1,3-1.1
		c1.1,0,1.8,0.2,2.5,0.6c0.7,0.3,1.2,0.9,1.5,1.6l-1.7,1c-0.3-0.4-0.6-0.8-1-1c-0.3-0.2-0.7-0.3-1.1-0.3c-0.6,0-1.1,0.1-1.4,0.4
		c-0.4,0.3-0.6,0.7-0.6,1.2c0,0.8,0.8,1.6,2.4,2.4c0.1,0,0.2,0.1,0.3,0.1c1.3,0.6,2.3,1.2,2.8,1.8c0.5,0.6,0.7,1.4,0.7,2.3
		c0,1.3-0.4,2.3-1.2,3.1c-0.8,0.8-2,1.1-3.4,1.1c-1.2,0-2.1-0.2-2.9-0.8C391.3,405.8,390.9,405,390.6,404 M407.2,403.1h2.1v0.1
		c0,0.7,0.2,1.1,0.6,1.5c0.4,0.4,1,0.6,1.8,0.6c0.8,0,1.5-0.2,1.9-0.7c0.4-0.5,0.7-1,0.7-1.8c0-0.8-0.2-1.5-0.7-1.9
		c-0.5-0.4-1.1-0.6-2.1-0.6h-0.2h-0.2v-1.8h0.2h0.2c0.8,0,1.5-0.1,1.8-0.4c0.4-0.4,0.6-0.9,0.6-1.6c0-0.6-0.2-1-0.6-1.3
		c-0.4-0.4-0.9-0.5-1.5-0.5c-0.7,0-1.2,0.2-1.6,0.4c-0.4,0.3-0.6,0.8-0.6,1.3h-2c0.1-1.1,0.5-2,1.2-2.7c0.7-0.6,1.7-0.9,3-0.9
		c1.2,0,2.2,0.3,3,1c0.7,0.6,1,1.5,1,2.6c0,0.9-0.2,1.5-0.6,2.1c-0.4,0.6-1,0.9-1.7,1c0.9,0.1,1.5,0.6,2,1.1
		c0.4,0.6,0.7,1.4,0.7,2.4c0,1.2-0.5,2.2-1.3,2.9c-0.8,0.7-2,1.1-3.5,1.1c-1.4,0-2.4-0.3-3.2-1.1
		C407.5,405.3,407.2,404.3,407.2,403.1 M432,402.3c0-0.8-0.2-1.4-0.8-2.1c-0.5-0.5-1.2-0.9-2-0.9c-0.7,0-1.4,0.3-2,0.9
		c-0.5,0.6-0.8,1.3-0.8,2.1c0,0.9,0.3,1.6,0.8,2.1c0.6,0.6,1.2,0.9,2,0.9c0.8,0,1.5-0.3,2-0.9C431.8,403.8,432,403.2,432,402.3
		 M424.4,402.3c0-0.6,0.1-1.2,0.3-1.8c0.3-0.6,0.6-1.1,1.1-1.6c0.5-0.4,0.9-0.8,1.6-1c0.5-0.2,1.2-0.3,1.8-0.3
		c0.7,0,1.3,0.1,1.9,0.3c0.6,0.2,1.2,0.6,1.6,1c0.5,0.5,0.8,1,1,1.6c0.2,0.6,0.4,1.2,0.4,1.8c0,0.7-0.2,1.3-0.4,1.9
		c-0.2,0.6-0.5,1.1-1,1.4c-0.4,0.5-1,0.9-1.6,1.1c-0.6,0.2-1.2,0.3-1.9,0.3c-0.7,0-1.2-0.1-1.8-0.3c-0.6-0.2-1.1-0.6-1.6-1
		c-0.5-0.5-0.9-1-1.1-1.6C424.5,403.6,424.4,403,424.4,402.3 M436.6,406.8v-7.1h-1.5v-1.8h1.5v-2.4c0-1.1,0.3-2,0.7-2.6
		c0.5-0.5,1.3-0.9,2.3-0.9c0.2,0,0.4,0,0.7,0c0.2,0.1,0.4,0.1,0.7,0.2v1.8c-0.2-0.1-0.3-0.1-0.5-0.2c-0.2,0-0.3,0-0.5,0
		c-0.5,0-0.9,0.1-1.1,0.5c-0.2,0.3-0.3,0.8-0.3,1.5v2.1h2.1v1.8h-2.1v7.1H436.6z M448.2,393h2.3v8.4c0,1.2,0.2,2.1,0.8,2.7
		c0.6,0.6,1.4,1,2.6,1c1.1,0,2-0.3,2.6-1c0.5-0.6,0.9-1.5,0.9-2.7V393h2.2v8.6c0,1.9-0.5,3.3-1.5,4.2c-0.9,0.9-2.4,1.3-4.2,1.3
		c-1.9,0-3.3-0.4-4.3-1.3c-1-0.9-1.4-2.4-1.4-4.2V393z M470.2,399.7h5.4v0.4v0.9c0,1.9-0.5,3.3-1.6,4.5c-1.1,1-2.7,1.6-4.7,1.6
		c-1.1,0-2.1-0.2-3-0.4c-0.9-0.4-1.7-0.9-2.3-1.6c-0.7-0.6-1.2-1.5-1.5-2.4c-0.3-0.9-0.5-1.8-0.5-2.8c0-1.1,0.2-2,0.5-2.9
		c0.3-0.9,0.9-1.6,1.6-2.3c0.6-0.7,1.4-1.2,2.3-1.5c0.9-0.3,1.9-0.5,2.9-0.5c1.1,0,2,0.2,2.9,0.6c0.9,0.3,1.6,1,2.3,1.8l-1.7,1.2
		c-0.4-0.6-1-1-1.5-1.2c-0.6-0.2-1.3-0.3-2-0.3c-1.5,0-2.7,0.5-3.6,1.4c-0.9,0.9-1.4,2.2-1.4,3.7c0,1.6,0.5,2.9,1.4,3.7
		c1,1,2.2,1.5,3.7,1.5c1.3,0,2.3-0.2,3-0.9c0.7-0.6,1.1-1.3,1.1-2.4v-0.2h-3.3V399.7z M489.1,396.3c-0.6-0.6-1.3-1-2-1.2
		c-0.7-0.2-1.4-0.3-2.2-0.3c-1.5,0-2.7,0.5-3.7,1.4c-0.9,0.9-1.4,2.2-1.4,3.7c0,1.5,0.5,2.7,1.4,3.7c0.9,1,2,1.4,3.4,1.4
		c0.9,0,1.6-0.2,2.4-0.4c0.7-0.3,1.4-0.8,2.1-1.4v2.6c-0.6,0.4-1.3,0.7-2,0.9c-0.7,0.2-1.5,0.3-2.3,0.3c-1.1,0-2-0.2-2.9-0.5
		c-0.9-0.3-1.7-0.8-2.4-1.5c-0.7-0.7-1.2-1.5-1.6-2.4c-0.4-0.9-0.6-1.8-0.6-2.8c0-1,0.2-2,0.6-2.8c0.3-0.9,0.9-1.7,1.6-2.3
		c0.7-0.7,1.5-1.2,2.4-1.6c0.9-0.3,1.8-0.5,2.9-0.5c0.8,0,1.6,0.1,2.3,0.4c0.7,0.2,1.4,0.6,2.1,1.1L489.1,396.3z M500.6,401.4h3.8
		l-1.4-3.1c0-0.2-0.1-0.4-0.2-0.7c-0.1-0.3-0.2-0.6-0.3-0.8c0,0.3-0.1,0.6-0.2,0.8c-0.1,0.3-0.2,0.6-0.3,0.8L500.6,401.4z
		 M506.7,406.8l-1.6-3.6h-5.4l-1.6,3.6h-2.3l6.6-14.3l6.7,14.3H506.7z M516.9,400.4c-0.3-0.3-0.7-0.6-1.1-0.8
		c-0.4-0.2-0.9-0.3-1.4-0.3c-0.8,0-1.5,0.3-1.9,0.8c-0.5,0.5-0.7,1.2-0.7,2.1c0,0.9,0.2,1.7,0.7,2.2c0.5,0.5,1.2,0.8,2.1,0.8
		c0.5,0,1-0.1,1.3-0.3c0.4-0.2,0.7-0.5,1-0.9v2.4c-0.4,0.2-0.8,0.4-1.2,0.5c-0.5,0.1-0.9,0.1-1.4,0.1c-1.4,0-2.5-0.4-3.4-1.3
		c-0.8-0.9-1.3-2-1.3-3.5c0-1.3,0.5-2.6,1.4-3.5c0.9-0.8,2.1-1.2,3.6-1.2c0.4,0,0.9,0,1.2,0.1c0.4,0.1,0.8,0.2,1.1,0.5V400.4z
		 M519.5,406.8v-7.1h-1.6v-1.8h1.6v-3.4h2v3.4h1.6v1.8h-1.6v7.1H519.5z M534.2,406.8v-11.9h-2.8l0.9-1.8h4v13.7H534.2z M549,397.5
		c0-0.9-0.2-1.5-0.6-2c-0.5-0.5-1-0.8-1.8-0.8c-0.8,0-1.4,0.3-1.9,0.8c-0.5,0.4-0.7,1.1-0.7,2c0,0.9,0.3,1.5,0.7,2
		c0.4,0.5,1,0.7,1.9,0.7c0.7,0,1.3-0.3,1.8-0.8C548.8,398.9,549,398.2,549,397.5 M547.8,401.6c-0.3,0.1-0.6,0.2-0.9,0.3
		c-0.3,0.1-0.7,0.1-0.9,0.1c-1.2,0-2.3-0.4-3-1.3c-0.8-0.8-1.2-1.9-1.2-3.1c0-1.5,0.5-2.6,1.4-3.4c0.9-0.8,2-1.3,3.5-1.3
		c1.4,0,2.6,0.5,3.3,1.2c0.8,0.9,1.3,2,1.3,3.3c0,1.5-1,3.6-3,6.4l-0.2,0.3l-2.5,3.4l-1.6-0.8L547.8,401.6z M554.6,403.5
		c0.4,0.6,0.7,1,1.2,1.3c0.5,0.2,1.1,0.5,1.6,0.5c1,0,1.7-0.3,2.2-0.9c0.6-0.6,0.9-1.3,0.9-2.3c0-0.9-0.3-1.6-0.9-2.2
		c-0.6-0.6-1.3-0.9-2.3-0.9c-0.6,0-1.1,0.1-1.6,0.3c-0.4,0.2-0.9,0.4-1.3,0.9l-0.6-0.1l1.8-7.1h6.5v1.8H557l-0.8,3.1
		c0.4-0.2,0.8-0.3,1.1-0.4c0.3-0.1,0.7-0.1,1-0.1c1.3,0,2.4,0.4,3.3,1.3c0.8,0.8,1.2,1.9,1.2,3.3c0,1.6-0.6,2.8-1.5,3.7
		c-1,0.9-2.2,1.3-3.9,1.3c-1,0-1.7-0.2-2.4-0.4c-0.7-0.4-1.3-0.9-1.9-1.6L554.6,403.5z M567.3,402.5c0,0.8,0.2,1.5,0.7,2
		c0.4,0.5,1,0.8,1.7,0.8c0.9,0,1.5-0.3,2-0.8c0.5-0.5,0.7-1.1,0.7-2c0-0.8-0.3-1.5-0.7-2c-0.4-0.5-1-0.7-1.9-0.7
		c-0.7,0-1.4,0.2-1.8,0.8C567.5,401.1,567.3,401.7,567.3,402.5 M568.5,398.3c0.3-0.1,0.6-0.2,0.9-0.3c0.3-0.1,0.6-0.2,0.9-0.2
		c1.2,0,2.2,0.4,3,1.3c0.8,0.9,1.2,1.9,1.2,3.2c0,1.4-0.5,2.6-1.4,3.5c-0.9,0.8-2,1.2-3.5,1.2c-1.4,0-2.5-0.4-3.3-1.2
		c-0.9-0.9-1.2-2-1.2-3.3c0-1.5,0.9-3.6,3-6.4l0.3-0.3l2.4-3.5l1.7,0.9L568.5,398.3z"/>
	<rect x="246" y="373.3" class="st10" width="366.6" height="2.7"/>
</g>
</svg>
